{
copyright = "Copyright (c) 2015 Christopher Simpkins / Copyright (c) 2003 by Bitstream, Inc. All Rights Reserved.";
customParameters = (
{
name = license;

glyphs = (
{
glyphname = A;
layers = (
{
layerId = "A8E9A3C4-7003-4333-ABE9-545A429BAB07";
name = Regular;
paths = (
{
closed = 1;
nodes = (
"616 1315 LINE",
"829 551 LINE",
"403 551 LINE"
);
},
{
closed = 1;
nodes = (
"494 1493 LINE",
"37 0 LINE",
"246 0 LINE",
"354 389 LINE",
"877 389 LINE",
"987 0 LINE",
"1196 0 LINE",
"739 1493 LINE"
);
}
);
width = 1233;
}
);
note = "\012\011A\012  ";
unicode = 0041;
},
{
glyphname = Aacute;
layers = (
{
layerId = "A8E9A3C4-7003-4333-ABE9-545A429BAB07";
name = Regular;
paths = (
{
closed = 1;
nodes = (
"616 1315 LINE",
"829 551 LINE",
"403 551 LINE"
);
},
{
closed = 1;
nodes = (
"494 1493 LINE",
"37 0 LINE",
"246 0 LINE",
"354 389 LINE",
"877 389 LINE",
"987 0 LINE",
"1196 0 LINE",
"739 1493 LINE"
);
},
{
closed = 1;
nodes = (
"672 1899 LINE",
"475 1635 LINE",
"629 1635 LINE",
"858 1899 LINE"
);
}
);
width = 1233;
}
);
note = "\012\011Aacute\012  ";
unicode = 00C1;
},
{
glyphname = Abreve;
lastChange = "2015-07-16 00:33:56 +0000";
layers = (
{
layerId = "A8E9A3C4-7003-4333-ABE9-545A429BAB07";
name = Regular;
paths = (
{
closed = 1;
nodes = (
"422 1901 LINE",
"438 1829 OFFCURVE",
"506 1790 OFFCURVE",
"618 1790 CURVE SMOOTH",
"726 1790 OFFCURVE",
"791 1826 OFFCURVE",
"811 1901 CURVE",
"930 1901 LINE",
"915 1742 OFFCURVE",
"808 1659 OFFCURVE",
"616 1659 CURVE SMOOTH",
"424 1659 OFFCURVE",
"318 1741 OFFCURVE",
"303 1901 CURVE"
);
},
{
closed = 1;
nodes = (
"616 1315 LINE",
"403 551 LINE",
"829 551 LINE"
);
},
{
closed = 1;
nodes = (
"494 1493 LINE",
"739 1493 LINE",
"1196 0 LINE",
"987 0 LINE",
"877 389 LINE",
"354 389 LINE",
"246 0 LINE",
"37 0 LINE"
);
}
);
width = 1233;
}
);
note = "\012\011Abreve\012  ";
unicode = 0102;
},
{
glyphname = Acircumflex;
layers = (
{
layerId = "A8E9A3C4-7003-4333-ABE9-545A429BAB07";
name = Regular;
paths = (
{
closed = 1;
nodes = (
"616 1315 LINE",
"829 551 LINE",
"403 551 LINE"
);
},
{
closed = 1;
nodes = (
"494 1493 LINE",
"37 0 LINE",
"246 0 LINE",
"354 389 LINE",
"877 389 LINE",
"987 0 LINE",
"1196 0 LINE",
"739 1493 LINE"
);
},
{
closed = 1;
nodes = (
"522 1901 LINE",
"311 1635 LINE",
"451 1635 LINE",
"616 1813 LINE",
"782 1635 LINE",
"922 1635 LINE",
"711 1901 LINE"
);
}
);
width = 1233;
}
);
note = "\012\011Acircumflex\012  ";
unicode = 00C2;
},
{
glyphname = Adieresis;
layers = (
{
layerId = "A8E9A3C4-7003-4333-ABE9-545A429BAB07";
name = Regular;
paths = (
{
closed = 1;
nodes = (
"616 1315 LINE",
"829 551 LINE",
"403 551 LINE"
);
},
{
closed = 1;
nodes = (
"494 1493 LINE",
"37 0 LINE",
"246 0 LINE",
"354 389 LINE",
"877 389 LINE",
"987 0 LINE",
"1196 0 LINE",
"739 1493 LINE"
);
},
{
closed = 1;
nodes = (
"349 1870 LINE SMOOTH",
"330 1870 OFFCURVE",
"319 1859 OFFCURVE",
"319 1840 CURVE SMOOTH",
"319 1697 LINE SMOOTH",
"319 1678 OFFCURVE",
"330 1667 OFFCURVE",
"349 1667 CURVE SMOOTH",
"492 1667 LINE SMOOTH",
"511 1667 OFFCURVE",
"522 1678 OFFCURVE",
"522 1697 CURVE SMOOTH",
"522 1840 LINE SMOOTH",
"522 1859 OFFCURVE",
"511 1870 OFFCURVE",
"492 1870 CURVE SMOOTH"
);
},
{
closed = 1;
nodes = (
"741 1870 LINE SMOOTH",
"722 1870 OFFCURVE",
"711 1859 OFFCURVE",
"711 1840 CURVE SMOOTH",
"711 1697 LINE SMOOTH",
"711 1678 OFFCURVE",
"722 1667 OFFCURVE",
"741 1667 CURVE SMOOTH",
"883 1667 LINE SMOOTH",
"902 1667 OFFCURVE",
"913 1678 OFFCURVE",
"913 1697 CURVE SMOOTH",
"913 1840 LINE SMOOTH",
"913 1859 OFFCURVE",
"902 1870 OFFCURVE",
"883 1870 CURVE SMOOTH"
);
}
);
width = 1233;
}
);
note = "\012\011Adieresis\012  ";
unicode = 00C4;
},
{
glyphname = Agrave;
layers = (
{
layerId = "A8E9A3C4-7003-4333-ABE9-545A429BAB07";
name = Regular;
paths = (
{
closed = 1;
nodes = (
"616 1315 LINE",
"829 551 LINE",
"403 551 LINE"
);
},
{
closed = 1;
nodes = (
"494 1493 LINE",
"37 0 LINE",
"246 0 LINE",
"354 389 LINE",
"877 389 LINE",
"987 0 LINE",
"1196 0 LINE",
"739 1493 LINE"
);
},
{
closed = 1;
nodes = (
"561 1899 LINE",
"377 1899 LINE",
"604 1635 LINE",
"758 1635 LINE"
);
}
);
width = 1233;
}
);
note = "\012\011Agrave\012  ";
unicode = 00C0;
},
{
glyphname = Amacron;
layers = (
{
layerId = "A8E9A3C4-7003-4333-ABE9-545A429BAB07";
name = Regular;
paths = (
{
closed = 1;
nodes = (
"317 1840 LINE",
"915 1840 LINE",
"915 1692 LINE",
"317 1692 LINE"
);
},
{
closed = 1;
nodes = (
"616 1315 LINE",
"403 551 LINE",
"829 551 LINE"
);
},
{
closed = 1;
nodes = (
"494 1493 LINE",
"739 1493 LINE",
"1196 0 LINE",
"987 0 LINE",
"877 389 LINE",
"354 389 LINE",
"246 0 LINE",
"37 0 LINE"
);
}
);
width = 1233;
}
);
note = "\012\011Amacron\012  ";
unicode = 0100;
},
{
glyphname = Aogonek;
lastChange = "2015-07-16 00:34:36 +0000";
layers = (
{
layerId = "A8E9A3C4-7003-4333-ABE9-545A429BAB07";
name = Regular;
paths = (
{
closed = 1;
nodes = (
"1102 0 LINE",
"1038 -87 OFFCURVE",
"1014 -139 OFFCURVE",
"1014 -184 CURVE SMOOTH",
"1014 -240 OFFCURVE",
"1052 -272 OFFCURVE",
"1124 -272 CURVE SMOOTH",
"1165 -272 OFFCURVE",
"1192 -262 OFFCURVE",
"1233 -242 CURVE",
"1233 -375 LINE",
"1174 -390 OFFCURVE",
"1151 -395 OFFCURVE",
"1106 -395 CURVE SMOOTH",
"956 -395 OFFCURVE",
"875 -339 OFFCURVE",
"875 -222 CURVE SMOOTH",
"875 -155 OFFCURVE",
"901 -94 OFFCURVE",
"983 0 CURVE"
);
},
{
closed = 1;
nodes = (
"616 1315 LINE",
"403 551 LINE",
"829 551 LINE"
);
},
{
closed = 1;
nodes = (
"494 1493 LINE",
"739 1493 LINE",
"1196 0 LINE",
"987 0 LINE",
"877 389 LINE",
"354 389 LINE",
"246 0 LINE",
"37 0 LINE"
);
}
);
width = 1233;
}
);
note = "\012\011Aogonek\012  ";
unicode = 0104;
},
{
glyphname = Aring;
layers = (
{
layerId = "A8E9A3C4-7003-4333-ABE9-545A429BAB07";
name = Regular;
paths = (
{
closed = 1;
nodes = (
"768 1584 OFFCURVE",
"753 1548 OFFCURVE",
"724 1519 CURVE SMOOTH",
"698 1493 OFFCURVE",
"661 1475 OFFCURVE",
"616 1475 CURVE SMOOTH",
"574 1475 OFFCURVE",
"538 1490 OFFCURVE",
"509 1519 CURVE SMOOTH",
"480 1548 OFFCURVE",
"465 1584 OFFCURVE",
"465 1626 CURVE SMOOTH",
"465 1669 OFFCURVE",
"480 1706 OFFCURVE",
"509 1735 CURVE SMOOTH",
"538 1764 OFFCURVE",
"574 1778 OFFCURVE",
"615 1778 CURVE SMOOTH",
"654 1778 OFFCURVE",
"693 1765 OFFCURVE",
"724 1734 CURVE SMOOTH",
"750 1708 OFFCURVE",
"768 1671 OFFCURVE",
"768 1626 CURVE SMOOTH"
);
},
{
closed = 1;
nodes = (
"616 1311 LINE",
"829 551 LINE",
"403 551 LINE"
);
},
{
closed = 1;
nodes = (
"37 0 LINE",
"246 0 LINE",
"354 389 LINE",
"877 389 LINE",
"987 0 LINE",
"1196 0 LINE",
"768 1399 LINE",
"807 1423 OFFCURVE",
"838 1455 OFFCURVE",
"859 1494 CURVE SMOOTH",
"880 1533 OFFCURVE",
"891 1578 OFFCURVE",
"891 1625 CURVE SMOOTH",
"891 1706 OFFCURVE",
"858 1775 OFFCURVE",
"812 1821 CURVE SMOOTH",
"763 1870 OFFCURVE",
"693 1901 OFFCURVE",
"616 1901 CURVE SMOOTH",
"540 1901 OFFCURVE",
"471 1871 OFFCURVE",
"422 1822 CURVE SMOOTH",
"373 1773 OFFCURVE",
"342 1703 OFFCURVE",
"342 1625 CURVE SMOOTH",
"342 1579 OFFCURVE",
"353 1533 OFFCURVE",
"375 1492 CURVE SMOOTH",
"395 1455 OFFCURVE",
"425 1421 OFFCURVE",
"465 1399 CURVE"
);
}
);
width = 1233;
}
);
note = "\012\011Aring\012  ";
unicode = 00C5;
},
{
glyphname = Atilde;
lastChange = "2015-07-16 00:35:13 +0000";
layers = (
{
layerId = "A8E9A3C4-7003-4333-ABE9-545A429BAB07";
name = Regular;
paths = (
{
closed = 1;
nodes = (
"616 1315 LINE",
"829 551 LINE",
"403 551 LINE"
);
},
{
closed = 1;
nodes = (
"494 1493 LINE",
"37 0 LINE",
"246 0 LINE",
"354 389 LINE",
"877 389 LINE",
"987 0 LINE",
"1196 0 LINE",
"739 1493 LINE"
);
},
{
closed = 1;
nodes = (
"612 1710 LINE",
"653 1689 OFFCURVE",
"675 1680 OFFCURVE",
"694 1675 CURVE SMOOTH",
"714 1670 OFFCURVE",
"735 1667 OFFCURVE",
"757 1667 CURVE SMOOTH",
"814 1667 OFFCURVE",
"859 1687 OFFCURVE",
"893 1727 CURVE SMOOTH",
"928 1768 OFFCURVE",
"945 1819 OFFCURVE",
"946 1886 CURVE",
"821 1886 LINE",
"821 1880 LINE SMOOTH",
"821 1853 OFFCURVE",
"814 1831 OFFCURVE",
"801 1814 CURVE SMOOTH",
"788 1797 OFFCURVE",
"771 1788 OFFCURVE",
"750 1788 CURVE SMOOTH",
"740 1788 OFFCURVE",
"729 1790 OFFCURVE",
"718 1794 CURVE SMOOTH",
"706 1798 OFFCURVE",
"693 1804 OFFCURVE",
"678 1813 CURVE",
"621 1843 LINE SMOOTH",
"586 1862 OFFCURVE",
"562 1873 OFFCURVE",
"542 1878 CURVE SMOOTH",
"521 1883 OFFCURVE",
"499 1886 OFFCURVE",
"476 1886 CURVE SMOOTH",
"418 1886 OFFCURVE",
"373 1866 OFFCURVE",
"339 1827 CURVE SMOOTH",
"302 1785 OFFCURVE",
"287 1731 OFFCURVE",
"287 1667 CURVE",
"412 1667 LINE",
"412 1673 LINE SMOOTH",
"412 1703 OFFCURVE",
"419 1726 OFFCURVE",
"432 1743 CURVE SMOOTH",
"445 1760 OFFCURVE",
"465 1768 OFFCURVE",
"485 1768 CURVE SMOOTH",
"492 1768 OFFCURVE",
"503 1767 OFFCURVE",
"514 1763 CURVE SMOOTH",
"527 1758 OFFCURVE",
"541 1751 OFFCURVE",
"555 1743 CURVE SMOOTH"
);
}
);
width = 1233;
}
);
note = "\012\011Atilde\012  ";
unicode = 00C3;
},
{
glyphname = AE;
layers = (
{
layerId = "A8E9A3C4-7003-4333-ABE9-545A429BAB07";
name = Regular;
paths = (
{
closed = 1;
nodes = (
"1161 1493 LINE",
"410 1493 LINE",
"0 0 LINE",
"184 0 LINE",
"285 383 LINE",
"637 383 LINE",
"637 0 LINE",
"1180 0 LINE",
"1180 170 LINE",
"823 170 LINE",
"823 711 LINE",
"1130 711 LINE",
"1130 881 LINE",
"823 881 LINE",
"823 1323 LINE",
"1161 1323 LINE"
);
},
{
closed = 1;
nodes = (
"530 1323 LINE",
"637 1323 LINE",
"637 551 LINE",
"328 551 LINE"
);
}
);
width = 1233;
}
);
note = "\012\011AE\012  ";
unicode = 00C6;
},
{
glyphname = B;
layers = (
{
layerId = "A8E9A3C4-7003-4333-ABE9-545A429BAB07";
name = Regular;
paths = (
{
closed = 1;
nodes = (
"369 713 LINE",
"608 713 LINE SMOOTH",
"720 713 OFFCURVE",
"802 690 OFFCURVE",
"855 645 CURVE SMOOTH",
"908 599 OFFCURVE",
"934 527 OFFCURVE",
"934 430 CURVE SMOOTH",
"934 336 OFFCURVE",
"909 269 OFFCURVE",
"859 228 CURVE SMOOTH",
"809 187 OFFCURVE",
"725 166 OFFCURVE",
"608 166 CURVE SMOOTH",
"369 166 LINE"
);
},
{
closed = 1;
nodes = (
"369 1327 LINE",
"604 1327 LINE SMOOTH",
"703 1327 OFFCURVE",
"774 1310 OFFCURVE",
"817 1277 CURVE SMOOTH",
"860 1244 OFFCURVE",
"881 1191 OFFCURVE",
"881 1111 CURVE SMOOTH",
"881 1031 OFFCURVE",
"860 972 OFFCURVE",
"816 934 CURVE SMOOTH",
"772 896 OFFCURVE",
"705 877 OFFCURVE",
"604 877 CURVE SMOOTH",
"369 877 LINE"
);
},
{
closed = 1;
nodes = (
"166 1493 LINE",
"166 0 LINE",
"608 0 LINE SMOOTH",
"783 0 OFFCURVE",
"915 35 OFFCURVE",
"1004 104 CURVE SMOOTH",
"1093 173 OFFCURVE",
"1137 275 OFFCURVE",
"1137 409 CURVE SMOOTH",
"1137 518 OFFCURVE",
"1108 607 OFFCURVE",
"1054 674 CURVE SMOOTH",
"998 743 OFFCURVE",
"921 784 OFFCURVE",
"823 799 CURVE",
"912 812 OFFCURVE",
"978 847 OFFCURVE",
"1020 898 CURVE SMOOTH",
"1061 948 OFFCURVE",
"1085 1020 OFFCURVE",
"1085 1113 CURVE SMOOTH",
"1085 1235 OFFCURVE",
"1044 1328 OFFCURVE",
"961 1394 CURVE SMOOTH",
"878 1460 OFFCURVE",
"761 1493 OFFCURVE",
"608 1493 CURVE SMOOTH"
);
}
);
width = 1233;
}
);
note = "\012\011B\012  ";
unicode = 0042;
},
{
glyphname = C;
layers = (
{
layerId = "A8E9A3C4-7003-4333-ABE9-545A429BAB07";
name = Regular;
paths = (
{
closed = 1;
nodes = (
"1073 260 LINE",
"1024 219 OFFCURVE",
"972 188 OFFCURVE",
"916 167 CURVE SMOOTH",
"859 146 OFFCURVE",
"803 135 OFFCURVE",
"743 135 CURVE SMOOTH",
"613 135 OFFCURVE",
"513 186 OFFCURVE",
"448 287 CURVE SMOOTH",
"383 388 OFFCURVE",
"350 541 OFFCURVE",
"350 745 CURVE SMOOTH",
"350 950 OFFCURVE",
"383 1103 OFFCURVE",
"448 1204 CURVE SMOOTH",
"513 1305 OFFCURVE",
"613 1356 OFFCURVE",
"741 1356 CURVE SMOOTH",
"801 1356 OFFCURVE",
"857 1345 OFFCURVE",
"914 1324 CURVE SMOOTH",
"973 1302 OFFCURVE",
"1024 1272 OFFCURVE",
"1073 1231 CURVE",
"1073 1438 LINE",
"1025 1464 OFFCURVE",
"963 1488 OFFCURVE",
"915 1500 CURVE SMOOTH",
"867 1512 OFFCURVE",
"806 1520 OFFCURVE",
"742 1520 CURVE SMOOTH",
"557 1520 OFFCURVE",
"404 1452 OFFCURVE",
"298 1316 CURVE SMOOTH",
"192 1180 OFFCURVE",
"139 984 OFFCURVE",
"139 744 CURVE SMOOTH",
"139 504 OFFCURVE",
"192 309 OFFCURVE",
"297 174 CURVE SMOOTH",
"403 38 OFFCURVE",
"557 -29 OFFCURVE",
"742 -29 CURVE SMOOTH",
"802 -29 OFFCURVE",
"863 -22 OFFCURVE",
"915 -9 CURVE SMOOTH",
"969 5 OFFCURVE",
"1022 26 OFFCURVE",
"1073 53 CURVE"
);
}
);
width = 1233;
}
);
note = "\012\011C\012  ";
unicode = 0043;
},
{
glyphname = Cacute;
layers = (
{
layerId = "A8E9A3C4-7003-4333-ABE9-545A429BAB07";
name = Regular;
paths = (
{
closed = 1;
nodes = (
"1073 260 LINE",
"1024 219 OFFCURVE",
"972 188 OFFCURVE",
"916 167 CURVE SMOOTH",
"860 146 OFFCURVE",
"802 135 OFFCURVE",
"742 135 CURVE SMOOTH",
"607 135 OFFCURVE",
"510 191 OFFCURVE",
"448 287 CURVE SMOOTH",
"383 388 OFFCURVE",
"350 541 OFFCURVE",
"350 745 CURVE SMOOTH",
"350 950 OFFCURVE",
"383 1103 OFFCURVE",
"448 1204 CURVE SMOOTH",
"513 1305 OFFCURVE",
"613 1356 OFFCURVE",
"741 1356 CURVE SMOOTH",
"801 1356 OFFCURVE",
"857 1345 OFFCURVE",
"914 1324 CURVE SMOOTH",
"973 1302 OFFCURVE",
"1024 1272 OFFCURVE",
"1073 1231 CURVE",
"1073 1438 LINE",
"1022 1465 OFFCURVE",
"966 1487 OFFCURVE",
"915 1500 CURVE SMOOTH",
"863 1513 OFFCURVE",
"802 1520 OFFCURVE",
"742 1520 CURVE SMOOTH",
"552 1520 OFFCURVE",
"401 1448 OFFCURVE",
"298 1316 CURVE SMOOTH",
"192 1180 OFFCURVE",
"139 984 OFFCURVE",
"139 744 CURVE SMOOTH",
"139 504 OFFCURVE",
"192 309 OFFCURVE",
"297 174 CURVE SMOOTH",
"400 42 OFFCURVE",
"552 -29 OFFCURVE",
"742 -29 CURVE SMOOTH",
"802 -29 OFFCURVE",
"863 -22 OFFCURVE",
"915 -9 CURVE SMOOTH",
"969 5 OFFCURVE",
"1022 26 OFFCURVE",
"1073 53 CURVE"
);
},
{
closed = 1;
nodes = (
"762 1899 LINE",
"565 1635 LINE",
"719 1635 LINE",
"948 1899 LINE"
);
}
);
width = 1233;
}
);
note = "\012\011Cacute\012  ";
unicode = 0106;
},
{
glyphname = Ccaron;
layers = (
{
layerId = "A8E9A3C4-7003-4333-ABE9-545A429BAB07";
name = Regular;
paths = (
{
closed = 1;
nodes = (
"1073 260 LINE",
"1024 219 OFFCURVE",
"972 188 OFFCURVE",
"916 167 CURVE SMOOTH",
"860 146 OFFCURVE",
"802 135 OFFCURVE",
"742 135 CURVE SMOOTH",
"607 135 OFFCURVE",
"510 191 OFFCURVE",
"448 287 CURVE SMOOTH",
"383 388 OFFCURVE",
"350 541 OFFCURVE",
"350 745 CURVE SMOOTH",
"350 950 OFFCURVE",
"383 1103 OFFCURVE",
"448 1204 CURVE SMOOTH",
"513 1305 OFFCURVE",
"613 1356 OFFCURVE",
"741 1356 CURVE SMOOTH",
"801 1356 OFFCURVE",
"857 1345 OFFCURVE",
"914 1324 CURVE SMOOTH",
"973 1302 OFFCURVE",
"1024 1272 OFFCURVE",
"1073 1231 CURVE",
"1073 1438 LINE",
"1022 1465 OFFCURVE",
"966 1487 OFFCURVE",
"915 1500 CURVE SMOOTH",
"863 1513 OFFCURVE",
"802 1520 OFFCURVE",
"742 1520 CURVE SMOOTH",
"552 1520 OFFCURVE",
"401 1448 OFFCURVE",
"298 1316 CURVE SMOOTH",
"192 1180 OFFCURVE",
"139 984 OFFCURVE",
"139 744 CURVE SMOOTH",
"139 504 OFFCURVE",
"192 309 OFFCURVE",
"297 174 CURVE SMOOTH",
"400 42 OFFCURVE",
"552 -29 OFFCURVE",
"742 -29 CURVE SMOOTH",
"802 -29 OFFCURVE",
"863 -22 OFFCURVE",
"915 -9 CURVE SMOOTH",
"969 5 OFFCURVE",
"1022 26 OFFCURVE",
"1073 53 CURVE"
);
},
{
closed = 1;
nodes = (
"612 1635 LINE",
"801 1635 LINE",
"1012 1901 LINE",
"872 1901 LINE",
"706 1723 LINE",
"541 1901 LINE",
"401 1901 LINE"
);
}
);
width = 1233;
}
);
note = "\012\011Ccaron\012  ";
unicode = 010C;
},
{
glyphname = Ccedilla;
lastChange = "2015-07-16 00:38:53 +0000";
layers = (
{
layerId = "A8E9A3C4-7003-4333-ABE9-545A429BAB07";
name = Regular;
paths = (
{
closed = 1;
nodes = (
"1073 260 LINE",
"1024 219 OFFCURVE",
"972 188 OFFCURVE",
"916 167 CURVE SMOOTH",
"860 146 OFFCURVE",
"802 135 OFFCURVE",
"742 135 CURVE SMOOTH",
"607 135 OFFCURVE",
"510 191 OFFCURVE",
"448 287 CURVE SMOOTH",
"383 388 OFFCURVE",
"350 541 OFFCURVE",
"350 745 CURVE SMOOTH",
"350 950 OFFCURVE",
"383 1103 OFFCURVE",
"448 1204 CURVE SMOOTH",
"513 1305 OFFCURVE",
"613 1356 OFFCURVE",
"741 1356 CURVE SMOOTH",
"801 1356 OFFCURVE",
"857 1345 OFFCURVE",
"914 1324 CURVE SMOOTH",
"973 1302 OFFCURVE",
"1024 1272 OFFCURVE",
"1073 1231 CURVE",
"1073 1438 LINE",
"1022 1465 OFFCURVE",
"966 1487 OFFCURVE",
"915 1500 CURVE SMOOTH",
"863 1513 OFFCURVE",
"802 1520 OFFCURVE",
"742 1520 CURVE SMOOTH",
"552 1520 OFFCURVE",
"401 1448 OFFCURVE",
"298 1316 CURVE SMOOTH",
"192 1180 OFFCURVE",
"139 984 OFFCURVE",
"139 744 CURVE SMOOTH",
"139 504 OFFCURVE",
"192 309 OFFCURVE",
"297 174 CURVE SMOOTH",
"400 42 OFFCURVE",
"552 -29 OFFCURVE",
"742 -29 CURVE SMOOTH",
"802 -29 OFFCURVE",
"863 -22 OFFCURVE",
"915 -9 CURVE SMOOTH",
"969 5 OFFCURVE",
"1022 26 OFFCURVE",
"1073 53 CURVE"
);
},
{
closed = 1;
nodes = (
"682 0 LINE",
"711 -41 OFFCURVE",
"733 -76 OFFCURVE",
"748 -105 CURVE SMOOTH",
"763 -134 OFFCURVE",
"770 -157 OFFCURVE",
"770 -180 CURVE SMOOTH",
"770 -208 OFFCURVE",
"760 -232 OFFCURVE",
"740 -248 CURVE SMOOTH",
"719 -265 OFFCURVE",
"688 -272 OFFCURVE",
"646 -272 CURVE SMOOTH",
"623 -272 OFFCURVE",
"592 -270 OFFCURVE",
"567 -265 CURVE SMOOTH",
"542 -260 OFFCURVE",
"518 -251 OFFCURVE",
"495 -240 CURVE",
"495 -371 LINE",
"524 -379 OFFCURVE",
"554 -385 OFFCURVE",
"583 -389 CURVE SMOOTH",
"612 -393 OFFCURVE",
"641 -395 OFFCURVE",
"670 -395 CURVE SMOOTH",
"752 -395 OFFCURVE",
"811 -379 OFFCURVE",
"849 -350 CURVE SMOOTH",
"889 -319 OFFCURVE",
"909 -272 OFFCURVE",
"909 -219 CURVE SMOOTH",
"909 -179 OFFCURVE",
"898 -145 OFFCURVE",
"883 -115 CURVE SMOOTH",
"867 -83 OFFCURVE",
"837 -41 OFFCURVE",
"800 0 CURVE"
);
}
);
width = 1233;
}
);
note = "\012\011Ccedilla\012  ";
unicode = 00C7;
},
{
glyphname = Cdotaccent;
lastChange = "2015-07-16 00:39:47 +0000";
layers = (
{
layerId = "A8E9A3C4-7003-4333-ABE9-545A429BAB07";
name = Regular;
paths = (
{
closed = 1;
nodes = (
"588 1842 LINE SMOOTH",
"588 1861 OFFCURVE",
"599 1872 OFFCURVE",
"618 1872 CURVE SMOOTH",
"763 1872 LINE SMOOTH",
"782 1872 OFFCURVE",
"793 1861 OFFCURVE",
"793 1842 CURVE SMOOTH",
"793 1697 LINE SMOOTH",
"793 1678 OFFCURVE",
"782 1667 OFFCURVE",
"763 1667 CURVE SMOOTH",
"618 1667 LINE SMOOTH",
"599 1667 OFFCURVE",
"588 1678 OFFCURVE",
"588 1697 CURVE SMOOTH"
);
},
{
closed = 1;
nodes = (
"1073 53 LINE",
"970 -2 OFFCURVE",
"863 -29 OFFCURVE",
"744 -29 CURVE SMOOTH",
"360 -29 OFFCURVE",
"139 254 OFFCURVE",
"139 743 CURVE SMOOTH",
"139 1233 OFFCURVE",
"361 1520 OFFCURVE",
"745 1520 CURVE SMOOTH",
"863 1520 OFFCURVE",
"970 1493 OFFCURVE",
"1073 1438 CURVE",
"1073 1231 LINE",
"976 1310 OFFCURVE",
"863 1356 OFFCURVE",
"740 1356 CURVE SMOOTH",
"482 1356 OFFCURVE",
"350 1155 OFFCURVE",
"350 745 CURVE SMOOTH",
"350 339 OFFCURVE",
"480 135 OFFCURVE",
"740 135 CURVE SMOOTH",
"861 135 OFFCURVE",
"976 179 OFFCURVE",
"1073 260 CURVE"
);
}
);
width = 1233;
}
);
note = "\012\011Cdotaccent\012  ";
unicode = 010A;
},
{
glyphname = D;
layers = (
{
layerId = "A8E9A3C4-7003-4333-ABE9-545A429BAB07";
name = Regular;
paths = (
{
closed = 1;
nodes = (
"340 166 LINE",
"340 1327 LINE",
"436 1327 LINE SMOOTH",
"602 1327 OFFCURVE",
"725 1287 OFFCURVE",
"793 1202 CURVE SMOOTH",
"860 1118 OFFCURVE",
"893 965 OFFCURVE",
"893 747 CURVE SMOOTH",
"893 525 OFFCURVE",
"859 375 OFFCURVE",
"792 292 CURVE SMOOTH",
"725 208 OFFCURVE",
"606 166 OFFCURVE",
"436 166 CURVE SMOOTH"
);
},
{
closed = 1;
nodes = (
"137 1493 LINE",
"137 0 LINE",
"440 0 LINE SMOOTH",
"668 0 OFFCURVE",
"836 61 OFFCURVE",
"944 182 CURVE SMOOTH",
"1052 303 OFFCURVE",
"1106 490 OFFCURVE",
"1106 745 CURVE SMOOTH",
"1106 1001 OFFCURVE",
"1052 1190 OFFCURVE",
"944 1311 CURVE SMOOTH",
"836 1432 OFFCURVE",
"668 1493 OFFCURVE",
"440 1493 CURVE SMOOTH"
);
}
);
width = 1233;
}
);
note = "\012\011D\012  ";
unicode = 0044;
},
{
glyphname = Eth;
lastChange = "2015-07-16 00:39:57 +0000";
layers = (
{
layerId = "A8E9A3C4-7003-4333-ABE9-545A429BAB07";
name = Regular;
paths = (
{
closed = 1;
nodes = (
"133 1493 LINE",
"133 858 LINE",
"8 858 LINE",
"8 709 LINE",
"133 709 LINE",
"133 0 LINE",
"436 0 LINE SMOOTH",
"658 0 OFFCURVE",
"830 59 OFFCURVE",
"940 182 CURVE SMOOTH",
"1048 303 OFFCURVE",
"1102 490 OFFCURVE",
"1102 746 CURVE SMOOTH",
"1102 1001 OFFCURVE",
"1048 1190 OFFCURVE",
"940 1311 CURVE SMOOTH",
"832 1432 OFFCURVE",
"664 1493 OFFCURVE",
"436 1493 CURVE SMOOTH"
);
},
{
closed = 1;
nodes = (
"340 166 LINE",
"340 709 LINE",
"604 709 LINE",
"604 858 LINE",
"340 858 LINE",
"340 1327 LINE",
"436 1327 LINE SMOOTH",
"609 1327 OFFCURVE",
"721 1289 OFFCURVE",
"792 1200 CURVE SMOOTH",
"859 1116 OFFCURVE",
"893 981 OFFCURVE",
"893 748 CURVE SMOOTH",
"893 522 OFFCURVE",
"861 380 OFFCURVE",
"791 293 CURVE SMOOTH",
"725 211 OFFCURVE",
"620 166 OFFCURVE",
"436 166 CURVE SMOOTH"
);
}
);
width = 1233;
}
);
note = "\012\011Eth\012  ";
unicode = 00D0;
},
{
glyphname = Dcaron;
lastChange = "2015-07-16 00:40:05 +0000";
layers = (
{
layerId = "A8E9A3C4-7003-4333-ABE9-545A429BAB07";
name = Regular;
paths = (
{
closed = 1;
nodes = (
"436 166 LINE SMOOTH",
"777 166 OFFCURVE",
"893 308 OFFCURVE",
"893 746 CURVE SMOOTH",
"893 1186 OFFCURVE",
"776 1327 OFFCURVE",
"436 1327 CURVE SMOOTH",
"340 1327 LINE",
"340 166 LINE"
);
},
{
closed = 1;
nodes = (
"440 1493 LINE SMOOTH",
"896 1493 OFFCURVE",
"1106 1257 OFFCURVE",
"1106 747 CURVE SMOOTH",
"1106 236 OFFCURVE",
"896 0 OFFCURVE",
"440 0 CURVE SMOOTH",
"137 0 LINE",
"137 1493 LINE"
);
},
{
closed = 1;
nodes = (
"444 1629 LINE",
"233 1895 LINE",
"373 1895 LINE",
"538 1717 LINE",
"704 1895 LINE",
"844 1895 LINE",
"633 1629 LINE"
);
}
);
width = 1233;
}
);
note = "\012\011Dcaron\012  ";
unicode = 010E;
},
{
glyphname = Dcroat;
lastChange = "2015-07-16 00:40:39 +0000";
layers = (
{
layerId = "A8E9A3C4-7003-4333-ABE9-545A429BAB07";
name = Regular;
paths = (
{
closed = 1;
nodes = (
"436 1493 LINE SMOOTH",
"891 1493 OFFCURVE",
"1102 1257 OFFCURVE",
"1102 746 CURVE SMOOTH",
"1102 236 OFFCURVE",
"892 0 OFFCURVE",
"436 0 CURVE SMOOTH",
"133 0 LINE",
"133 709 LINE",
"8 709 LINE",
"8 858 LINE",
"133 858 LINE",
"133 1493 LINE"
);
},
{
closed = 1;
nodes = (
"436 166 LINE SMOOTH",
"777 166 OFFCURVE",
"893 308 OFFCURVE",
"893 746 CURVE SMOOTH",
"893 1186 OFFCURVE",
"776 1327 OFFCURVE",
"436 1327 CURVE SMOOTH",
"340 1327 LINE",
"340 858 LINE",
"604 858 LINE",
"604 709 LINE",
"340 709 LINE",
"340 166 LINE"
);
}
);
width = 1233;
}
);
note = "\012\011Dcroat\012  ";
unicode = 0110;
},
{
glyphname = E;
layers = (
{
layerId = "A8E9A3C4-7003-4333-ABE9-545A429BAB07";
name = Regular;
paths = (
{
closed = 1;
nodes = (
"197 1493 LINE",
"197 0 LINE",
"1102 0 LINE",
"1102 170 LINE",
"399 170 LINE",
"399 711 LINE",
"1053 711 LINE",
"1053 881 LINE",
"399 881 LINE",
"399 1323 LINE",
"1083 1323 LINE",
"1083 1493 LINE"
);
}
);
width = 1233;
}
);
note = "\012\011E\012  ";
unicode = 0045;
},
{
glyphname = Eacute;
layers = (
{
layerId = "A8E9A3C4-7003-4333-ABE9-545A429BAB07";
name = Regular;
paths = (
{
closed = 1;
nodes = (
"197 1493 LINE",
"197 0 LINE",
"1102 0 LINE",
"1102 170 LINE",
"399 170 LINE",
"399 711 LINE",
"1053 711 LINE",
"1053 881 LINE",
"399 881 LINE",
"399 1323 LINE",
"1083 1323 LINE",
"1083 1493 LINE"
);
},
{
closed = 1;
nodes = (
"690 1899 LINE",
"493 1635 LINE",
"647 1635 LINE",
"876 1899 LINE"
);
}
);
width = 1233;
}
);
note = "\012\011Eacute\012  ";
unicode = 00C9;
},
{
glyphname = Ecaron;
layers = (
{
layerId = "A8E9A3C4-7003-4333-ABE9-545A429BAB07";
name = Regular;
paths = (
{
closed = 1;
nodes = (
"197 1493 LINE",
"1083 1493 LINE",
"1083 1323 LINE",
"399 1323 LINE",
"399 881 LINE",
"1053 881 LINE",
"1053 711 LINE",
"399 711 LINE",
"399 170 LINE",
"1102 170 LINE",
"1102 0 LINE",
"197 0 LINE"
);
},
{
closed = 1;
nodes = (
"558 1629 LINE",
"347 1895 LINE",
"487 1895 LINE",
"652 1717 LINE",
"818 1895 LINE",
"958 1895 LINE",
"747 1629 LINE"
);
}
);
width = 1233;
}
);
note = "\012\011Ecaron\012  ";
unicode = 011A;
},
{
glyphname = Ecircumflex;
layers = (
{
layerId = "A8E9A3C4-7003-4333-ABE9-545A429BAB07";
name = Regular;
paths = (
{
closed = 1;
nodes = (
"197 1493 LINE",
"197 0 LINE",
"1102 0 LINE",
"1102 170 LINE",
"399 170 LINE",
"399 711 LINE",
"1053 711 LINE",
"1053 881 LINE",
"399 881 LINE",
"399 1323 LINE",
"1083 1323 LINE",
"1083 1493 LINE"
);
},
{
closed = 1;
nodes = (
"540 1901 LINE",
"329 1635 LINE",
"469 1635 LINE",
"634 1813 LINE",
"800 1635 LINE",
"940 1635 LINE",
"729 1901 LINE"
);
}
);
width = 1233;
}
);
note = "\012\011Ecircumflex\012  ";
unicode = 00CA;
},
{
glyphname = Edieresis;
layers = (
{
layerId = "A8E9A3C4-7003-4333-ABE9-545A429BAB07";
name = Regular;
paths = (
{
closed = 1;
nodes = (
"197 1493 LINE",
"197 0 LINE",
"1102 0 LINE",
"1102 170 LINE",
"399 170 LINE",
"399 711 LINE",
"1053 711 LINE",
"1053 881 LINE",
"399 881 LINE",
"399 1323 LINE",
"1083 1323 LINE",
"1083 1493 LINE"
);
},
{
closed = 1;
nodes = (
"367 1870 LINE SMOOTH",
"348 1870 OFFCURVE",
"337 1859 OFFCURVE",
"337 1840 CURVE SMOOTH",
"337 1697 LINE SMOOTH",
"337 1678 OFFCURVE",
"348 1667 OFFCURVE",
"367 1667 CURVE SMOOTH",
"510 1667 LINE SMOOTH",
"529 1667 OFFCURVE",
"540 1678 OFFCURVE",
"540 1697 CURVE SMOOTH",
"540 1840 LINE SMOOTH",
"540 1859 OFFCURVE",
"529 1870 OFFCURVE",
"510 1870 CURVE SMOOTH"
);
},
{
closed = 1;
nodes = (
"759 1870 LINE SMOOTH",
"740 1870 OFFCURVE",
"729 1859 OFFCURVE",
"729 1840 CURVE SMOOTH",
"729 1697 LINE SMOOTH",
"729 1678 OFFCURVE",
"740 1667 OFFCURVE",
"759 1667 CURVE SMOOTH",
"901 1667 LINE SMOOTH",
"920 1667 OFFCURVE",
"931 1678 OFFCURVE",
"931 1697 CURVE SMOOTH",
"931 1840 LINE SMOOTH",
"931 1859 OFFCURVE",
"920 1870 OFFCURVE",
"901 1870 CURVE SMOOTH"
);
}
);
width = 1233;
}
);
note = "\012\011Edieresis\012  ";
unicode = 00CB;
},
{
glyphname = Edotaccent;
layers = (
{
layerId = "A8E9A3C4-7003-4333-ABE9-545A429BAB07";
name = Regular;
paths = (
{
closed = 1;
nodes = (
"531 1842 LINE SMOOTH",
"531 1861 OFFCURVE",
"542 1872 OFFCURVE",
"561 1872 CURVE SMOOTH",
"706 1872 LINE SMOOTH",
"725 1872 OFFCURVE",
"736 1861 OFFCURVE",
"736 1842 CURVE SMOOTH",
"736 1697 LINE SMOOTH",
"736 1678 OFFCURVE",
"725 1667 OFFCURVE",
"706 1667 CURVE SMOOTH",
"561 1667 LINE SMOOTH",
"542 1667 OFFCURVE",
"531 1678 OFFCURVE",
"531 1697 CURVE SMOOTH"
);
},
{
closed = 1;
nodes = (
"197 1493 LINE",
"1083 1493 LINE",
"1083 1323 LINE",
"399 1323 LINE",
"399 881 LINE",
"1053 881 LINE",
"1053 711 LINE",
"399 711 LINE",
"399 170 LINE",
"1102 170 LINE",
"1102 0 LINE",
"197 0 LINE"
);
}
);
width = 1233;
}
);
note = "\012\011Edotaccent\012  ";
unicode = 0116;
},
{
glyphname = Egrave;
layers = (
{
layerId = "A8E9A3C4-7003-4333-ABE9-545A429BAB07";
name = Regular;
paths = (
{
closed = 1;
nodes = (
"197 1493 LINE",
"197 0 LINE",
"1102 0 LINE",
"1102 170 LINE",
"399 170 LINE",
"399 711 LINE",
"1053 711 LINE",
"1053 881 LINE",
"399 881 LINE",
"399 1323 LINE",
"1083 1323 LINE",
"1083 1493 LINE"
);
},
{
closed = 1;
nodes = (
"579 1899 LINE",
"395 1899 LINE",
"622 1635 LINE",
"776 1635 LINE"
);
}
);
width = 1233;
}
);
note = "\012\011Egrave\012  ";
unicode = 00C8;
},
{
glyphname = Emacron;
layers = (
{
layerId = "A8E9A3C4-7003-4333-ABE9-545A429BAB07";
name = Regular;
paths = (
{
closed = 1;
nodes = (
"335 1840 LINE",
"933 1840 LINE",
"933 1692 LINE",
"335 1692 LINE"
);
},
{
closed = 1;
nodes = (
"197 1493 LINE",
"1083 1493 LINE",
"1083 1323 LINE",
"399 1323 LINE",
"399 881 LINE",
"1053 881 LINE",
"1053 711 LINE",
"399 711 LINE",
"399 170 LINE",
"1102 170 LINE",
"1102 0 LINE",
"197 0 LINE"
);
}
);
width = 1233;
}
);
note = "\012\011Emacron\012  ";
unicode = 0112;
},
{
glyphname = Eogonek;
lastChange = "2015-07-16 00:41:14 +0000";
layers = (
{
layerId = "A8E9A3C4-7003-4333-ABE9-545A429BAB07";
name = Regular;
paths = (
{
closed = 1;
nodes = (
"952 0 LINE",
"888 -87 OFFCURVE",
"864 -139 OFFCURVE",
"864 -184 CURVE SMOOTH",
"864 -240 OFFCURVE",
"902 -272 OFFCURVE",
"974 -272 CURVE SMOOTH",
"1015 -272 OFFCURVE",
"1057 -262 OFFCURVE",
"1098 -242 CURVE",
"1098 -375 LINE",
"1042 -389 OFFCURVE",
"1004 -395 OFFCURVE",
"955 -395 CURVE SMOOTH",
"807 -395 OFFCURVE",
"725 -339 OFFCURVE",
"725 -221 CURVE SMOOTH",
"725 -155 OFFCURVE",
"751 -94 OFFCURVE",
"833 0 CURVE"
);
},
{
closed = 1;
nodes = (
"197 1493 LINE",
"1083 1493 LINE",
"1083 1323 LINE",
"399 1323 LINE",
"399 881 LINE",
"1053 881 LINE",
"1053 711 LINE",
"399 711 LINE",
"399 170 LINE",
"1102 170 LINE",
"1102 0 LINE",
"197 0 LINE"
);
}
);
width = 1233;
}
);
note = "\012\011Eogonek\012  ";
unicode = 0118;
},
{
glyphname = F;
layers = (
{
layerId = "A8E9A3C4-7003-4333-ABE9-545A429BAB07";
name = Regular;
paths = (
{
closed = 1;
nodes = (
"233 1493 LINE",
"233 0 LINE",
"436 0 LINE",
"436 693 LINE",
"1049 693 LINE",
"1049 863 LINE",
"436 863 LINE",
"436 1323 LINE",
"1112 1323 LINE",
"1112 1493 LINE"
);
}
);
width = 1233;
}
);
note = "\012\011F\012  ";
unicode = 0046;
},
{
glyphname = G;
layers = (
{
layerId = "A8E9A3C4-7003-4333-ABE9-545A429BAB07";
name = Regular;
paths = (
{
closed = 1;
nodes = (
"1104 766 LINE",
"694 766 LINE",
"694 600 LINE",
"911 600 LINE",
"911 199 LINE",
"883 176 OFFCURVE",
"852 161 OFFCURVE",
"820 151 CURVE SMOOTH",
"786 140 OFFCURVE",
"746 135 OFFCURVE",
"703 135 CURVE SMOOTH",
"569 135 OFFCURVE",
"472 185 OFFCURVE",
"409 285 CURVE SMOOTH",
"346 384 OFFCURVE",
"313 534 OFFCURVE",
"313 743 CURVE SMOOTH",
"313 951 OFFCURVE",
"346 1102 OFFCURVE",
"412 1204 CURVE SMOOTH",
"479 1307 OFFCURVE",
"578 1356 OFFCURVE",
"706 1356 CURVE SMOOTH",
"766 1356 OFFCURVE",
"829 1345 OFFCURVE",
"887 1320 CURVE SMOOTH",
"938 1298 OFFCURVE",
"996 1260 OFFCURVE",
"1053 1206 CURVE",
"1053 1413 LINE",
"1001 1448 OFFCURVE",
"945 1476 OFFCURVE",
"887 1494 CURVE SMOOTH",
"832 1511 OFFCURVE",
"769 1520 OFFCURVE",
"703 1520 CURVE SMOOTH",
"518 1520 OFFCURVE",
"366 1449 OFFCURVE",
"262 1317 CURVE SMOOTH",
"158 1185 OFFCURVE",
"102 991 OFFCURVE",
"102 744 CURVE SMOOTH",
"102 504 OFFCURVE",
"155 310 OFFCURVE",
"259 175 CURVE SMOOTH",
"361 43 OFFCURVE",
"511 -29 OFFCURVE",
"700 -29 CURVE SMOOTH",
"781 -29 OFFCURVE",
"854 -16 OFFCURVE",
"922 10 CURVE SMOOTH",
"991 36 OFFCURVE",
"1050 73 OFFCURVE",
"1104 123 CURVE"
);
}
);
width = 1233;
}
);
note = "\012\011G\012  ";
unicode = 0047;
},
{
glyphname = Gbreve;
lastChange = "2015-07-16 00:42:07 +0000";
layers = (
{
layerId = "A8E9A3C4-7003-4333-ABE9-545A429BAB07";
name = Regular;
paths = (
{
closed = 1;
nodes = (
"1104 766 LINE",
"694 766 LINE",
"694 600 LINE",
"911 600 LINE",
"911 199 LINE",
"883 176 OFFCURVE",
"852 161 OFFCURVE",
"820 151 CURVE SMOOTH",
"788 141 OFFCURVE",
"750 135 OFFCURVE",
"703 135 CURVE SMOOTH",
"572 135 OFFCURVE",
"475 181 OFFCURVE",
"409 285 CURVE SMOOTH",
"346 384 OFFCURVE",
"313 534 OFFCURVE",
"313 743 CURVE SMOOTH",
"313 951 OFFCURVE",
"346 1102 OFFCURVE",
"412 1204 CURVE SMOOTH",
"479 1307 OFFCURVE",
"578 1356 OFFCURVE",
"706 1356 CURVE SMOOTH",
"766 1356 OFFCURVE",
"829 1345 OFFCURVE",
"887 1320 CURVE SMOOTH",
"938 1298 OFFCURVE",
"996 1260 OFFCURVE",
"1053 1206 CURVE",
"1053 1413 LINE",
"1005 1446 OFFCURVE",
"945 1476 OFFCURVE",
"887 1494 CURVE SMOOTH",
"829 1512 OFFCURVE",
"764 1520 OFFCURVE",
"702 1520 CURVE SMOOTH",
"513 1520 OFFCURVE",
"362 1445 OFFCURVE",
"261 1316 CURVE SMOOTH",
"155 1180 OFFCURVE",
"102 984 OFFCURVE",
"102 744 CURVE SMOOTH",
"102 504 OFFCURVE",
"155 310 OFFCURVE",
"259 175 CURVE SMOOTH",
"361 43 OFFCURVE",
"511 -29 OFFCURVE",
"700 -29 CURVE SMOOTH",
"781 -29 OFFCURVE",
"854 -16 OFFCURVE",
"922 10 CURVE SMOOTH",
"991 36 OFFCURVE",
"1050 73 OFFCURVE",
"1104 123 CURVE"
);
},
{
closed = 1;
nodes = (
"303 1901 LINE",
"310 1821 OFFCURVE",
"340 1761 OFFCURVE",
"393 1720 CURVE SMOOTH",
"446 1679 OFFCURVE",
"520 1659 OFFCURVE",
"615 1659 CURVE SMOOTH",
"712 1659 OFFCURVE",
"787 1680 OFFCURVE",
"840 1721 CURVE SMOOTH",
"893 1762 OFFCURVE",
"923 1822 OFFCURVE",
"930 1901 CURVE",
"811 1901 LINE",
"801 1864 OFFCURVE",
"781 1837 OFFCURVE",
"748 1818 CURVE SMOOTH",
"715 1799 OFFCURVE",
"670 1790 OFFCURVE",
"616 1790 CURVE SMOOTH",
"560 1790 OFFCURVE",
"517 1800 OFFCURVE",
"484 1819 CURVE SMOOTH",
"451 1838 OFFCURVE",
"430 1865 OFFCURVE",
"422 1901 CURVE"
);
}
);
width = 1233;
}
);
note = "\012\011Gbreve\012  ";
unicode = 011E;
},
{
glyphname = Gcaron;
lastChange = "2015-07-16 00:42:16 +0000";
layers = (
{
layerId = "A8E9A3C4-7003-4333-ABE9-545A429BAB07";
name = Regular;
paths = (
{
closed = 1;
nodes = (
"522 1635 LINE",
"311 1901 LINE",
"451 1901 LINE",
"616 1723 LINE",
"782 1901 LINE",
"922 1901 LINE",
"711 1635 LINE"
);
},
{
closed = 1;
nodes = (
"1104 123 LINE",
"996 23 OFFCURVE",
"860 -29 OFFCURVE",
"700 -29 CURVE SMOOTH",
"325 -29 OFFCURVE",
"102 256 OFFCURVE",
"102 743 CURVE SMOOTH",
"102 1233 OFFCURVE",
"328 1520 OFFCURVE",
"703 1520 CURVE SMOOTH",
"834 1520 OFFCURVE",
"946 1485 OFFCURVE",
"1053 1413 CURVE",
"1053 1206 LINE",
"945 1309 OFFCURVE",
"834 1356 OFFCURVE",
"707 1356 CURVE SMOOTH",
"442 1356 OFFCURVE",
"313 1153 OFFCURVE",
"313 739 CURVE SMOOTH",
"313 330 OFFCURVE",
"439 135 OFFCURVE",
"705 135 CURVE SMOOTH",
"790 135 OFFCURVE",
"856 155 OFFCURVE",
"911 199 CURVE",
"911 600 LINE",
"694 600 LINE",
"694 766 LINE",
"1104 766 LINE"
);
}
);
width = 1233;
}
);
note = "\012\011Gcaron\012  ";
unicode = 01E6;
},
{
glyphname = Gcommaaccent;
lastChange = "2015-07-16 00:42:28 +0000";
layers = (
{
layerId = "A8E9A3C4-7003-4333-ABE9-545A429BAB07";
name = Regular;
paths = (
{
closed = 1;
nodes = (
"630 -228 LINE",
"869 -228 LINE",
"682 -573 LINE",
"536 -573 LINE"
);
},
{
closed = 1;
nodes = (
"1104 123 LINE",
"996 23 OFFCURVE",
"860 -29 OFFCURVE",
"700 -29 CURVE SMOOTH",
"325 -29 OFFCURVE",
"102 256 OFFCURVE",
"102 743 CURVE SMOOTH",
"102 1233 OFFCURVE",
"328 1520 OFFCURVE",
"703 1520 CURVE SMOOTH",
"834 1520 OFFCURVE",
"946 1485 OFFCURVE",
"1053 1413 CURVE",
"1053 1206 LINE",
"945 1309 OFFCURVE",
"834 1356 OFFCURVE",
"707 1356 CURVE SMOOTH",
"442 1356 OFFCURVE",
"313 1153 OFFCURVE",
"313 739 CURVE SMOOTH",
"313 330 OFFCURVE",
"439 135 OFFCURVE",
"705 135 CURVE SMOOTH",
"790 135 OFFCURVE",
"856 155 OFFCURVE",
"911 199 CURVE",
"911 600 LINE",
"694 600 LINE",
"694 766 LINE",
"1104 766 LINE"
);
}
);
width = 1233;
}
);
note = "\012\011Gcommaaccent\012  ";
unicode = 0122;
},
{
glyphname = Gdotaccent;
lastChange = "2015-07-16 00:42:50 +0000";
layers = (
{
layerId = "A8E9A3C4-7003-4333-ABE9-545A429BAB07";
name = Regular;
paths = (
{
closed = 1;
nodes = (
"563 1842 LINE SMOOTH",
"563 1861 OFFCURVE",
"574 1872 OFFCURVE",
"593 1872 CURVE SMOOTH",
"738 1872 LINE SMOOTH",
"757 1872 OFFCURVE",
"768 1861 OFFCURVE",
"768 1842 CURVE SMOOTH",
"768 1697 LINE SMOOTH",
"768 1678 OFFCURVE",
"757 1667 OFFCURVE",
"738 1667 CURVE SMOOTH",
"593 1667 LINE SMOOTH",
"574 1667 OFFCURVE",
"563 1678 OFFCURVE",
"563 1697 CURVE SMOOTH"
);
},
{
closed = 1;
nodes = (
"1104 123 LINE",
"996 23 OFFCURVE",
"860 -29 OFFCURVE",
"700 -29 CURVE SMOOTH",
"325 -29 OFFCURVE",
"102 256 OFFCURVE",
"102 743 CURVE SMOOTH",
"102 1233 OFFCURVE",
"328 1520 OFFCURVE",
"703 1520 CURVE SMOOTH",
"834 1520 OFFCURVE",
"946 1485 OFFCURVE",
"1053 1413 CURVE",
"1053 1206 LINE",
"945 1309 OFFCURVE",
"834 1356 OFFCURVE",
"707 1356 CURVE SMOOTH",
"442 1356 OFFCURVE",
"313 1153 OFFCURVE",
"313 739 CURVE SMOOTH",
"313 330 OFFCURVE",
"439 135 OFFCURVE",
"705 135 CURVE SMOOTH",
"790 135 OFFCURVE",
"856 155 OFFCURVE",
"911 199 CURVE",
"911 600 LINE",
"694 600 LINE",
"694 766 LINE",
"1104 766 LINE"
);
}
);
width = 1233;
}
);
note = "\012\011Gdotaccent\012  ";
unicode = 0120;
},
{
glyphname = H;
layers = (
{
layerId = "A8E9A3C4-7003-4333-ABE9-545A429BAB07";
name = Regular;
paths = (
{
closed = 1;
nodes = (
"137 1493 LINE",
"137 0 LINE",
"340 0 LINE",
"340 711 LINE",
"893 711 LINE",
"893 0 LINE",
"1096 0 LINE",
"1096 1493 LINE",
"893 1493 LINE",
"893 881 LINE",
"340 881 LINE",
"340 1493 LINE"
);
}
);
width = 1233;
}
);
note = "\012\011H\012  ";
unicode = 0048;
},
{
glyphname = Hbar;
layers = (
{
layerId = "A8E9A3C4-7003-4333-ABE9-545A429BAB07";
name = Regular;
paths = (
{
closed = 1;
nodes = (
"137 1493 LINE",
"339 1493 LINE",
"339 1269 LINE",
"893 1269 LINE",
"893 1493 LINE",
"1095 1493 LINE",
"1095 1269 LINE",
"1230 1269 LINE",
"1230 1105 LINE",
"1095 1105 LINE",
"1095 0 LINE",
"893 0 LINE",
"893 711 LINE",
"339 711 LINE",
"339 0 LINE",
"137 0 LINE",
"137 1105 LINE",
"3 1105 LINE",
"3 1269 LINE",
"137 1269 LINE"
);
},
{
closed = 1;
nodes = (
"339 1105 LINE",
"339 881 LINE",
"893 881 LINE",
"893 1105 LINE"
);
}
);
width = 1233;
}
);
note = "\012\011Hbar\012  ";
unicode = 0126;
},
{
glyphname = I;
layers = (
{
layerId = "A8E9A3C4-7003-4333-ABE9-545A429BAB07";
name = Regular;
paths = (
{
closed = 1;
nodes = (
"201 1493 LINE",
"201 1323 LINE",
"514 1323 LINE",
"514 170 LINE",
"201 170 LINE",
"201 0 LINE",
"1030 0 LINE",
"1030 170 LINE",
"717 170 LINE",
"717 1323 LINE",
"1030 1323 LINE",
"1030 1493 LINE"
);
}
);
width = 1233;
}
);
note = "\012\011I\012  ";
unicode = 0049;
},
{
glyphname = Iacute;
layers = (
{
layerId = "A8E9A3C4-7003-4333-ABE9-545A429BAB07";
name = Regular;
paths = (
{
closed = 1;
nodes = (
"201 1493 LINE",
"201 1323 LINE",
"514 1323 LINE",
"514 170 LINE",
"201 170 LINE",
"201 0 LINE",
"1030 0 LINE",
"1030 170 LINE",
"717 170 LINE",
"717 1323 LINE",
"1030 1323 LINE",
"1030 1493 LINE"
);
},
{
closed = 1;
nodes = (
"672 1899 LINE",
"475 1635 LINE",
"629 1635 LINE",
"858 1899 LINE"
);
}
);
width = 1233;
}
);
note = "\012\011Iacute\012  ";
unicode = 00CD;
},
{
glyphname = Icircumflex;
layers = (
{
layerId = "A8E9A3C4-7003-4333-ABE9-545A429BAB07";
name = Regular;
paths = (
{
closed = 1;
nodes = (
"201 1493 LINE",
"201 1323 LINE",
"514 1323 LINE",
"514 170 LINE",
"201 170 LINE",
"201 0 LINE",
"1030 0 LINE",
"1030 170 LINE",
"717 170 LINE",
"717 1323 LINE",
"1030 1323 LINE",
"1030 1493 LINE"
);
},
{
closed = 1;
nodes = (
"522 1901 LINE",
"311 1635 LINE",
"451 1635 LINE",
"616 1813 LINE",
"782 1635 LINE",
"922 1635 LINE",
"711 1901 LINE"
);
}
);
width = 1233;
}
);
note = "\012\011Icircumflex\012  ";
unicode = 00CE;
},
{
glyphname = Idieresis;
layers = (
{
layerId = "A8E9A3C4-7003-4333-ABE9-545A429BAB07";
name = Regular;
paths = (
{
closed = 1;
nodes = (
"201 1493 LINE",
"201 1323 LINE",
"514 1323 LINE",
"514 170 LINE",
"201 170 LINE",
"201 0 LINE",
"1030 0 LINE",
"1030 170 LINE",
"717 170 LINE",
"717 1323 LINE",
"1030 1323 LINE",
"1030 1493 LINE"
);
},
{
closed = 1;
nodes = (
"349 1870 LINE SMOOTH",
"330 1870 OFFCURVE",
"319 1859 OFFCURVE",
"319 1840 CURVE SMOOTH",
"319 1697 LINE SMOOTH",
"319 1678 OFFCURVE",
"330 1667 OFFCURVE",
"349 1667 CURVE SMOOTH",
"492 1667 LINE SMOOTH",
"511 1667 OFFCURVE",
"522 1678 OFFCURVE",
"522 1697 CURVE SMOOTH",
"522 1840 LINE SMOOTH",
"522 1859 OFFCURVE",
"511 1870 OFFCURVE",
"492 1870 CURVE SMOOTH"
);
},
{
closed = 1;
nodes = (
"741 1870 LINE SMOOTH",
"722 1870 OFFCURVE",
"711 1859 OFFCURVE",
"711 1840 CURVE SMOOTH",
"711 1697 LINE SMOOTH",
"711 1678 OFFCURVE",
"722 1667 OFFCURVE",
"741 1667 CURVE SMOOTH",
"883 1667 LINE SMOOTH",
"902 1667 OFFCURVE",
"913 1678 OFFCURVE",
"913 1697 CURVE SMOOTH",
"913 1840 LINE SMOOTH",
"913 1859 OFFCURVE",
"902 1870 OFFCURVE",
"883 1870 CURVE SMOOTH"
);
}
);
width = 1233;
}
);
note = "\012\011Idieresis\012  ";
unicode = 00CF;
},
{
glyphname = Idotaccent;
layers = (
{
layerId = "A8E9A3C4-7003-4333-ABE9-545A429BAB07";
name = Regular;
paths = (
{
closed = 1;
nodes = (
"201 1493 LINE",
"201 1323 LINE",
"514 1323 LINE",
"514 170 LINE",
"201 170 LINE",
"201 0 LINE",
"1030 0 LINE",
"1030 170 LINE",
"717 170 LINE",
"717 1323 LINE",
"1030 1323 LINE",
"1030 1493 LINE"
);
},
{
closed = 1;
nodes = (
"544 1872 LINE SMOOTH",
"525 1872 OFFCURVE",
"514 1861 OFFCURVE",
"514 1842 CURVE SMOOTH",
"514 1697 LINE SMOOTH",
"514 1678 OFFCURVE",
"525 1667 OFFCURVE",
"544 1667 CURVE SMOOTH",
"689 1667 LINE SMOOTH",
"708 1667 OFFCURVE",
"719 1678 OFFCURVE",
"719 1697 CURVE SMOOTH",
"719 1842 LINE SMOOTH",
"719 1861 OFFCURVE",
"708 1872 OFFCURVE",
"689 1872 CURVE SMOOTH"
);
}
);
width = 1233;
}
);
note = "\012\011Idotaccent\012  ";
unicode = 0130;
},
{
glyphname = Igrave;
layers = (
{
layerId = "A8E9A3C4-7003-4333-ABE9-545A429BAB07";
name = Regular;
paths = (
{
closed = 1;
nodes = (
"201 1493 LINE",
"201 1323 LINE",
"514 1323 LINE",
"514 170 LINE",
"201 170 LINE",
"201 0 LINE",
"1030 0 LINE",
"1030 170 LINE",
"717 170 LINE",
"717 1323 LINE",
"1030 1323 LINE",
"1030 1493 LINE"
);
},
{
closed = 1;
nodes = (
"561 1899 LINE",
"377 1899 LINE",
"604 1635 LINE",
"758 1635 LINE"
);
}
);
width = 1233;
}
);
note = "\012\011Igrave\012  ";
unicode = 00CC;
},
{
glyphname = Imacron;
layers = (
{
layerId = "A8E9A3C4-7003-4333-ABE9-545A429BAB07";
name = Regular;
paths = (
{
closed = 1;
nodes = (
"317 1840 LINE",
"915 1840 LINE",
"915 1692 LINE",
"317 1692 LINE"
);
},
{
closed = 1;
nodes = (
"201 1493 LINE",
"1030 1493 LINE",
"1030 1323 LINE",
"717 1323 LINE",
"717 170 LINE",
"1030 170 LINE",
"1030 0 LINE",
"201 0 LINE",
"201 170 LINE",
"514 170 LINE",
"514 1323 LINE",
"201 1323 LINE"
);
}
);
width = 1233;
}
);
note = "\012\011Imacron\012  ";
unicode = 012A;
},
{
glyphname = Iogonek;
lastChange = "2015-07-16 00:44:48 +0000";
layers = (
{
layerId = "A8E9A3C4-7003-4333-ABE9-545A429BAB07";
name = Regular;
paths = (
{
closed = 1;
nodes = (
"201 1493 LINE",
"1030 1493 LINE",
"1030 1323 LINE",
"717 1323 LINE",
"717 170 LINE",
"1030 170 LINE",
"1030 0 LINE",
"201 0 LINE",
"201 170 LINE",
"514 170 LINE",
"514 1323 LINE",
"201 1323 LINE"
);
},
{
closed = 1;
nodes = (
"717 0 LINE",
"653 -87 OFFCURVE",
"629 -139 OFFCURVE",
"629 -184 CURVE SMOOTH",
"629 -240 OFFCURVE",
"667 -272 OFFCURVE",
"739 -272 CURVE SMOOTH",
"780 -272 OFFCURVE",
"822 -262 OFFCURVE",
"863 -242 CURVE",
"863 -375 LINE",
"807 -389 OFFCURVE",
"769 -395 OFFCURVE",
"720 -395 CURVE SMOOTH",
"572 -395 OFFCURVE",
"490 -339 OFFCURVE",
"490 -221 CURVE SMOOTH",
"490 -155 OFFCURVE",
"516 -94 OFFCURVE",
"598 0 CURVE"
);
}
);
width = 1233;
}
);
note = "\012\011Iogonek\012  ";
unicode = 012E;
},
{
glyphname = Itilde;
lastChange = "2015-07-16 00:44:56 +0000";
layers = (
{
layerId = "A8E9A3C4-7003-4333-ABE9-545A429BAB07";
name = Regular;
paths = (
{
closed = 1;
nodes = (
"555 1743 LINE SMOOTH",
"522 1762 OFFCURVE",
"504 1768 OFFCURVE",
"486 1768 CURVE SMOOTH",
"441 1768 OFFCURVE",
"412 1733 OFFCURVE",
"412 1673 CURVE SMOOTH",
"412 1667 LINE",
"287 1667 LINE",
"287 1802 OFFCURVE",
"358 1886 OFFCURVE",
"482 1886 CURVE SMOOTH",
"536 1886 OFFCURVE",
"570 1870 OFFCURVE",
"621 1843 CURVE SMOOTH",
"678 1813 LINE",
"707 1796 OFFCURVE",
"730 1788 OFFCURVE",
"750 1788 CURVE SMOOTH",
"791 1788 OFFCURVE",
"821 1825 OFFCURVE",
"821 1880 CURVE SMOOTH",
"821 1886 LINE",
"946 1886 LINE",
"942 1755 OFFCURVE",
"876 1667 OFFCURVE",
"753 1667 CURVE SMOOTH",
"710 1667 OFFCURVE",
"673 1678 OFFCURVE",
"612 1710 CURVE"
);
},
{
closed = 1;
nodes = (
"201 1493 LINE",
"1030 1493 LINE",
"1030 1323 LINE",
"717 1323 LINE",
"717 170 LINE",
"1030 170 LINE",
"1030 0 LINE",
"201 0 LINE",
"201 170 LINE",
"514 170 LINE",
"514 1323 LINE",
"201 1323 LINE"
);
}
);
width = 1233;
}
);
note = "\012\011Itilde\012  ";
unicode = 0128;
},
{
glyphname = J;
layers = (
{
layerId = "A8E9A3C4-7003-4333-ABE9-545A429BAB07";
name = Regular;
paths = (
{
closed = 1;
nodes = (
"109 61 LINE",
"176 31 OFFCURVE",
"243 8 OFFCURVE",
"307 -7 CURVE SMOOTH",
"370 -22 OFFCURVE",
"432 -29 OFFCURVE",
"502 -29 CURVE SMOOTH",
"664 -29 OFFCURVE",
"777 8 OFFCURVE",
"850 89 CURVE SMOOTH",
"923 170 OFFCURVE",
"956 296 OFFCURVE",
"956 487 CURVE SMOOTH",
"956 1493 LINE",
"373 1493 LINE",
"373 1323 LINE",
"754 1323 LINE",
"754 487 LINE SMOOTH",
"754 352 OFFCURVE",
"735 259 OFFCURVE",
"698 210 CURVE SMOOTH",
"659 158 OFFCURVE",
"588 135 OFFCURVE",
"499 135 CURVE SMOOTH",
"429 135 OFFCURVE",
"362 149 OFFCURVE",
"297 176 CURVE SMOOTH",
"232 203 OFFCURVE",
"170 243 OFFCURVE",
"109 297 CURVE"
);
}
);
width = 1233;
}
);
note = "\012\011J\012  ";
unicode = 004A;
},
{
glyphname = K;
layers = (
{
layerId = "A8E9A3C4-7003-4333-ABE9-545A429BAB07";
name = Regular;
paths = (
{
closed = 1;
nodes = (
"137 1493 LINE",
"137 0 LINE",
"340 0 LINE",
"340 584 LINE",
"494 748 LINE",
"981 0 LINE",
"1225 0 LINE",
"627 883 LINE",
"1208 1493 LINE",
"971 1493 LINE",
"340 829 LINE",
"340 1493 LINE"
);
}
);
width = 1233;
}
);
note = "\012\011K\012  ";
unicode = 004B;
},
{
glyphname = Kcommaaccent;
layers = (
{
layerId = "A8E9A3C4-7003-4333-ABE9-545A429BAB07";
name = Regular;
paths = (
{
closed = 1;
nodes = (
"608 -199 LINE",
"847 -199 LINE",
"660 -544 LINE",
"514 -544 LINE"
);
},
{
closed = 1;
nodes = (
"137 1493 LINE",
"340 1493 LINE",
"340 829 LINE",
"971 1493 LINE",
"1208 1493 LINE",
"627 883 LINE",
"1225 0 LINE",
"981 0 LINE",
"494 748 LINE",
"340 584 LINE",
"340 0 LINE",
"137 0 LINE"
);
}
);
width = 1233;
}
);
note = "\012\011Kcommaaccent\012  ";
unicode = 0136;
},
{
glyphname = L;
layers = (
{
layerId = "A8E9A3C4-7003-4333-ABE9-545A429BAB07";
name = Regular;
paths = (
{
closed = 1;
nodes = (
"215 1493 LINE",
"215 0 LINE",
"1139 0 LINE",
"1139 170 LINE",
"418 170 LINE",
"418 1493 LINE"
);
}
);
width = 1233;
}
);
note = "\012\011L\012  ";
unicode = 004C;
},
{
glyphname = Lacute;
layers = (
{
layerId = "A8E9A3C4-7003-4333-ABE9-545A429BAB07";
name = Regular;
paths = (
{
closed = 1;
nodes = (
"397 1900 LINE",
"583 1900 LINE",
"354 1636 LINE",
"200 1636 LINE"
);
},
{
closed = 1;
nodes = (
"215 1493 LINE",
"418 1493 LINE",
"418 170 LINE",
"1139 170 LINE",
"1139 0 LINE",
"215 0 LINE"
);
}
);
width = 1233;
}
);
note = "\012\011Lacute\012  ";
unicode = 0139;
},
{
glyphname = Lcaron;
layers = (
{
layerId = "A8E9A3C4-7003-4333-ABE9-545A429BAB07";
name = Regular;
paths = (
{
closed = 1;
nodes = (
"718 1491 LINE",
"916 1491 LINE",
"803 1115 LINE",
"649 1115 LINE"
);
},
{
closed = 1;
nodes = (
"215 1493 LINE",
"418 1493 LINE",
"418 170 LINE",
"1139 170 LINE",
"1139 0 LINE",
"215 0 LINE"
);
}
);
width = 1233;
}
);
note = "\012\011Lcaron\012  ";
unicode = 013D;
},
{
glyphname = Lcommaaccent;
layers = (
{
layerId = "A8E9A3C4-7003-4333-ABE9-545A429BAB07";
name = Regular;
paths = (
{
closed = 1;
nodes = (
"604 -199 LINE",
"843 -199 LINE",
"656 -544 LINE",
"510 -544 LINE"
);
},
{
closed = 1;
nodes = (
"215 1493 LINE",
"418 1493 LINE",
"418 170 LINE",
"1139 170 LINE",
"1139 0 LINE",
"215 0 LINE"
);
}
);
width = 1233;
}
);
note = "\012\011Lcommaaccent\012  ";
unicode = 013B;
},
{
glyphname = Lslash;
layers = (
{
layerId = "A8E9A3C4-7003-4333-ABE9-545A429BAB07";
name = Regular;
paths = (
{
closed = 1;
nodes = (
"215 1493 LINE",
"215 733 LINE",
"-10 575 LINE",
"70 465 LINE",
"215 571 LINE",
"215 0 LINE",
"1139 0 LINE",
"1139 170 LINE",
"418 170 LINE",
"418 711 LINE",
"811 985 LINE",
"733 1096 LINE",
"418 877 LINE",
"418 1493 LINE"
);
}
);
width = 1233;
}
);
note = "\012\011Lslash\012  ";
unicode = 0141;
},
{
glyphname = M;
layers = (
{
layerId = "A8E9A3C4-7003-4333-ABE9-545A429BAB07";
name = Regular;
paths = (
{
closed = 1;
nodes = (
"86 1493 LINE",
"86 0 LINE",
"272 0 LINE",
"272 1319 LINE",
"539 532 LINE",
"692 532 LINE",
"958 1319 LINE",
"958 0 LINE",
"1145 0 LINE",
"1145 1493 LINE",
"874 1493 LINE",
"614 733 LINE",
"356 1493 LINE"
);
}
);
width = 1233;
}
);
note = "\012\011M\012  ";
unicode = 004D;
},
{
glyphname = N;
layers = (
{
layerId = "A8E9A3C4-7003-4333-ABE9-545A429BAB07";
name = Regular;
paths = (
{
closed = 1;
nodes = (
"139 1493 LINE",
"139 0 LINE",
"334 0 LINE",
"334 1229 LINE",
"838 0 LINE",
"1094 0 LINE",
"1094 1493 LINE",
"899 1493 LINE",
"899 264 LINE",
"395 1493 LINE"
);
}
);
width = 1233;
}
);
note = "\012\011N\012  ";
unicode = 004E;
},
{
glyphname = Nacute;
layers = (
{
layerId = "A8E9A3C4-7003-4333-ABE9-545A429BAB07";
name = Regular;
paths = (
{
closed = 1;
nodes = (
"705 1899 LINE",
"891 1899 LINE",
"662 1635 LINE",
"508 1635 LINE"
);
},
{
closed = 1;
nodes = (
"139 1493 LINE",
"395 1493 LINE",
"899 264 LINE",
"899 1493 LINE",
"1094 1493 LINE",
"1094 0 LINE",
"838 0 LINE",
"334 1229 LINE",
"334 0 LINE",
"139 0 LINE"
);
}
);
width = 1233;
}
);
note = "\012\011Nacute\012  ";
unicode = 0143;
},
{
glyphname = Ncaron;
layers = (
{
layerId = "A8E9A3C4-7003-4333-ABE9-545A429BAB07";
name = Regular;
paths = (
{
closed = 1;
nodes = (
"139 1493 LINE",
"395 1493 LINE",
"899 264 LINE",
"899 1493 LINE",
"1094 1493 LINE",
"1094 0 LINE",
"838 0 LINE",
"334 1229 LINE",
"334 0 LINE",
"139 0 LINE"
);
},
{
closed = 1;
nodes = (
"564 1635 LINE",
"353 1901 LINE",
"493 1901 LINE",
"658 1723 LINE",
"824 1901 LINE",
"964 1901 LINE",
"753 1635 LINE"
);
}
);
width = 1233;
}
);
note = "\012\011Ncaron\012  ";
unicode = 0147;
},
{
glyphname = Ncommaaccent;
layers = (
{
layerId = "A8E9A3C4-7003-4333-ABE9-545A429BAB07";
name = Regular;
paths = (
{
closed = 1;
nodes = (
"544 -199 LINE",
"783 -199 LINE",
"596 -544 LINE",
"450 -544 LINE"
);
},
{
closed = 1;
nodes = (
"139 1493 LINE",
"395 1493 LINE",
"899 264 LINE",
"899 1493 LINE",
"1094 1493 LINE",
"1094 0 LINE",
"838 0 LINE",
"334 1229 LINE",
"334 0 LINE",
"139 0 LINE"
);
}
);
width = 1233;
}
);
note = "\012\011Ncommaaccent\012  ";
unicode = 0145;
},
{
glyphname = Eng;
layers = (
{
layerId = "A8E9A3C4-7003-4333-ABE9-545A429BAB07";
name = Regular;
paths = (
{
closed = 1;
nodes = (
"1085 -20 LINE SMOOTH",
"1085 -280 OFFCURVE",
"961 -426 OFFCURVE",
"741 -426 CURVE SMOOTH",
"536 -426 LINE",
"536 -270 LINE",
"703 -270 LINE SMOOTH",
"823 -270 OFFCURVE",
"882 -195 OFFCURVE",
"882 0 CURVE SMOOTH",
"882 1009 LINE SMOOTH",
"882 1249 OFFCURVE",
"807 1358 OFFCURVE",
"642 1358 CURVE SMOOTH",
"454 1358 OFFCURVE",
"349 1208 OFFCURVE",
"349 937 CURVE SMOOTH",
"349 0 LINE",
"147 0 LINE",
"147 1493 LINE",
"349 1493 LINE",
"349 1295 LINE",
"421 1443 OFFCURVE",
"545 1522 OFFCURVE",
"713 1522 CURVE SMOOTH",
"962 1522 OFFCURVE",
"1085 1348 OFFCURVE",
"1085 999 CURVE SMOOTH"
);
}
);
width = 1233;
}
);
note = "\012\011Eng\012  ";
unicode = 014A;
},
{
glyphname = Ntilde;
layers = (
{
layerId = "A8E9A3C4-7003-4333-ABE9-545A429BAB07";
name = Regular;
paths = (
{
closed = 1;
nodes = (
"139 1493 LINE",
"139 0 LINE",
"334 0 LINE",
"334 1229 LINE",
"838 0 LINE",
"1094 0 LINE",
"1094 1493 LINE",
"899 1493 LINE",
"899 264 LINE",
"395 1493 LINE"
);
},
{
closed = 1;
nodes = (
"594 1710 LINE",
"635 1689 OFFCURVE",
"657 1680 OFFCURVE",
"676 1675 CURVE SMOOTH",
"696 1670 OFFCURVE",
"717 1667 OFFCURVE",
"739 1667 CURVE SMOOTH",
"793 1667 OFFCURVE",
"839 1685 OFFCURVE",
"875 1727 CURVE SMOOTH",
"910 1768 OFFCURVE",
"927 1819 OFFCURVE",
"928 1886 CURVE",
"803 1886 LINE",
"803 1880 LINE SMOOTH",
"803 1853 OFFCURVE",
"796 1831 OFFCURVE",
"783 1814 CURVE SMOOTH",
"770 1797 OFFCURVE",
"753 1788 OFFCURVE",
"732 1788 CURVE SMOOTH",
"722 1788 OFFCURVE",
"711 1790 OFFCURVE",
"700 1794 CURVE SMOOTH",
"688 1798 OFFCURVE",
"675 1804 OFFCURVE",
"660 1813 CURVE",
"603 1843 LINE SMOOTH",
"566 1863 OFFCURVE",
"544 1873 OFFCURVE",
"524 1878 CURVE SMOOTH",
"503 1883 OFFCURVE",
"481 1886 OFFCURVE",
"458 1886 CURVE SMOOTH",
"400 1886 OFFCURVE",
"355 1866 OFFCURVE",
"321 1827 CURVE SMOOTH",
"284 1785 OFFCURVE",
"269 1731 OFFCURVE",
"269 1667 CURVE",
"394 1667 LINE",
"394 1673 LINE SMOOTH",
"394 1703 OFFCURVE",
"401 1726 OFFCURVE",
"414 1743 CURVE SMOOTH",
"429 1762 OFFCURVE",
"450 1768 OFFCURVE",
"466 1768 CURVE SMOOTH",
"477 1768 OFFCURVE",
"492 1765 OFFCURVE",
"497 1763 CURVE SMOOTH",
"504 1760 OFFCURVE",
"525 1750 OFFCURVE",
"537 1743 CURVE SMOOTH"
);
}
);
width = 1233;
}
);
note = "\012\011Ntilde\012  ";
unicode = 00D1;
},
{
glyphname = O;
layers = (
{
layerId = "A8E9A3C4-7003-4333-ABE9-545A429BAB07";
name = Regular;
paths = (
{
closed = 1;
nodes = (
"905 526 OFFCURVE",
"883 369 OFFCURVE",
"838 276 CURVE SMOOTH",
"793 182 OFFCURVE",
"719 135 OFFCURVE",
"616 135 CURVE SMOOTH",
"514 135 OFFCURVE",
"441 182 OFFCURVE",
"396 276 CURVE SMOOTH",
"351 370 OFFCURVE",
"328 526 OFFCURVE",
"328 745 CURVE SMOOTH",
"328 964 OFFCURVE",
"351 1121 OFFCURVE",
"396 1215 CURVE SMOOTH",
"441 1309 OFFCURVE",
"514 1356 OFFCURVE",
"616 1356 CURVE SMOOTH",
"719 1356 OFFCURVE",
"793 1309 OFFCURVE",
"838 1215 CURVE SMOOTH",
"883 1121 OFFCURVE",
"905 964 OFFCURVE",
"905 745 CURVE SMOOTH"
);
},
{
closed = 1;
nodes = (
"1116 1006 OFFCURVE",
"1075 1200 OFFCURVE",
"993 1328 CURVE SMOOTH",
"908 1460 OFFCURVE",
"779 1520 OFFCURVE",
"616 1520 CURVE SMOOTH",
"446 1520 OFFCURVE",
"323 1455 OFFCURVE",
"241 1328 CURVE SMOOTH",
"158 1200 OFFCURVE",
"117 1006 OFFCURVE",
"117 745 CURVE SMOOTH",
"117 484 OFFCURVE",
"158 289 OFFCURVE",
"240 162 CURVE SMOOTH",
"322 35 OFFCURVE",
"447 -29 OFFCURVE",
"616 -29 CURVE SMOOTH",
"779 -29 OFFCURVE",
"908 31 OFFCURVE",
"993 163 CURVE SMOOTH",
"1075 291 OFFCURVE",
"1116 485 OFFCURVE",
"1116 745 CURVE SMOOTH"
);
}
);
width = 1233;
}
);
note = "\012\011O\012  ";
unicode = 004F;
},
{
glyphname = Oacute;
layers = (
{
layerId = "A8E9A3C4-7003-4333-ABE9-545A429BAB07";
name = Regular;
paths = (
{
closed = 1;
nodes = (
"905 526 OFFCURVE",
"883 369 OFFCURVE",
"838 276 CURVE SMOOTH",
"793 182 OFFCURVE",
"719 135 OFFCURVE",
"616 135 CURVE SMOOTH",
"514 135 OFFCURVE",
"441 182 OFFCURVE",
"396 276 CURVE SMOOTH",
"351 370 OFFCURVE",
"328 526 OFFCURVE",
"328 745 CURVE SMOOTH",
"328 964 OFFCURVE",
"351 1121 OFFCURVE",
"396 1215 CURVE SMOOTH",
"441 1309 OFFCURVE",
"514 1356 OFFCURVE",
"616 1356 CURVE SMOOTH",
"719 1356 OFFCURVE",
"793 1309 OFFCURVE",
"838 1215 CURVE SMOOTH",
"883 1121 OFFCURVE",
"905 964 OFFCURVE",
"905 745 CURVE SMOOTH"
);
},
{
closed = 1;
nodes = (
"1116 1006 OFFCURVE",
"1075 1200 OFFCURVE",
"993 1328 CURVE SMOOTH",
"908 1460 OFFCURVE",
"779 1520 OFFCURVE",
"616 1520 CURVE SMOOTH",
"446 1520 OFFCURVE",
"323 1455 OFFCURVE",
"241 1328 CURVE SMOOTH",
"158 1200 OFFCURVE",
"117 1006 OFFCURVE",
"117 745 CURVE SMOOTH",
"117 484 OFFCURVE",
"158 289 OFFCURVE",
"240 162 CURVE SMOOTH",
"322 35 OFFCURVE",
"447 -29 OFFCURVE",
"616 -29 CURVE SMOOTH",
"779 -29 OFFCURVE",
"908 31 OFFCURVE",
"993 163 CURVE SMOOTH",
"1075 291 OFFCURVE",
"1116 485 OFFCURVE",
"1116 745 CURVE SMOOTH"
);
},
{
closed = 1;
nodes = (
"672 1899 LINE",
"475 1635 LINE",
"629 1635 LINE",
"858 1899 LINE"
);
}
);
width = 1233;
}
);
note = "\012\011Oacute\012  ";
unicode = 00D3;
},
{
glyphname = Ocircumflex;
layers = (
{
layerId = "A8E9A3C4-7003-4333-ABE9-545A429BAB07";
name = Regular;
paths = (
{
closed = 1;
nodes = (
"905 526 OFFCURVE",
"883 369 OFFCURVE",
"838 276 CURVE SMOOTH",
"793 182 OFFCURVE",
"719 135 OFFCURVE",
"616 135 CURVE SMOOTH",
"514 135 OFFCURVE",
"441 182 OFFCURVE",
"396 276 CURVE SMOOTH",
"351 370 OFFCURVE",
"328 526 OFFCURVE",
"328 745 CURVE SMOOTH",
"328 964 OFFCURVE",
"351 1121 OFFCURVE",
"396 1215 CURVE SMOOTH",
"441 1309 OFFCURVE",
"514 1356 OFFCURVE",
"616 1356 CURVE SMOOTH",
"719 1356 OFFCURVE",
"793 1309 OFFCURVE",
"838 1215 CURVE SMOOTH",
"883 1121 OFFCURVE",
"905 964 OFFCURVE",
"905 745 CURVE SMOOTH"
);
},
{
closed = 1;
nodes = (
"1116 1006 OFFCURVE",
"1075 1200 OFFCURVE",
"993 1328 CURVE SMOOTH",
"908 1460 OFFCURVE",
"779 1520 OFFCURVE",
"616 1520 CURVE SMOOTH",
"446 1520 OFFCURVE",
"323 1455 OFFCURVE",
"241 1328 CURVE SMOOTH",
"158 1200 OFFCURVE",
"117 1006 OFFCURVE",
"117 745 CURVE SMOOTH",
"117 484 OFFCURVE",
"158 289 OFFCURVE",
"240 162 CURVE SMOOTH",
"322 35 OFFCURVE",
"447 -29 OFFCURVE",
"616 -29 CURVE SMOOTH",
"779 -29 OFFCURVE",
"908 31 OFFCURVE",
"993 163 CURVE SMOOTH",
"1075 291 OFFCURVE",
"1116 485 OFFCURVE",
"1116 745 CURVE SMOOTH"
);
},
{
closed = 1;
nodes = (
"522 1901 LINE",
"311 1635 LINE",
"451 1635 LINE",
"616 1813 LINE",
"782 1635 LINE",
"922 1635 LINE",
"711 1901 LINE"
);
}
);
width = 1233;
}
);
note = "\012\011Ocircumflex\012  ";
unicode = 00D4;
},
{
glyphname = Odieresis;
layers = (
{
layerId = "A8E9A3C4-7003-4333-ABE9-545A429BAB07";
name = Regular;
paths = (
{
closed = 1;
nodes = (
"905 526 OFFCURVE",
"883 369 OFFCURVE",
"838 276 CURVE SMOOTH",
"793 182 OFFCURVE",
"719 135 OFFCURVE",
"616 135 CURVE SMOOTH",
"514 135 OFFCURVE",
"441 182 OFFCURVE",
"396 276 CURVE SMOOTH",
"351 370 OFFCURVE",
"328 526 OFFCURVE",
"328 745 CURVE SMOOTH",
"328 964 OFFCURVE",
"351 1121 OFFCURVE",
"396 1215 CURVE SMOOTH",
"441 1309 OFFCURVE",
"514 1356 OFFCURVE",
"616 1356 CURVE SMOOTH",
"719 1356 OFFCURVE",
"793 1309 OFFCURVE",
"838 1215 CURVE SMOOTH",
"883 1121 OFFCURVE",
"905 964 OFFCURVE",
"905 745 CURVE SMOOTH"
);
},
{
closed = 1;
nodes = (
"1116 1006 OFFCURVE",
"1075 1200 OFFCURVE",
"993 1328 CURVE SMOOTH",
"908 1460 OFFCURVE",
"779 1520 OFFCURVE",
"616 1520 CURVE SMOOTH",
"446 1520 OFFCURVE",
"323 1455 OFFCURVE",
"241 1328 CURVE SMOOTH",
"158 1200 OFFCURVE",
"117 1006 OFFCURVE",
"117 745 CURVE SMOOTH",
"117 484 OFFCURVE",
"158 289 OFFCURVE",
"240 162 CURVE SMOOTH",
"322 35 OFFCURVE",
"447 -29 OFFCURVE",
"616 -29 CURVE SMOOTH",
"779 -29 OFFCURVE",
"908 31 OFFCURVE",
"993 163 CURVE SMOOTH",
"1075 291 OFFCURVE",
"1116 485 OFFCURVE",
"1116 745 CURVE SMOOTH"
);
},
{
closed = 1;
nodes = (
"349 1870 LINE SMOOTH",
"330 1870 OFFCURVE",
"319 1859 OFFCURVE",
"319 1840 CURVE SMOOTH",
"319 1697 LINE SMOOTH",
"319 1678 OFFCURVE",
"330 1667 OFFCURVE",
"349 1667 CURVE SMOOTH",
"492 1667 LINE SMOOTH",
"511 1667 OFFCURVE",
"522 1678 OFFCURVE",
"522 1697 CURVE SMOOTH",
"522 1840 LINE SMOOTH",
"522 1859 OFFCURVE",
"511 1870 OFFCURVE",
"492 1870 CURVE SMOOTH"
);
},
{
closed = 1;
nodes = (
"741 1870 LINE SMOOTH",
"722 1870 OFFCURVE",
"711 1859 OFFCURVE",
"711 1840 CURVE SMOOTH",
"711 1697 LINE SMOOTH",
"711 1678 OFFCURVE",
"722 1667 OFFCURVE",
"741 1667 CURVE SMOOTH",
"883 1667 LINE SMOOTH",
"902 1667 OFFCURVE",
"913 1678 OFFCURVE",
"913 1697 CURVE SMOOTH",
"913 1840 LINE SMOOTH",
"913 1859 OFFCURVE",
"902 1870 OFFCURVE",
"883 1870 CURVE SMOOTH"
);
}
);
width = 1233;
}
);
note = "\012\011Odieresis\012  ";
unicode = 00D6;
},
{
glyphname = Ograve;
layers = (
{
layerId = "A8E9A3C4-7003-4333-ABE9-545A429BAB07";
name = Regular;
paths = (
{
closed = 1;
nodes = (
"905 526 OFFCURVE",
"883 369 OFFCURVE",
"838 276 CURVE SMOOTH",
"793 182 OFFCURVE",
"719 135 OFFCURVE",
"616 135 CURVE SMOOTH",
"514 135 OFFCURVE",
"441 182 OFFCURVE",
"396 276 CURVE SMOOTH",
"351 370 OFFCURVE",
"328 526 OFFCURVE",
"328 745 CURVE SMOOTH",
"328 964 OFFCURVE",
"351 1121 OFFCURVE",
"396 1215 CURVE SMOOTH",
"441 1309 OFFCURVE",
"514 1356 OFFCURVE",
"616 1356 CURVE SMOOTH",
"719 1356 OFFCURVE",
"793 1309 OFFCURVE",
"838 1215 CURVE SMOOTH",
"883 1121 OFFCURVE",
"905 964 OFFCURVE",
"905 745 CURVE SMOOTH"
);
},
{
closed = 1;
nodes = (
"1116 1006 OFFCURVE",
"1075 1200 OFFCURVE",
"993 1328 CURVE SMOOTH",
"908 1460 OFFCURVE",
"779 1520 OFFCURVE",
"616 1520 CURVE SMOOTH",
"446 1520 OFFCURVE",
"323 1455 OFFCURVE",
"241 1328 CURVE SMOOTH",
"158 1200 OFFCURVE",
"117 1006 OFFCURVE",
"117 745 CURVE SMOOTH",
"117 484 OFFCURVE",
"158 289 OFFCURVE",
"240 162 CURVE SMOOTH",
"322 35 OFFCURVE",
"447 -29 OFFCURVE",
"616 -29 CURVE SMOOTH",
"779 -29 OFFCURVE",
"908 31 OFFCURVE",
"993 163 CURVE SMOOTH",
"1075 291 OFFCURVE",
"1116 485 OFFCURVE",
"1116 745 CURVE SMOOTH"
);
},
{
closed = 1;
nodes = (
"561 1899 LINE",
"377 1899 LINE",
"604 1635 LINE",
"758 1635 LINE"
);
}
);
width = 1233;
}
);
note = "\012\011Ograve\012  ";
unicode = 00D2;
},
{
glyphname = Ohorn;
lastChange = "2015-07-16 00:52:31 +0000";
layers = (
{
layerId = "A8E9A3C4-7003-4333-ABE9-545A429BAB07";
name = Regular;
paths = (
{
closed = 1;
nodes = (
"796 1411 LINE",
"883 1347 OFFCURVE",
"935 1323 OFFCURVE",
"980 1323 CURVE SMOOTH",
"1036 1323 OFFCURVE",
"1068 1361 OFFCURVE",
"1068 1433 CURVE SMOOTH",
"1068 1474 OFFCURVE",
"1058 1516 OFFCURVE",
"1038 1557 CURVE",
"1171 1557 LINE",
"1185 1501 OFFCURVE",
"1191 1463 OFFCURVE",
"1191 1414 CURVE SMOOTH",
"1191 1266 OFFCURVE",
"1135 1184 OFFCURVE",
"1017 1184 CURVE SMOOTH",
"951 1184 OFFCURVE",
"890 1210 OFFCURVE",
"796 1292 CURVE"
);
},
{
closed = 1;
nodes = (
"794 964 OFFCURVE",
"772 1121 OFFCURVE",
"727 1215 CURVE SMOOTH",
"682 1309 OFFCURVE",
"608 1356 OFFCURVE",
"505 1356 CURVE SMOOTH",
"403 1356 OFFCURVE",
"330 1309 OFFCURVE",
"285 1215 CURVE SMOOTH",
"240 1121 OFFCURVE",
"217 964 OFFCURVE",
"217 745 CURVE SMOOTH",
"217 526 OFFCURVE",
"240 370 OFFCURVE",
"285 276 CURVE SMOOTH",
"330 182 OFFCURVE",
"403 135 OFFCURVE",
"505 135 CURVE SMOOTH",
"608 135 OFFCURVE",
"682 182 OFFCURVE",
"727 276 CURVE SMOOTH",
"772 369 OFFCURVE",
"794 526 OFFCURVE",
"794 745 CURVE SMOOTH"
);
},
{
closed = 1;
nodes = (
"1005 225 OFFCURVE",
"842 -29 OFFCURVE",
"504 -29 CURVE SMOOTH",
"169 -29 OFFCURVE",
"6 221 OFFCURVE",
"6 744 CURVE SMOOTH",
"6 1267 OFFCURVE",
"169 1520 OFFCURVE",
"505 1520 CURVE SMOOTH",
"842 1520 OFFCURVE",
"1005 1266 OFFCURVE",
"1005 745 CURVE SMOOTH"
);
}
);
width = 1233;
}
);
note = "\012\011Ohorn\012  ";
unicode = 01A0;
},
{
glyphname = Ohungarumlaut;
lastChange = "2015-07-16 00:53:10 +0000";
layers = (
{
layerId = "A8E9A3C4-7003-4333-ABE9-545A429BAB07";
name = Regular;
paths = (
{
closed = 1;
nodes = (
"860 1899 LINE",
"1046 1899 LINE",
"817 1635 LINE",
"663 1635 LINE"
);
},
{
closed = 1;
nodes = (
"541 1899 LINE",
"727 1899 LINE",
"498 1635 LINE",
"344 1635 LINE"
);
},
{
closed = 1;
nodes = (
"905 964 OFFCURVE",
"883 1121 OFFCURVE",
"838 1215 CURVE SMOOTH",
"793 1309 OFFCURVE",
"719 1356 OFFCURVE",
"616 1356 CURVE SMOOTH",
"514 1356 OFFCURVE",
"441 1309 OFFCURVE",
"396 1215 CURVE SMOOTH",
"351 1121 OFFCURVE",
"328 964 OFFCURVE",
"328 745 CURVE SMOOTH",
"328 526 OFFCURVE",
"351 370 OFFCURVE",
"396 276 CURVE SMOOTH",
"441 182 OFFCURVE",
"514 135 OFFCURVE",
"616 135 CURVE SMOOTH",
"719 135 OFFCURVE",
"793 182 OFFCURVE",
"838 276 CURVE SMOOTH",
"883 369 OFFCURVE",
"905 526 OFFCURVE",
"905 745 CURVE SMOOTH"
);
},
{
closed = 1;
nodes = (
"1116 225 OFFCURVE",
"953 -29 OFFCURVE",
"615 -29 CURVE SMOOTH",
"280 -29 OFFCURVE",
"117 221 OFFCURVE",
"117 744 CURVE SMOOTH",
"117 1267 OFFCURVE",
"280 1520 OFFCURVE",
"616 1520 CURVE SMOOTH",
"953 1520 OFFCURVE",
"1116 1266 OFFCURVE",
"1116 745 CURVE SMOOTH"
);
}
);
width = 1233;
}
);
note = "\012\011Ohungarumlaut\012  ";
unicode = 0150;
},
{
glyphname = Omacron;
lastChange = "2015-07-16 00:53:21 +0000";
layers = (
{
layerId = "A8E9A3C4-7003-4333-ABE9-545A429BAB07";
name = Regular;
paths = (
{
closed = 1;
nodes = (
"317 1840 LINE",
"915 1840 LINE",
"915 1692 LINE",
"317 1692 LINE"
);
},
{
closed = 1;
nodes = (
"905 964 OFFCURVE",
"883 1121 OFFCURVE",
"838 1215 CURVE SMOOTH",
"793 1309 OFFCURVE",
"719 1356 OFFCURVE",
"616 1356 CURVE SMOOTH",
"514 1356 OFFCURVE",
"441 1309 OFFCURVE",
"396 1215 CURVE SMOOTH",
"351 1121 OFFCURVE",
"328 964 OFFCURVE",
"328 745 CURVE SMOOTH",
"328 526 OFFCURVE",
"351 370 OFFCURVE",
"396 276 CURVE SMOOTH",
"441 182 OFFCURVE",
"514 135 OFFCURVE",
"616 135 CURVE SMOOTH",
"719 135 OFFCURVE",
"793 182 OFFCURVE",
"838 276 CURVE SMOOTH",
"883 369 OFFCURVE",
"905 526 OFFCURVE",
"905 745 CURVE SMOOTH"
);
},
{
closed = 1;
nodes = (
"1116 225 OFFCURVE",
"953 -29 OFFCURVE",
"615 -29 CURVE SMOOTH",
"280 -29 OFFCURVE",
"117 221 OFFCURVE",
"117 744 CURVE SMOOTH",
"117 1267 OFFCURVE",
"280 1520 OFFCURVE",
"616 1520 CURVE SMOOTH",
"953 1520 OFFCURVE",
"1116 1266 OFFCURVE",
"1116 745 CURVE SMOOTH"
);
}
);
width = 1233;
}
);
note = "\012\011Omacron\012  ";
unicode = 014C;
},
{
glyphname = Oslash;
lastChange = "2015-07-16 00:53:32 +0000";
layers = (
{
layerId = "A8E9A3C4-7003-4333-ABE9-545A429BAB07";
name = Regular;
paths = (
{
closed = 1;
nodes = (
"885 1036 LINE",
"893 1001 OFFCURVE",
"897 967 OFFCURVE",
"900 923 CURVE SMOOTH",
"903 878 OFFCURVE",
"905 817 OFFCURVE",
"905 748 CURVE SMOOTH",
"905 506 OFFCURVE",
"880 365 OFFCURVE",
"838 277 CURVE SMOOTH",
"795 187 OFFCURVE",
"726 135 OFFCURVE",
"617 135 CURVE SMOOTH",
"561 135 OFFCURVE",
"512 149 OFFCURVE",
"467 180 CURVE SMOOTH",
"423 210 OFFCURVE",
"391 251 OFFCURVE",
"371 303 CURVE"
);
},
{
closed = 1;
nodes = (
"338 471 LINE",
"331 518 OFFCURVE",
"332 538 OFFCURVE",
"331 556 CURVE SMOOTH",
"329 598 OFFCURVE",
"328 628 OFFCURVE",
"328 686 CURVE SMOOTH",
"328 951 OFFCURVE",
"349 1107 OFFCURVE",
"394 1208 CURVE SMOOTH",
"436 1303 OFFCURVE",
"504 1356 OFFCURVE",
"615 1356 CURVE SMOOTH",
"670 1356 OFFCURVE",
"721 1343 OFFCURVE",
"760 1314 CURVE SMOOTH",
"795 1288 OFFCURVE",
"825 1245 OFFCURVE",
"842 1190 CURVE"
);
},
{
closed = 1;
nodes = (
"1200 1485 LINE",
"1100 1559 LINE",
"961 1358 LINE",
"923 1411 OFFCURVE",
"875 1452 OFFCURVE",
"818 1479 CURVE SMOOTH",
"760 1506 OFFCURVE",
"694 1520 OFFCURVE",
"615 1520 CURVE SMOOTH",
"451 1520 OFFCURVE",
"326 1459 OFFCURVE",
"241 1328 CURVE SMOOTH",
"158 1200 OFFCURVE",
"117 1009 OFFCURVE",
"117 740 CURVE SMOOTH",
"117 629 OFFCURVE",
"124 540 OFFCURVE",
"136 456 CURVE SMOOTH",
"149 365 OFFCURVE",
"164 304 OFFCURVE",
"186 252 CURVE",
"8 0 LINE",
"111 -70 LINE",
"254 133 LINE",
"295 79 OFFCURVE",
"345 39 OFFCURVE",
"405 12 CURVE SMOOTH",
"469 -17 OFFCURVE",
"537 -29 OFFCURVE",
"612 -29 CURVE SMOOTH",
"789 -29 OFFCURVE",
"913 38 OFFCURVE",
"993 163 CURVE SMOOTH",
"1075 291 OFFCURVE",
"1116 486 OFFCURVE",
"1116 744 CURVE SMOOTH",
"1116 858 OFFCURVE",
"1108 960 OFFCURVE",
"1095 1037 CURVE SMOOTH",
"1081 1118 OFFCURVE",
"1060 1193 OFFCURVE",
"1032 1247 CURVE"
);
}
);
width = 1233;
}
);
note = "\012\011Oslash\012  ";
unicode = 00D8;
},
{
glyphname = Oslashacute;
lastChange = "2015-07-16 00:53:41 +0000";
layers = (
{
layerId = "A8E9A3C4-7003-4333-ABE9-545A429BAB07";
name = Regular;
paths = (
{
closed = 1;
nodes = (
"672 1899 LINE",
"858 1899 LINE",
"629 1635 LINE",
"475 1635 LINE"
);
},
{
closed = 1;
nodes = (
"371 303 LINE",
"413 196 OFFCURVE",
"504 135 OFFCURVE",
"619 135 CURVE SMOOTH",
"721 135 OFFCURVE",
"793 183 OFFCURVE",
"838 277 CURVE SMOOTH",
"880 365 OFFCURVE",
"905 503 OFFCURVE",
"905 755 CURVE SMOOTH",
"905 888 OFFCURVE",
"898 976 OFFCURVE",
"885 1036 CURVE"
);
},
{
closed = 1;
nodes = (
"842 1190 LINE",
"810 1294 OFFCURVE",
"736 1356 OFFCURVE",
"615 1356 CURVE SMOOTH",
"503 1356 OFFCURVE",
"437 1303 OFFCURVE",
"395 1210 CURVE SMOOTH",
"346 1101 OFFCURVE",
"328 929 OFFCURVE",
"328 682 CURVE SMOOTH",
"328 581 OFFCURVE",
"331 516 OFFCURVE",
"338 471 CURVE"
);
},
{
closed = 1;
nodes = (
"1032 1247 LINE",
"1087 1139 OFFCURVE",
"1116 963 OFFCURVE",
"1116 744 CURVE SMOOTH",
"1116 224 OFFCURVE",
"953 -29 OFFCURVE",
"613 -29 CURVE SMOOTH",
"456 -29 OFFCURVE",
"335 25 OFFCURVE",
"254 133 CURVE",
"111 -70 LINE",
"8 0 LINE",
"186 252 LINE",
"143 349 OFFCURVE",
"117 535 OFFCURVE",
"117 744 CURVE SMOOTH",
"117 1266 OFFCURVE",
"280 1520 OFFCURVE",
"614 1520 CURVE SMOOTH",
"770 1520 OFFCURVE",
"885 1465 OFFCURVE",
"961 1358 CURVE",
"1100 1559 LINE",
"1200 1485 LINE"
);
}
);
width = 1233;
}
);
note = "\012\011Oslashacute\012  ";
unicode = 01FE;
},
{
glyphname = Otilde;
layers = (
{
layerId = "A8E9A3C4-7003-4333-ABE9-545A429BAB07";
name = Regular;
paths = (
{
closed = 1;
nodes = (
"905 526 OFFCURVE",
"883 369 OFFCURVE",
"838 276 CURVE SMOOTH",
"793 182 OFFCURVE",
"719 135 OFFCURVE",
"616 135 CURVE SMOOTH",
"514 135 OFFCURVE",
"441 182 OFFCURVE",
"396 276 CURVE SMOOTH",
"351 370 OFFCURVE",
"328 526 OFFCURVE",
"328 745 CURVE SMOOTH",
"328 964 OFFCURVE",
"351 1121 OFFCURVE",
"396 1215 CURVE SMOOTH",
"441 1309 OFFCURVE",
"514 1356 OFFCURVE",
"616 1356 CURVE SMOOTH",
"719 1356 OFFCURVE",
"793 1309 OFFCURVE",
"838 1215 CURVE SMOOTH",
"883 1121 OFFCURVE",
"905 964 OFFCURVE",
"905 745 CURVE SMOOTH"
);
},
{
closed = 1;
nodes = (
"1116 1006 OFFCURVE",
"1075 1200 OFFCURVE",
"993 1328 CURVE SMOOTH",
"908 1460 OFFCURVE",
"779 1520 OFFCURVE",
"616 1520 CURVE SMOOTH",
"446 1520 OFFCURVE",
"323 1455 OFFCURVE",
"241 1328 CURVE SMOOTH",
"158 1200 OFFCURVE",
"117 1006 OFFCURVE",
"117 745 CURVE SMOOTH",
"117 484 OFFCURVE",
"158 289 OFFCURVE",
"240 162 CURVE SMOOTH",
"322 35 OFFCURVE",
"447 -29 OFFCURVE",
"616 -29 CURVE SMOOTH",
"779 -29 OFFCURVE",
"908 31 OFFCURVE",
"993 163 CURVE SMOOTH",
"1075 291 OFFCURVE",
"1116 485 OFFCURVE",
"1116 745 CURVE SMOOTH"
);
},
{
closed = 1;
nodes = (
"612 1710 LINE",
"653 1689 OFFCURVE",
"675 1680 OFFCURVE",
"694 1675 CURVE SMOOTH",
"714 1670 OFFCURVE",
"735 1667 OFFCURVE",
"757 1667 CURVE SMOOTH",
"811 1667 OFFCURVE",
"857 1685 OFFCURVE",
"893 1727 CURVE SMOOTH",
"928 1768 OFFCURVE",
"945 1819 OFFCURVE",
"946 1886 CURVE",
"821 1886 LINE",
"821 1880 LINE SMOOTH",
"821 1853 OFFCURVE",
"814 1831 OFFCURVE",
"801 1814 CURVE SMOOTH",
"788 1797 OFFCURVE",
"771 1788 OFFCURVE",
"750 1788 CURVE SMOOTH",
"740 1788 OFFCURVE",
"729 1790 OFFCURVE",
"718 1794 CURVE SMOOTH",
"706 1798 OFFCURVE",
"693 1804 OFFCURVE",
"678 1813 CURVE",
"621 1843 LINE SMOOTH",
"584 1863 OFFCURVE",
"562 1873 OFFCURVE",
"542 1878 CURVE SMOOTH",
"521 1883 OFFCURVE",
"499 1886 OFFCURVE",
"476 1886 CURVE SMOOTH",
"418 1886 OFFCURVE",
"373 1866 OFFCURVE",
"339 1827 CURVE SMOOTH",
"302 1785 OFFCURVE",
"287 1731 OFFCURVE",
"287 1667 CURVE",
"412 1667 LINE",
"412 1673 LINE SMOOTH",
"412 1703 OFFCURVE",
"419 1726 OFFCURVE",
"432 1743 CURVE SMOOTH",
"447 1762 OFFCURVE",
"468 1768 OFFCURVE",
"484 1768 CURVE SMOOTH",
"495 1768 OFFCURVE",
"510 1765 OFFCURVE",
"515 1763 CURVE SMOOTH",
"522 1760 OFFCURVE",
"543 1750 OFFCURVE",
"555 1743 CURVE SMOOTH"
);
}
);
width = 1233;
}
);
note = "\012\011Otilde\012  ";
unicode = 00D5;
},
{
glyphname = OE;
layers = (
{
layerId = "A8E9A3C4-7003-4333-ABE9-545A429BAB07";
name = Regular;
paths = (
{
closed = 1;
nodes = (
"1217 170 LINE",
"848 170 LINE",
"848 711 LINE",
"1176 711 LINE",
"1176 881 LINE",
"848 881 LINE",
"848 1323 LINE",
"1206 1323 LINE",
"1206 1493 LINE",
"612 1493 LINE SMOOTH",
"405 1493 OFFCURVE",
"275 1436 OFFCURVE",
"195 1327 CURVE SMOOTH",
"116 1219 OFFCURVE",
"72 1042 OFFCURVE",
"72 747 CURVE SMOOTH",
"72 470 OFFCURVE",
"111 282 OFFCURVE",
"196 167 CURVE SMOOTH",
"274 61 OFFCURVE",
"402 0 OFFCURVE",
"612 0 CURVE SMOOTH",
"1217 0 LINE"
);
},
{
closed = 1;
nodes = (
"651 1323 LINE",
"651 170 LINE",
"590 170 LINE SMOOTH",
"472 170 OFFCURVE",
"390 208 OFFCURVE",
"344 285 CURVE SMOOTH",
"298 362 OFFCURVE",
"274 505 OFFCURVE",
"274 745 CURVE SMOOTH",
"274 990 OFFCURVE",
"299 1132 OFFCURVE",
"344 1208 CURVE SMOOTH",
"390 1285 OFFCURVE",
"472 1323 OFFCURVE",
"590 1323 CURVE SMOOTH"
);
}
);
width = 1233;
}
);
note = "\012\011OE\012  ";
unicode = 0152;
},
{
glyphname = P;
layers = (
{
layerId = "A8E9A3C4-7003-4333-ABE9-545A429BAB07";
name = Regular;
paths = (
{
closed = 1;
nodes = (
"374 1327 LINE",
"608 1327 LINE SMOOTH",
"702 1327 OFFCURVE",
"775 1303 OFFCURVE",
"827 1254 CURVE SMOOTH",
"879 1205 OFFCURVE",
"905 1136 OFFCURVE",
"905 1047 CURVE SMOOTH",
"905 958 OFFCURVE",
"879 889 OFFCURVE",
"827 840 CURVE SMOOTH",
"779 795 OFFCURVE",
"707 766 OFFCURVE",
"608 766 CURVE SMOOTH",
"374 766 LINE"
);
},
{
closed = 1;
nodes = (
"172 1493 LINE",
"172 0 LINE",
"374 0 LINE",
"374 600 LINE",
"608 600 LINE SMOOTH",
"776 600 OFFCURVE",
"904 639 OFFCURVE",
"988 713 CURVE SMOOTH",
"1073 788 OFFCURVE",
"1116 900 OFFCURVE",
"1116 1046 CURVE SMOOTH",
"1116 1187 OFFCURVE",
"1076 1302 OFFCURVE",
"987 1380 CURVE SMOOTH",
"901 1455 OFFCURVE",
"775 1493 OFFCURVE",
"608 1493 CURVE SMOOTH"
);
}
);
width = 1233;
}
);
note = "\012\011P\012  ";
unicode = 0050;
},
{
glyphname = Thorn;
layers = (
{
layerId = "A8E9A3C4-7003-4333-ABE9-545A429BAB07";
name = Regular;
paths = (
{
closed = 1;
nodes = (
"403 1057 LINE",
"637 1057 LINE SMOOTH",
"747 1057 OFFCURVE",
"826 1032 OFFCURVE",
"874 992 CURVE SMOOTH",
"927 948 OFFCURVE",
"952 879 OFFCURVE",
"952 795 CURVE SMOOTH",
"952 708 OFFCURVE",
"926 642 OFFCURVE",
"874 598 CURVE SMOOTH",
"821 554 OFFCURVE",
"742 532 OFFCURVE",
"637 532 CURVE SMOOTH",
"403 532 LINE"
);
},
{
closed = 1;
nodes = (
"201 1493 LINE",
"201 0 LINE",
"403 0 LINE",
"403 367 LINE",
"657 367 LINE SMOOTH",
"830 367 OFFCURVE",
"958 402 OFFCURVE",
"1041 472 CURVE SMOOTH",
"1122 540 OFFCURVE",
"1165 645 OFFCURVE",
"1165 794 CURVE SMOOTH",
"1165 940 OFFCURVE",
"1124 1048 OFFCURVE",
"1041 1118 CURVE SMOOTH",
"958 1188 OFFCURVE",
"830 1223 OFFCURVE",
"657 1223 CURVE SMOOTH",
"403 1223 LINE",
"403 1493 LINE"
);
}
);
width = 1233;
}
);
note = "\012\011Thorn\012  ";
unicode = 00DE;
},
{
glyphname = Q;
layers = (
{
layerId = "A8E9A3C4-7003-4333-ABE9-545A429BAB07";
name = Regular;
paths = (
{
closed = 1;
nodes = (
"889 -270 LINE",
"1125 -270 LINE",
"840 20 LINE",
"934 68 OFFCURVE",
"1004 156 OFFCURVE",
"1048 272 CURVE SMOOTH",
"1093 391 OFFCURVE",
"1116 549 OFFCURVE",
"1116 745 CURVE SMOOTH",
"1116 1006 OFFCURVE",
"1075 1200 OFFCURVE",
"993 1328 CURVE SMOOTH",
"908 1460 OFFCURVE",
"779 1520 OFFCURVE",
"616 1520 CURVE SMOOTH",
"446 1520 OFFCURVE",
"323 1455 OFFCURVE",
"241 1328 CURVE SMOOTH",
"158 1200 OFFCURVE",
"117 1006 OFFCURVE",
"117 745 CURVE SMOOTH",
"117 490 OFFCURVE",
"156 295 OFFCURVE",
"241 163 CURVE SMOOTH",
"326 31 OFFCURVE",
"451 -29 OFFCURVE",
"617 -29 CURVE SMOOTH",
"619 -29 OFFCURVE",
"626 -29 OFFCURVE",
"635 -28 CURVE SMOOTH",
"644 -27 OFFCURVE",
"650 -27 OFFCURVE",
"655 -27 CURVE"
);
},
{
closed = 1;
nodes = (
"905 526 OFFCURVE",
"883 369 OFFCURVE",
"838 276 CURVE SMOOTH",
"793 182 OFFCURVE",
"719 135 OFFCURVE",
"616 135 CURVE SMOOTH",
"514 135 OFFCURVE",
"441 182 OFFCURVE",
"396 276 CURVE SMOOTH",
"351 370 OFFCURVE",
"328 526 OFFCURVE",
"328 745 CURVE SMOOTH",
"328 964 OFFCURVE",
"351 1121 OFFCURVE",
"396 1215 CURVE SMOOTH",
"441 1309 OFFCURVE",
"514 1356 OFFCURVE",
"616 1356 CURVE SMOOTH",
"719 1356 OFFCURVE",
"793 1309 OFFCURVE",
"838 1215 CURVE SMOOTH",
"883 1121 OFFCURVE",
"905 964 OFFCURVE",
"905 745 CURVE SMOOTH"
);
}
);
width = 1233;
}
);
note = "\012\011Q\012  ";
unicode = 0051;
},
{
glyphname = R;
layers = (
{
layerId = "A8E9A3C4-7003-4333-ABE9-545A429BAB07";
name = Regular;
paths = (
{
closed = 1;
nodes = (
"857 719 OFFCURVE",
"933 757 OFFCURVE",
"987 820 CURVE SMOOTH",
"1040 882 OFFCURVE",
"1067 960 OFFCURVE",
"1067 1065 CURVE SMOOTH",
"1067 1199 OFFCURVE",
"1023 1308 OFFCURVE",
"936 1382 CURVE SMOOTH",
"849 1456 OFFCURVE",
"723 1493 OFFCURVE",
"559 1493 CURVE SMOOTH",
"143 1493 LINE",
"143 0 LINE",
"346 0 LINE",
"346 631 LINE",
"539 631 LINE SMOOTH",
"601 631 OFFCURVE",
"659 617 OFFCURVE",
"700 585 CURVE SMOOTH",
"740 554 OFFCURVE",
"786 487 OFFCURVE",
"838 377 CURVE SMOOTH",
"1016 0 LINE",
"1233 0 LINE",
"1030 408 LINE SMOOTH",
"972 525 OFFCURVE",
"930 592 OFFCURVE",
"893 630 CURVE SMOOTH",
"860 664 OFFCURVE",
"813 692 OFFCURVE",
"760 705 CURVE"
);
},
{
closed = 1;
nodes = (
"346 1327 LINE",
"559 1327 LINE SMOOTH",
"658 1327 OFFCURVE",
"731 1302 OFFCURVE",
"779 1259 CURVE SMOOTH",
"830 1213 OFFCURVE",
"854 1145 OFFCURVE",
"854 1059 CURVE SMOOTH",
"854 973 OFFCURVE",
"830 905 OFFCURVE",
"783 862 CURVE SMOOTH",
"736 819 OFFCURVE",
"664 797 OFFCURVE",
"567 797 CURVE SMOOTH",
"346 797 LINE"
);
}
);
width = 1233;
}
);
note = "\012\011R\012  ";
unicode = 0052;
},
{
glyphname = Racute;
lastChange = "2015-07-16 00:57:33 +0000";
layers = (
{
layerId = "A8E9A3C4-7003-4333-ABE9-545A429BAB07";
name = Regular;
paths = (
{
closed = 1;
nodes = (
"597 1899 LINE",
"783 1899 LINE",
"554 1635 LINE",
"400 1635 LINE"
);
},
{
closed = 1;
nodes = (
"868 677 OFFCURVE",
"922 625 OFFCURVE",
"1030 408 CURVE SMOOTH",
"1233 0 LINE",
"1016 0 LINE",
"838 377 LINE SMOOTH",
"735 595 OFFCURVE",
"666 631 OFFCURVE",
"539 631 CURVE SMOOTH",
"346 631 LINE",
"346 0 LINE",
"143 0 LINE",
"143 1493 LINE",
"559 1493 LINE SMOOTH",
"887 1493 OFFCURVE",
"1067 1337 OFFCURVE",
"1067 1069 CURVE SMOOTH",
"1067 856 OFFCURVE",
"953 734 OFFCURVE",
"760 705 CURVE"
);
},
{
closed = 1;
nodes = (
"346 1327 LINE",
"346 797 LINE",
"567 797 LINE SMOOTH",
"757 797 OFFCURVE",
"854 882 OFFCURVE",
"854 1056 CURVE SMOOTH",
"854 1236 OFFCURVE",
"750 1327 OFFCURVE",
"559 1327 CURVE SMOOTH"
);
}
);
width = 1233;
}
);
note = "\012\011Racute\012  ";
unicode = 0154;
},
{
glyphname = Rcaron;
lastChange = "2015-07-16 00:57:43 +0000";
layers = (
{
layerId = "A8E9A3C4-7003-4333-ABE9-545A429BAB07";
name = Regular;
paths = (
{
closed = 1;
nodes = (
"868 677 OFFCURVE",
"922 625 OFFCURVE",
"1030 408 CURVE SMOOTH",
"1233 0 LINE",
"1016 0 LINE",
"838 377 LINE SMOOTH",
"735 595 OFFCURVE",
"666 631 OFFCURVE",
"539 631 CURVE SMOOTH",
"346 631 LINE",
"346 0 LINE",
"143 0 LINE",
"143 1493 LINE",
"559 1493 LINE SMOOTH",
"887 1493 OFFCURVE",
"1067 1337 OFFCURVE",
"1067 1069 CURVE SMOOTH",
"1067 856 OFFCURVE",
"953 734 OFFCURVE",
"760 705 CURVE"
);
},
{
closed = 1;
nodes = (
"346 1327 LINE",
"346 797 LINE",
"567 797 LINE SMOOTH",
"757 797 OFFCURVE",
"854 882 OFFCURVE",
"854 1056 CURVE SMOOTH",
"854 1236 OFFCURVE",
"750 1327 OFFCURVE",
"559 1327 CURVE SMOOTH"
);
},
{
closed = 1;
nodes = (
"462 1629 LINE",
"251 1895 LINE",
"391 1895 LINE",
"556 1717 LINE",
"722 1895 LINE",
"862 1895 LINE",
"651 1629 LINE"
);
}
);
width = 1233;
}
);
note = "\012\011Rcaron\012  ";
unicode = 0158;
},
{
glyphname = Rcommaaccent;
lastChange = "2015-07-16 00:57:53 +0000";
layers = (
{
layerId = "A8E9A3C4-7003-4333-ABE9-545A429BAB07";
name = Regular;
paths = (
{
closed = 1;
nodes = (
"616 -199 LINE",
"855 -199 LINE",
"668 -544 LINE",
"522 -544 LINE"
);
},
{
closed = 1;
nodes = (
"868 677 OFFCURVE",
"922 625 OFFCURVE",
"1030 408 CURVE SMOOTH",
"1233 0 LINE",
"1016 0 LINE",
"838 377 LINE SMOOTH",
"735 595 OFFCURVE",
"666 631 OFFCURVE",
"539 631 CURVE SMOOTH",
"346 631 LINE",
"346 0 LINE",
"143 0 LINE",
"143 1493 LINE",
"559 1493 LINE SMOOTH",
"887 1493 OFFCURVE",
"1067 1337 OFFCURVE",
"1067 1069 CURVE SMOOTH",
"1067 856 OFFCURVE",
"953 734 OFFCURVE",
"760 705 CURVE"
);
},
{
closed = 1;
nodes = (
"346 1327 LINE",
"346 797 LINE",
"567 797 LINE SMOOTH",
"757 797 OFFCURVE",
"854 882 OFFCURVE",
"854 1056 CURVE SMOOTH",
"854 1236 OFFCURVE",
"750 1327 OFFCURVE",
"559 1327 CURVE SMOOTH"
);
}
);
width = 1233;
}
);
note = "\012\011Rcommaaccent\012  ";
unicode = 0156;
},
{
glyphname = S;
lastChange = "2015-07-16 01:04:31 +0000";
layers = (
{
layerId = "A8E9A3C4-7003-4333-ABE9-545A429BAB07";
name = Regular;
paths = (
{
closed = 1;
nodes = (
"1012 1442 LINE",
"942 1468 OFFCURVE",
"875 1488 OFFCURVE",
"812 1501 CURVE SMOOTH",
"749 1514 OFFCURVE",
"688 1520 OFFCURVE",
"631 1520 CURVE SMOOTH",
"480 1520 OFFCURVE",
"359 1477 OFFCURVE",
"274 1401 CURVE SMOOTH",
"188 1324 OFFCURVE",
"139 1214 OFFCURVE",
"139 1079 CURVE SMOOTH",
"139 972 OFFCURVE",
"170 887 OFFCURVE",
"233 824 CURVE SMOOTH",
"299 757 OFFCURVE",
"401 713 OFFCURVE",
"535 682 CURVE SMOOTH",
"643 657 LINE SMOOTH",
"742 634 OFFCURVE",
"804 609 OFFCURVE",
"847 565 CURVE SMOOTH",
"885 526 OFFCURVE",
"905 474 OFFCURVE",
"905 400 CURVE SMOOTH",
"905 315 OFFCURVE",
"878 249 OFFCURVE",
"820 203 CURVE SMOOTH",
"763 158 OFFCURVE",
"681 135 OFFCURVE",
"581 135 CURVE SMOOTH",
"512 135 OFFCURVE",
"445 146 OFFCURVE",
"376 169 CURVE SMOOTH",
"307 192 OFFCURVE",
"235 227 OFFCURVE",
"158 276 CURVE",
"158 61 LINE",
"225 33 OFFCURVE",
"302 8 OFFCURVE",
"371 -7 CURVE SMOOTH",
"440 -22 OFFCURVE",
"514 -29 OFFCURVE",
"584 -29 CURVE SMOOTH",
"748 -29 OFFCURVE",
"880 9 OFFCURVE",
"967 83 CURVE SMOOTH",
"1048 152 OFFCURVE",
"1098 259 OFFCURVE",
"1098 410 CURVE SMOOTH",
"1098 531 OFFCURVE",
"1066 624 OFFCURVE",
"1001 694 CURVE SMOOTH",
"936 764 OFFCURVE",
"837 816 OFFCURVE",
"696 848 CURVE SMOOTH",
"590 872 LINE SMOOTH",
"491 895 OFFCURVE",
"428 921 OFFCURVE",
"387 960 CURVE SMOOTH",
"353 993 OFFCURVE",
"332 1037 OFFCURVE",
"332 1105 CURVE SMOOTH",
"332 1180 OFFCURVE",
"358 1245 OFFCURVE",
"414 1290 CURVE SMOOTH",
"470 1335 OFFCURVE",
"552 1356 OFFCURVE",
"642 1356 CURVE SMOOTH",
"704 1356 OFFCURVE",
"766 1346 OFFCURVE",
"828 1326 CURVE SMOOTH",
"888 1306 OFFCURVE",
"948 1278 OFFCURVE",
"1012 1237 CURVE"
);
}
);
width = 1233;
}
);
note = "\012\011S\012  ";
unicode = 0053;
},
{
glyphname = Sacute;
lastChange = "2015-07-16 01:03:42 +0000";
layers = (
{
layerId = "A8E9A3C4-7003-4333-ABE9-545A429BAB07";
name = Regular;
paths = (
{
closed = 1;
nodes = (
"697 1899 LINE",
"883 1899 LINE",
"654 1635 LINE",
"500 1635 LINE"
);
},
{
closed = 1;
nodes = (
"1012 1237 LINE",
"889 1316 OFFCURVE",
"766 1356 OFFCURVE",
"640 1356 CURVE SMOOTH",
"450 1356 OFFCURVE",
"332 1265 OFFCURVE",
"332 1101 CURVE SMOOTH",
"332 981 OFFCURVE",
"396 916 OFFCURVE",
"590 872 CURVE SMOOTH",
"696 848 LINE SMOOTH",
"978 784 OFFCURVE",
"1098 644 OFFCURVE",
"1098 411 CURVE SMOOTH",
"1098 124 OFFCURVE",
"917 -29 OFFCURVE",
"586 -29 CURVE SMOOTH",
"440 -29 OFFCURVE",
"301 1 OFFCURVE",
"158 61 CURVE",
"158 276 LINE",
"311 179 OFFCURVE",
"442 135 OFFCURVE",
"583 135 CURVE SMOOTH",
"786 135 OFFCURVE",
"905 226 OFFCURVE",
"905 405 CURVE SMOOTH",
"905 539 OFFCURVE",
"839 612 OFFCURVE",
"643 657 CURVE SMOOTH",
"535 682 LINE SMOOTH",
"254 747 OFFCURVE",
"139 869 OFFCURVE",
"139 1077 CURVE SMOOTH",
"139 1347 OFFCURVE",
"334 1520 OFFCURVE",
"631 1520 CURVE SMOOTH",
"746 1520 OFFCURVE",
"872 1494 OFFCURVE",
"1012 1442 CURVE"
);
}
);
width = 1233;
}
);
note = "\012\011Sacute\012  ";
unicode = 015A;
},
{
glyphname = Scaron;
lastChange = "2015-07-16 01:03:50 +0000";
layers = (
{
layerId = "A8E9A3C4-7003-4333-ABE9-545A429BAB07";
name = Regular;
paths = (
{
closed = 1;
nodes = (
"1012 1442 LINE",
"942 1468 OFFCURVE",
"875 1488 OFFCURVE",
"812 1501 CURVE SMOOTH",
"749 1514 OFFCURVE",
"688 1520 OFFCURVE",
"631 1520 CURVE SMOOTH",
"480 1520 OFFCURVE",
"359 1477 OFFCURVE",
"274 1401 CURVE SMOOTH",
"189 1325 OFFCURVE",
"139 1216 OFFCURVE",
"139 1079 CURVE SMOOTH",
"139 968 OFFCURVE",
"172 886 OFFCURVE",
"233 824 CURVE SMOOTH",
"299 757 OFFCURVE",
"401 713 OFFCURVE",
"535 682 CURVE SMOOTH",
"643 657 LINE SMOOTH",
"736 636 OFFCURVE",
"806 608 OFFCURVE",
"847 566 CURVE SMOOTH",
"883 529 OFFCURVE",
"905 475 OFFCURVE",
"905 399 CURVE SMOOTH",
"905 308 OFFCURVE",
"873 245 OFFCURVE",
"820 203 CURVE SMOOTH",
"763 158 OFFCURVE",
"681 135 OFFCURVE",
"582 135 CURVE SMOOTH",
"516 135 OFFCURVE",
"448 145 OFFCURVE",
"376 169 CURVE SMOOTH",
"307 192 OFFCURVE",
"235 227 OFFCURVE",
"158 276 CURVE",
"158 61 LINE",
"225 33 OFFCURVE",
"301 8 OFFCURVE",
"371 -7 CURVE SMOOTH",
"435 -21 OFFCURVE",
"509 -29 OFFCURVE",
"584 -29 CURVE SMOOTH",
"746 -29 OFFCURVE",
"879 8 OFFCURVE",
"967 83 CURVE SMOOTH",
"1048 152 OFFCURVE",
"1098 259 OFFCURVE",
"1098 410 CURVE SMOOTH",
"1098 531 OFFCURVE",
"1066 624 OFFCURVE",
"1001 694 CURVE SMOOTH",
"931 770 OFFCURVE",
"824 819 OFFCURVE",
"696 848 CURVE SMOOTH",
"590 872 LINE SMOOTH",
"489 895 OFFCURVE",
"426 923 OFFCURVE",
"387 960 CURVE SMOOTH",
"345 1000 OFFCURVE",
"332 1051 OFFCURVE",
"332 1105 CURVE SMOOTH",
"332 1185 OFFCURVE",
"361 1247 OFFCURVE",
"414 1290 CURVE SMOOTH",
"465 1331 OFFCURVE",
"543 1356 OFFCURVE",
"642 1356 CURVE SMOOTH",
"704 1356 OFFCURVE",
"766 1346 OFFCURVE",
"828 1326 CURVE SMOOTH",
"883 1308 OFFCURVE",
"946 1279 OFFCURVE",
"1012 1237 CURVE"
);
},
{
closed = 1;
nodes = (
"522 1635 LINE",
"711 1635 LINE",
"922 1901 LINE",
"782 1901 LINE",
"616 1723 LINE",
"451 1901 LINE",
"311 1901 LINE"
);
}
);
width = 1233;
}
);
note = "\012\011Scaron\012  ";
unicode = 0160;
},
{
glyphname = Scedilla;
lastChange = "2015-07-16 01:04:52 +0000";
layers = (
{
layerId = "A8E9A3C4-7003-4333-ABE9-545A429BAB07";
name = Regular;
paths = (
{
closed = 1;
nodes = (
"1012 1442 LINE",
"942 1468 OFFCURVE",
"875 1488 OFFCURVE",
"812 1501 CURVE SMOOTH",
"749 1514 OFFCURVE",
"688 1520 OFFCURVE",
"631 1520 CURVE SMOOTH",
"480 1520 OFFCURVE",
"359 1477 OFFCURVE",
"274 1401 CURVE SMOOTH",
"189 1325 OFFCURVE",
"139 1216 OFFCURVE",
"139 1079 CURVE SMOOTH",
"139 968 OFFCURVE",
"172 886 OFFCURVE",
"233 824 CURVE SMOOTH",
"299 757 OFFCURVE",
"401 713 OFFCURVE",
"535 682 CURVE SMOOTH",
"643 657 LINE SMOOTH",
"736 636 OFFCURVE",
"806 608 OFFCURVE",
"847 566 CURVE SMOOTH",
"883 529 OFFCURVE",
"905 475 OFFCURVE",
"905 399 CURVE SMOOTH",
"905 308 OFFCURVE",
"873 245 OFFCURVE",
"820 203 CURVE SMOOTH",
"763 158 OFFCURVE",
"681 135 OFFCURVE",
"582 135 CURVE SMOOTH",
"516 135 OFFCURVE",
"448 145 OFFCURVE",
"376 169 CURVE SMOOTH",
"307 192 OFFCURVE",
"235 227 OFFCURVE",
"158 276 CURVE",
"158 61 LINE",
"225 33 OFFCURVE",
"301 8 OFFCURVE",
"371 -7 CURVE SMOOTH",
"435 -21 OFFCURVE",
"509 -29 OFFCURVE",
"584 -29 CURVE SMOOTH",
"746 -29 OFFCURVE",
"879 8 OFFCURVE",
"967 83 CURVE SMOOTH",
"1048 152 OFFCURVE",
"1098 259 OFFCURVE",
"1098 410 CURVE SMOOTH",
"1098 531 OFFCURVE",
"1066 624 OFFCURVE",
"1001 694 CURVE SMOOTH",
"931 770 OFFCURVE",
"824 819 OFFCURVE",
"696 848 CURVE SMOOTH",
"590 872 LINE SMOOTH",
"489 895 OFFCURVE",
"426 923 OFFCURVE",
"387 960 CURVE SMOOTH",
"345 1000 OFFCURVE",
"332 1051 OFFCURVE",
"332 1105 CURVE SMOOTH",
"332 1185 OFFCURVE",
"361 1247 OFFCURVE",
"414 1290 CURVE SMOOTH",
"465 1331 OFFCURVE",
"543 1356 OFFCURVE",
"642 1356 CURVE SMOOTH",
"704 1356 OFFCURVE",
"766 1346 OFFCURVE",
"828 1326 CURVE SMOOTH",
"883 1308 OFFCURVE",
"946 1279 OFFCURVE",
"1012 1237 CURVE"
);
},
{
closed = 1;
nodes = (
"582 0 LINE",
"611 -41 OFFCURVE",
"633 -76 OFFCURVE",
"648 -105 CURVE SMOOTH",
"663 -134 OFFCURVE",
"670 -157 OFFCURVE",
"670 -180 CURVE SMOOTH",
"670 -208 OFFCURVE",
"660 -232 OFFCURVE",
"640 -248 CURVE SMOOTH",
"619 -265 OFFCURVE",
"588 -272 OFFCURVE",
"546 -272 CURVE SMOOTH",
"523 -272 OFFCURVE",
"492 -270 OFFCURVE",
"467 -265 CURVE SMOOTH",
"442 -260 OFFCURVE",
"418 -251 OFFCURVE",
"395 -240 CURVE",
"395 -371 LINE",
"424 -379 OFFCURVE",
"454 -385 OFFCURVE",
"483 -389 CURVE SMOOTH",
"512 -393 OFFCURVE",
"541 -395 OFFCURVE",
"570 -395 CURVE SMOOTH",
"652 -395 OFFCURVE",
"711 -379 OFFCURVE",
"749 -350 CURVE SMOOTH",
"789 -319 OFFCURVE",
"809 -272 OFFCURVE",
"809 -219 CURVE SMOOTH",
"809 -179 OFFCURVE",
"798 -145 OFFCURVE",
"783 -115 CURVE SMOOTH",
"767 -83 OFFCURVE",
"737 -41 OFFCURVE",
"700 0 CURVE"
);
}
);
width = 1233;
}
);
note = "\012\011Scedilla\012  ";
unicode = 015E;
},
{
glyphname = Scommaaccent;
lastChange = "2015-07-16 01:05:01 +0000";
layers = (
{
layerId = "A8E9A3C4-7003-4333-ABE9-545A429BAB07";
name = Regular;
paths = (
{
closed = 1;
nodes = (
"502 -197 LINE",
"741 -197 LINE",
"554 -542 LINE",
"408 -542 LINE"
);
},
{
closed = 1;
nodes = (
"1012 1237 LINE",
"889 1316 OFFCURVE",
"766 1356 OFFCURVE",
"640 1356 CURVE SMOOTH",
"450 1356 OFFCURVE",
"332 1265 OFFCURVE",
"332 1101 CURVE SMOOTH",
"332 981 OFFCURVE",
"396 916 OFFCURVE",
"590 872 CURVE SMOOTH",
"696 848 LINE SMOOTH",
"978 784 OFFCURVE",
"1098 644 OFFCURVE",
"1098 411 CURVE SMOOTH",
"1098 124 OFFCURVE",
"917 -29 OFFCURVE",
"586 -29 CURVE SMOOTH",
"440 -29 OFFCURVE",
"301 1 OFFCURVE",
"158 61 CURVE",
"158 276 LINE",
"311 179 OFFCURVE",
"442 135 OFFCURVE",
"583 135 CURVE SMOOTH",
"786 135 OFFCURVE",
"905 226 OFFCURVE",
"905 405 CURVE SMOOTH",
"905 539 OFFCURVE",
"839 612 OFFCURVE",
"643 657 CURVE SMOOTH",
"535 682 LINE SMOOTH",
"254 747 OFFCURVE",
"139 869 OFFCURVE",
"139 1077 CURVE SMOOTH",
"139 1347 OFFCURVE",
"334 1520 OFFCURVE",
"631 1520 CURVE SMOOTH",
"746 1520 OFFCURVE",
"872 1494 OFFCURVE",
"1012 1442 CURVE"
);
}
);
width = 1233;
}
);
note = "\012\011Scommaaccent\012  ";
unicode = 0218;
},
{
glyphname = T;
layers = (
{
layerId = "A8E9A3C4-7003-4333-ABE9-545A429BAB07";
name = Regular;
paths = (
{
closed = 1;
nodes = (
"47 1493 LINE",
"47 1323 LINE",
"516 1323 LINE",
"516 0 LINE",
"719 0 LINE",
"719 1323 LINE",
"1186 1323 LINE",
"1186 1493 LINE"
);
}
);
width = 1233;
}
);
note = "\012\011T\012  ";
unicode = 0054;
},
{
glyphname = Tbar;
layers = (
{
layerId = "A8E9A3C4-7003-4333-ABE9-545A429BAB07";
name = Regular;
paths = (
{
closed = 1;
nodes = (
"47 1493 LINE",
"1186 1493 LINE",
"1186 1323 LINE",
"719 1323 LINE",
"719 747 LINE",
"984 747 LINE",
"984 577 LINE",
"719 577 LINE",
"719 0 LINE",
"516 0 LINE",
"516 577 LINE",
"251 577 LINE",
"251 747 LINE",
"516 747 LINE",
"516 1323 LINE",
"47 1323 LINE"
);
}
);
width = 1233;
}
);
note = "\012\011Tbar\012  ";
unicode = 0166;
},
{
glyphname = Tcaron;
layers = (
{
layerId = "A8E9A3C4-7003-4333-ABE9-545A429BAB07";
name = Regular;
paths = (
{
closed = 1;
nodes = (
"47 1493 LINE",
"1186 1493 LINE",
"1186 1323 LINE",
"719 1323 LINE",
"719 0 LINE",
"516 0 LINE",
"516 1323 LINE",
"47 1323 LINE"
);
},
{
closed = 1;
nodes = (
"528 1635 LINE",
"317 1901 LINE",
"457 1901 LINE",
"622 1723 LINE",
"788 1901 LINE",
"928 1901 LINE",
"717 1635 LINE"
);
}
);
width = 1233;
}
);
note = "\012\011Tcaron\012  ";
unicode = 0164;
},
{
glyphname = Tcommaaccent;
lastChange = "2015-07-16 01:07:42 +0000";
layers = (
{
layerId = "A8E9A3C4-7003-4333-ABE9-545A429BAB07";
name = Regular;
paths = (
{
closed = 1;
nodes = (
"700 0 LINE",
"775 -84 OFFCURVE",
"809 -147 OFFCURVE",
"809 -220 CURVE SMOOTH",
"809 -332 OFFCURVE",
"728 -395 OFFCURVE",
"569 -395 CURVE SMOOTH",
"512 -395 OFFCURVE",
"454 -387 OFFCURVE",
"395 -371 CURVE",
"395 -240 LINE",
"436 -262 OFFCURVE",
"493 -272 OFFCURVE",
"542 -272 CURVE SMOOTH",
"630 -272 OFFCURVE",
"670 -239 OFFCURVE",
"670 -182 CURVE SMOOTH",
"670 -140 OFFCURVE",
"648 -91 OFFCURVE",
"582 0 CURVE"
);
},
{
closed = 1;
nodes = (
"47 1493 LINE",
"1186 1493 LINE",
"1186 1323 LINE",
"719 1323 LINE",
"719 0 LINE",
"516 0 LINE",
"516 1323 LINE",
"47 1323 LINE"
);
}
);
width = 1233;
}
);
note = "\012\011Tcommaaccent\012  ";
unicode = 0162;
},
{
glyphname = U;
lastChange = "2015-07-16 01:08:41 +0000";
layers = (
{
layerId = "A8E9A3C4-7003-4333-ABE9-545A429BAB07";
name = Regular;
paths = (
{
closed = 1;
nodes = (
"147 573 LINE SMOOTH",
"147 409 OFFCURVE",
"157 316 OFFCURVE",
"177 249 CURVE SMOOTH",
"199 173 OFFCURVE",
"232 125 OFFCURVE",
"273 88 CURVE SMOOTH",
"316 49 OFFCURVE",
"375 18 OFFCURVE",
"427 0 CURVE SMOOTH",
"483 -19 OFFCURVE",
"544 -29 OFFCURVE",
"616 -29 CURVE SMOOTH",
"694 -29 OFFCURVE",
"757 -17 OFFCURVE",
"806 0 CURVE SMOOTH",
"858 18 OFFCURVE",
"915 48 OFFCURVE",
"959 88 CURVE SMOOTH",
"1004 129 OFFCURVE",
"1038 183 OFFCURVE",
"1057 249 CURVE SMOOTH",
"1074 308 OFFCURVE",
"1085 398 OFFCURVE",
"1085 573 CURVE SMOOTH",
"1085 1493 LINE",
"883 1493 LINE",
"883 573 LINE",
"883 479 LINE SMOOTH",
"883 407 OFFCURVE",
"881 356 OFFCURVE",
"877 325 CURVE SMOOTH",
"873 293 OFFCURVE",
"867 274 OFFCURVE",
"856 254 CURVE SMOOTH",
"836 217 OFFCURVE",
"803 185 OFFCURVE",
"763 165 CURVE SMOOTH",
"723 145 OFFCURVE",
"674 135 OFFCURVE",
"616 135 CURVE SMOOTH",
"559 135 OFFCURVE",
"510 145 OFFCURVE",
"470 165 CURVE SMOOTH",
"429 185 OFFCURVE",
"398 215 OFFCURVE",
"377 254 CURVE",
"367 271 OFFCURVE",
"360 295 OFFCURVE",
"356 326 CURVE SMOOTH",
"352 357 OFFCURVE",
"350 408 OFFCURVE",
"350 481 CURVE SMOOTH",
"350 1493 LINE",
"147 1493 LINE"
);
}
);
width = 1233;
}
);
note = "\012\011U\012  ";
unicode = 0055;
},
{
glyphname = Uacute;
lastChange = "2015-07-16 01:08:48 +0000";
layers = (
{
layerId = "A8E9A3C4-7003-4333-ABE9-545A429BAB07";
name = Regular;
paths = (
{
closed = 1;
nodes = (
"147 573 LINE SMOOTH",
"147 409 OFFCURVE",
"157 316 OFFCURVE",
"177 249 CURVE SMOOTH",
"199 173 OFFCURVE",
"232 125 OFFCURVE",
"273 88 CURVE SMOOTH",
"316 49 OFFCURVE",
"375 18 OFFCURVE",
"427 0 CURVE SMOOTH",
"483 -19 OFFCURVE",
"544 -29 OFFCURVE",
"616 -29 CURVE SMOOTH",
"694 -29 OFFCURVE",
"757 -17 OFFCURVE",
"806 0 CURVE SMOOTH",
"858 18 OFFCURVE",
"915 48 OFFCURVE",
"959 88 CURVE SMOOTH",
"1004 129 OFFCURVE",
"1038 183 OFFCURVE",
"1057 249 CURVE SMOOTH",
"1074 308 OFFCURVE",
"1085 398 OFFCURVE",
"1085 573 CURVE SMOOTH",
"1085 1493 LINE",
"883 1493 LINE",
"883 573 LINE",
"883 479 LINE SMOOTH",
"883 407 OFFCURVE",
"881 356 OFFCURVE",
"877 325 CURVE SMOOTH",
"873 293 OFFCURVE",
"867 274 OFFCURVE",
"856 254 CURVE SMOOTH",
"836 217 OFFCURVE",
"803 185 OFFCURVE",
"763 165 CURVE SMOOTH",
"723 145 OFFCURVE",
"674 135 OFFCURVE",
"616 135 CURVE SMOOTH",
"559 135 OFFCURVE",
"510 145 OFFCURVE",
"470 165 CURVE SMOOTH",
"429 185 OFFCURVE",
"398 215 OFFCURVE",
"377 254 CURVE",
"367 271 OFFCURVE",
"360 295 OFFCURVE",
"356 326 CURVE SMOOTH",
"352 357 OFFCURVE",
"350 408 OFFCURVE",
"350 481 CURVE SMOOTH",
"350 1493 LINE",
"147 1493 LINE"
);
},
{
closed = 1;
nodes = (
"672 1899 LINE",
"475 1635 LINE",
"629 1635 LINE",
"858 1899 LINE"
);
}
);
width = 1233;
}
);
note = "\012\011Uacute\012  ";
unicode = 00DA;
},
{
glyphname = Ucircumflex;
lastChange = "2015-07-16 01:08:57 +0000";
layers = (
{
layerId = "A8E9A3C4-7003-4333-ABE9-545A429BAB07";
name = Regular;
paths = (
{
closed = 1;
nodes = (
"147 573 LINE SMOOTH",
"147 409 OFFCURVE",
"157 316 OFFCURVE",
"177 249 CURVE SMOOTH",
"199 173 OFFCURVE",
"232 125 OFFCURVE",
"273 88 CURVE SMOOTH",
"316 49 OFFCURVE",
"375 18 OFFCURVE",
"427 0 CURVE SMOOTH",
"483 -19 OFFCURVE",
"544 -29 OFFCURVE",
"616 -29 CURVE SMOOTH",
"694 -29 OFFCURVE",
"757 -17 OFFCURVE",
"806 0 CURVE SMOOTH",
"858 18 OFFCURVE",
"915 48 OFFCURVE",
"959 88 CURVE SMOOTH",
"1004 129 OFFCURVE",
"1038 183 OFFCURVE",
"1057 249 CURVE SMOOTH",
"1074 308 OFFCURVE",
"1085 398 OFFCURVE",
"1085 573 CURVE SMOOTH",
"1085 1493 LINE",
"883 1493 LINE",
"883 573 LINE",
"883 479 LINE SMOOTH",
"883 407 OFFCURVE",
"881 356 OFFCURVE",
"877 325 CURVE SMOOTH",
"873 293 OFFCURVE",
"867 274 OFFCURVE",
"856 254 CURVE SMOOTH",
"836 217 OFFCURVE",
"803 185 OFFCURVE",
"763 165 CURVE SMOOTH",
"723 145 OFFCURVE",
"674 135 OFFCURVE",
"616 135 CURVE SMOOTH",
"559 135 OFFCURVE",
"510 145 OFFCURVE",
"470 165 CURVE SMOOTH",
"429 185 OFFCURVE",
"398 215 OFFCURVE",
"377 254 CURVE",
"367 271 OFFCURVE",
"360 295 OFFCURVE",
"356 326 CURVE SMOOTH",
"352 357 OFFCURVE",
"350 408 OFFCURVE",
"350 481 CURVE SMOOTH",
"350 1493 LINE",
"147 1493 LINE"
);
},
{
closed = 1;
nodes = (
"522 1901 LINE",
"311 1635 LINE",
"451 1635 LINE",
"616 1813 LINE",
"782 1635 LINE",
"922 1635 LINE",
"711 1901 LINE"
);
}
);
width = 1233;
}
);
note = "\012\011Ucircumflex\012  ";
unicode = 00DB;
},
{
glyphname = Udieresis;
lastChange = "2015-07-16 01:09:04 +0000";
layers = (
{
layerId = "A8E9A3C4-7003-4333-ABE9-545A429BAB07";
name = Regular;
paths = (
{
closed = 1;
nodes = (
"147 573 LINE SMOOTH",
"147 409 OFFCURVE",
"157 316 OFFCURVE",
"177 249 CURVE SMOOTH",
"199 173 OFFCURVE",
"232 125 OFFCURVE",
"273 88 CURVE SMOOTH",
"316 49 OFFCURVE",
"375 18 OFFCURVE",
"427 0 CURVE SMOOTH",
"483 -19 OFFCURVE",
"544 -29 OFFCURVE",
"616 -29 CURVE SMOOTH",
"694 -29 OFFCURVE",
"757 -17 OFFCURVE",
"806 0 CURVE SMOOTH",
"858 18 OFFCURVE",
"915 48 OFFCURVE",
"959 88 CURVE SMOOTH",
"1004 129 OFFCURVE",
"1038 183 OFFCURVE",
"1057 249 CURVE SMOOTH",
"1074 308 OFFCURVE",
"1085 398 OFFCURVE",
"1085 573 CURVE SMOOTH",
"1085 1493 LINE",
"883 1493 LINE",
"883 479 LINE SMOOTH",
"883 407 OFFCURVE",
"881 356 OFFCURVE",
"877 325 CURVE SMOOTH",
"873 293 OFFCURVE",
"867 274 OFFCURVE",
"856 254 CURVE SMOOTH",
"836 217 OFFCURVE",
"803 185 OFFCURVE",
"763 165 CURVE SMOOTH",
"723 145 OFFCURVE",
"674 135 OFFCURVE",
"616 135 CURVE SMOOTH",
"559 135 OFFCURVE",
"510 145 OFFCURVE",
"470 165 CURVE SMOOTH",
"429 185 OFFCURVE",
"398 215 OFFCURVE",
"377 254 CURVE",
"367 271 OFFCURVE",
"360 295 OFFCURVE",
"356 326 CURVE SMOOTH",
"352 357 OFFCURVE",
"350 408 OFFCURVE",
"350 481 CURVE SMOOTH",
"350 1493 LINE",
"147 1493 LINE"
);
},
{
closed = 1;
nodes = (
"349 1870 LINE SMOOTH",
"330 1870 OFFCURVE",
"319 1859 OFFCURVE",
"319 1840 CURVE SMOOTH",
"319 1697 LINE SMOOTH",
"319 1678 OFFCURVE",
"330 1667 OFFCURVE",
"349 1667 CURVE SMOOTH",
"492 1667 LINE SMOOTH",
"511 1667 OFFCURVE",
"522 1678 OFFCURVE",
"522 1697 CURVE SMOOTH",
"522 1840 LINE SMOOTH",
"522 1859 OFFCURVE",
"511 1870 OFFCURVE",
"492 1870 CURVE SMOOTH"
);
},
{
closed = 1;
nodes = (
"741 1870 LINE SMOOTH",
"722 1870 OFFCURVE",
"711 1859 OFFCURVE",
"711 1840 CURVE SMOOTH",
"711 1697 LINE SMOOTH",
"711 1678 OFFCURVE",
"722 1667 OFFCURVE",
"741 1667 CURVE SMOOTH",
"883 1667 LINE SMOOTH",
"902 1667 OFFCURVE",
"913 1678 OFFCURVE",
"913 1697 CURVE SMOOTH",
"913 1840 LINE SMOOTH",
"913 1859 OFFCURVE",
"902 1870 OFFCURVE",
"883 1870 CURVE SMOOTH"
);
}
);
width = 1233;
}
);
note = "\012\011Udieresis\012  ";
unicode = 00DC;
},
{
glyphname = Ugrave;
lastChange = "2015-07-16 01:09:12 +0000";
layers = (
{
layerId = "A8E9A3C4-7003-4333-ABE9-545A429BAB07";
name = Regular;
paths = (
{
closed = 1;
nodes = (
"147 573 LINE SMOOTH",
"147 409 OFFCURVE",
"157 316 OFFCURVE",
"177 249 CURVE SMOOTH",
"199 173 OFFCURVE",
"232 125 OFFCURVE",
"273 88 CURVE SMOOTH",
"316 49 OFFCURVE",
"375 18 OFFCURVE",
"427 0 CURVE SMOOTH",
"483 -19 OFFCURVE",
"544 -29 OFFCURVE",
"616 -29 CURVE SMOOTH",
"694 -29 OFFCURVE",
"757 -17 OFFCURVE",
"806 0 CURVE SMOOTH",
"858 18 OFFCURVE",
"915 48 OFFCURVE",
"959 88 CURVE SMOOTH",
"1004 129 OFFCURVE",
"1038 183 OFFCURVE",
"1057 249 CURVE SMOOTH",
"1074 308 OFFCURVE",
"1085 398 OFFCURVE",
"1085 573 CURVE SMOOTH",
"1085 1493 LINE",
"883 1493 LINE",
"883 573 LINE",
"883 479 LINE SMOOTH",
"883 407 OFFCURVE",
"881 356 OFFCURVE",
"877 325 CURVE SMOOTH",
"873 293 OFFCURVE",
"867 274 OFFCURVE",
"856 254 CURVE SMOOTH",
"836 217 OFFCURVE",
"803 185 OFFCURVE",
"763 165 CURVE SMOOTH",
"723 145 OFFCURVE",
"674 135 OFFCURVE",
"616 135 CURVE SMOOTH",
"559 135 OFFCURVE",
"510 145 OFFCURVE",
"470 165 CURVE SMOOTH",
"429 185 OFFCURVE",
"398 215 OFFCURVE",
"377 254 CURVE",
"367 271 OFFCURVE",
"360 295 OFFCURVE",
"356 326 CURVE SMOOTH",
"352 357 OFFCURVE",
"350 408 OFFCURVE",
"350 481 CURVE SMOOTH",
"350 1493 LINE",
"147 1493 LINE"
);
},
{
closed = 1;
nodes = (
"561 1899 LINE",
"377 1899 LINE",
"604 1635 LINE",
"758 1635 LINE"
);
}
);
width = 1233;
}
);
note = "\012\011Ugrave\012  ";
unicode = 00D9;
},
{
glyphname = Uhorn;
lastChange = "2015-07-16 01:09:22 +0000";
layers = (
{
layerId = "A8E9A3C4-7003-4333-ABE9-545A429BAB07";
name = Regular;
paths = (
{
closed = 1;
nodes = (
"829 1415 LINE",
"916 1351 OFFCURVE",
"968 1327 OFFCURVE",
"1013 1327 CURVE SMOOTH",
"1069 1327 OFFCURVE",
"1101 1365 OFFCURVE",
"1101 1437 CURVE SMOOTH",
"1101 1478 OFFCURVE",
"1091 1520 OFFCURVE",
"1071 1561 CURVE",
"1204 1561 LINE",
"1218 1505 OFFCURVE",
"1224 1467 OFFCURVE",
"1224 1418 CURVE SMOOTH",
"1224 1270 OFFCURVE",
"1168 1188 OFFCURVE",
"1050 1188 CURVE SMOOTH",
"984 1188 OFFCURVE",
"923 1214 OFFCURVE",
"829 1296 CURVE"
);
},
{
closed = 1;
nodes = (
"9 1493 LINE",
"212 1493 LINE",
"212 481 LINE SMOOTH",
"212 408 OFFCURVE",
"214 357 OFFCURVE",
"218 326 CURVE SMOOTH",
"226 269 OFFCURVE",
"253 201 OFFCURVE",
"332 164 CURVE SMOOTH",
"371 146 OFFCURVE",
"422 135 OFFCURVE",
"478 135 CURVE SMOOTH",
"590 135 OFFCURVE",
"682 179 OFFCURVE",
"719 254 CURVE SMOOTH",
"727 270 OFFCURVE",
"735 295 OFFCURVE",
"739 325 CURVE SMOOTH",
"743 356 OFFCURVE",
"745 407 OFFCURVE",
"745 479 CURVE SMOOTH",
"745 1493 LINE",
"947 1493 LINE",
"947 573 LINE SMOOTH",
"947 406 OFFCURVE",
"938 314 OFFCURVE",
"918 248 CURVE SMOOTH",
"876 108 OFFCURVE",
"773 35 OFFCURVE",
"669 0 CURVE SMOOTH",
"612 -19 OFFCURVE",
"549 -29 OFFCURVE",
"480 -29 CURVE SMOOTH",
"335 -29 OFFCURVE",
"215 15 OFFCURVE",
"136 87 CURVE SMOOTH",
"88 131 OFFCURVE",
"56 186 OFFCURVE",
"38 250 CURVE SMOOTH",
"20 313 OFFCURVE",
"9 409 OFFCURVE",
"9 573 CURVE SMOOTH"
);
}
);
width = 1233;
}
);
note = "\012\011Uhorn\012  ";
unicode = 01AF;
},
{
glyphname = Uhungarumlaut;
lastChange = "2015-07-16 01:09:31 +0000";
layers = (
{
layerId = "A8E9A3C4-7003-4333-ABE9-545A429BAB07";
name = Regular;
paths = (
{
closed = 1;
nodes = (
"860 1899 LINE",
"1046 1899 LINE",
"817 1635 LINE",
"663 1635 LINE"
);
},
{
closed = 1;
nodes = (
"541 1899 LINE",
"727 1899 LINE",
"498 1635 LINE",
"344 1635 LINE"
);
},
{
closed = 1;
nodes = (
"147 1493 LINE",
"350 1493 LINE",
"350 481 LINE SMOOTH",
"350 408 OFFCURVE",
"352 357 OFFCURVE",
"356 326 CURVE SMOOTH",
"364 269 OFFCURVE",
"391 201 OFFCURVE",
"470 164 CURVE SMOOTH",
"509 146 OFFCURVE",
"560 135 OFFCURVE",
"616 135 CURVE SMOOTH",
"728 135 OFFCURVE",
"820 179 OFFCURVE",
"857 254 CURVE SMOOTH",
"865 270 OFFCURVE",
"873 295 OFFCURVE",
"877 325 CURVE SMOOTH",
"881 356 OFFCURVE",
"883 407 OFFCURVE",
"883 479 CURVE SMOOTH",
"883 1493 LINE",
"1085 1493 LINE",
"1085 573 LINE SMOOTH",
"1085 406 OFFCURVE",
"1076 314 OFFCURVE",
"1056 248 CURVE SMOOTH",
"1014 108 OFFCURVE",
"911 35 OFFCURVE",
"807 0 CURVE SMOOTH",
"750 -19 OFFCURVE",
"687 -29 OFFCURVE",
"618 -29 CURVE SMOOTH",
"473 -29 OFFCURVE",
"353 15 OFFCURVE",
"274 87 CURVE SMOOTH",
"226 131 OFFCURVE",
"194 186 OFFCURVE",
"176 250 CURVE SMOOTH",
"158 313 OFFCURVE",
"147 409 OFFCURVE",
"147 573 CURVE SMOOTH"
);
}
);
width = 1233;
}
);
note = "\012\011Uhungarumlaut\012  ";
unicode = 0170;
},
{
glyphname = Umacron;
lastChange = "2015-07-16 01:09:40 +0000";
layers = (
{
layerId = "A8E9A3C4-7003-4333-ABE9-545A429BAB07";
name = Regular;
paths = (
{
closed = 1;
nodes = (
"317 1840 LINE",
"915 1840 LINE",
"915 1692 LINE",
"317 1692 LINE"
);
},
{
closed = 1;
nodes = (
"147 1493 LINE",
"350 1493 LINE",
"350 481 LINE SMOOTH",
"350 408 OFFCURVE",
"352 357 OFFCURVE",
"356 326 CURVE SMOOTH",
"364 269 OFFCURVE",
"391 201 OFFCURVE",
"470 164 CURVE SMOOTH",
"509 146 OFFCURVE",
"560 135 OFFCURVE",
"616 135 CURVE SMOOTH",
"728 135 OFFCURVE",
"820 179 OFFCURVE",
"857 254 CURVE SMOOTH",
"865 270 OFFCURVE",
"873 295 OFFCURVE",
"877 325 CURVE SMOOTH",
"881 356 OFFCURVE",
"883 407 OFFCURVE",
"883 479 CURVE SMOOTH",
"883 1493 LINE",
"1085 1493 LINE",
"1085 573 LINE SMOOTH",
"1085 406 OFFCURVE",
"1076 314 OFFCURVE",
"1056 248 CURVE SMOOTH",
"1014 108 OFFCURVE",
"911 35 OFFCURVE",
"807 0 CURVE SMOOTH",
"750 -19 OFFCURVE",
"687 -29 OFFCURVE",
"618 -29 CURVE SMOOTH",
"473 -29 OFFCURVE",
"353 15 OFFCURVE",
"274 87 CURVE SMOOTH",
"226 131 OFFCURVE",
"194 186 OFFCURVE",
"176 250 CURVE SMOOTH",
"158 313 OFFCURVE",
"147 409 OFFCURVE",
"147 573 CURVE SMOOTH"
);
}
);
width = 1233;
}
);
note = "\012\011Umacron\012  ";
unicode = 016A;
},
{
glyphname = Uogonek;
lastChange = "2015-07-16 01:09:50 +0000";
layers = (
{
layerId = "A8E9A3C4-7003-4333-ABE9-545A429BAB07";
name = Regular;
paths = (
{
closed = 1;
nodes = (
"147 1493 LINE",
"350 1493 LINE",
"350 481 LINE SMOOTH",
"350 408 OFFCURVE",
"352 357 OFFCURVE",
"356 326 CURVE SMOOTH",
"364 269 OFFCURVE",
"391 201 OFFCURVE",
"470 164 CURVE SMOOTH",
"509 146 OFFCURVE",
"560 135 OFFCURVE",
"616 135 CURVE SMOOTH",
"728 135 OFFCURVE",
"820 179 OFFCURVE",
"857 254 CURVE SMOOTH",
"865 270 OFFCURVE",
"873 295 OFFCURVE",
"877 325 CURVE SMOOTH",
"881 356 OFFCURVE",
"883 407 OFFCURVE",
"883 479 CURVE SMOOTH",
"883 1493 LINE",
"1085 1493 LINE",
"1085 573 LINE SMOOTH",
"1085 406 OFFCURVE",
"1076 314 OFFCURVE",
"1056 248 CURVE SMOOTH",
"1014 108 OFFCURVE",
"911 35 OFFCURVE",
"807 0 CURVE SMOOTH",
"750 -19 OFFCURVE",
"687 -29 OFFCURVE",
"618 -29 CURVE SMOOTH",
"473 -29 OFFCURVE",
"353 15 OFFCURVE",
"274 87 CURVE SMOOTH",
"226 131 OFFCURVE",
"194 186 OFFCURVE",
"176 250 CURVE SMOOTH",
"158 313 OFFCURVE",
"147 409 OFFCURVE",
"147 573 CURVE SMOOTH"
);
},
{
closed = 1;
nodes = (
"675 -16 LINE",
"611 -103 OFFCURVE",
"587 -155 OFFCURVE",
"587 -200 CURVE SMOOTH",
"587 -256 OFFCURVE",
"625 -288 OFFCURVE",
"697 -288 CURVE SMOOTH",
"738 -288 OFFCURVE",
"780 -278 OFFCURVE",
"821 -258 CURVE",
"821 -391 LINE",
"765 -405 OFFCURVE",
"727 -411 OFFCURVE",
"678 -411 CURVE SMOOTH",
"530 -411 OFFCURVE",
"448 -355 OFFCURVE",
"448 -237 CURVE SMOOTH",
"448 -171 OFFCURVE",
"474 -110 OFFCURVE",
"556 -16 CURVE"
);
}
);
width = 1233;
}
);
note = "\012\011Uogonek\012  ";
unicode = 0172;
},
{
glyphname = Uring;
lastChange = "2015-07-16 01:09:58 +0000";
layers = (
{
layerId = "A8E9A3C4-7003-4333-ABE9-545A429BAB07";
name = Regular;
paths = (
{
closed = 1;
nodes = (
"147 1493 LINE",
"350 1493 LINE",
"350 481 LINE SMOOTH",
"350 408 OFFCURVE",
"352 357 OFFCURVE",
"356 326 CURVE SMOOTH",
"364 269 OFFCURVE",
"391 201 OFFCURVE",
"470 164 CURVE SMOOTH",
"509 146 OFFCURVE",
"560 135 OFFCURVE",
"616 135 CURVE SMOOTH",
"728 135 OFFCURVE",
"820 179 OFFCURVE",
"857 254 CURVE SMOOTH",
"865 270 OFFCURVE",
"873 295 OFFCURVE",
"877 325 CURVE SMOOTH",
"881 356 OFFCURVE",
"883 407 OFFCURVE",
"883 479 CURVE SMOOTH",
"883 1493 LINE",
"1085 1493 LINE",
"1085 573 LINE SMOOTH",
"1085 406 OFFCURVE",
"1076 314 OFFCURVE",
"1056 248 CURVE SMOOTH",
"1014 108 OFFCURVE",
"911 35 OFFCURVE",
"807 0 CURVE SMOOTH",
"750 -19 OFFCURVE",
"687 -29 OFFCURVE",
"618 -29 CURVE SMOOTH",
"473 -29 OFFCURVE",
"353 15 OFFCURVE",
"274 87 CURVE SMOOTH",
"226 131 OFFCURVE",
"194 186 OFFCURVE",
"176 250 CURVE SMOOTH",
"158 313 OFFCURVE",
"147 409 OFFCURVE",
"147 573 CURVE SMOOTH"
);
},
{
closed = 1;
nodes = (
"901 1474 OFFCURVE",
"781 1352 OFFCURVE",
"627 1352 CURVE SMOOTH",
"473 1352 OFFCURVE",
"352 1474 OFFCURVE",
"352 1627 CURVE SMOOTH",
"352 1780 OFFCURVE",
"473 1901 OFFCURVE",
"627 1901 CURVE SMOOTH",
"781 1901 OFFCURVE",
"901 1780 OFFCURVE",
"901 1627 CURVE SMOOTH"
);
},
{
closed = 1;
nodes = (
"778 1711 OFFCURVE",
"711 1778 OFFCURVE",
"626 1778 CURVE SMOOTH",
"541 1778 OFFCURVE",
"475 1712 OFFCURVE",
"475 1627 CURVE SMOOTH",
"475 1541 OFFCURVE",
"541 1475 OFFCURVE",
"626 1475 CURVE SMOOTH",
"711 1475 OFFCURVE",
"778 1542 OFFCURVE",
"778 1627 CURVE SMOOTH"
);
}
);
width = 1233;
}
);
note = "\012\011Uring\012  ";
unicode = 016E;
},
{
glyphname = Utilde;
lastChange = "2015-07-16 01:10:08 +0000";
layers = (
{
layerId = "A8E9A3C4-7003-4333-ABE9-545A429BAB07";
name = Regular;
paths = (
{
closed = 1;
nodes = (
"555 1743 LINE SMOOTH",
"522 1762 OFFCURVE",
"504 1768 OFFCURVE",
"486 1768 CURVE SMOOTH",
"441 1768 OFFCURVE",
"412 1733 OFFCURVE",
"412 1673 CURVE SMOOTH",
"412 1667 LINE",
"287 1667 LINE",
"287 1802 OFFCURVE",
"358 1886 OFFCURVE",
"482 1886 CURVE SMOOTH",
"536 1886 OFFCURVE",
"570 1870 OFFCURVE",
"621 1843 CURVE SMOOTH",
"678 1813 LINE",
"707 1796 OFFCURVE",
"730 1788 OFFCURVE",
"750 1788 CURVE SMOOTH",
"791 1788 OFFCURVE",
"821 1825 OFFCURVE",
"821 1880 CURVE SMOOTH",
"821 1886 LINE",
"946 1886 LINE",
"942 1755 OFFCURVE",
"876 1667 OFFCURVE",
"753 1667 CURVE SMOOTH",
"710 1667 OFFCURVE",
"673 1678 OFFCURVE",
"612 1710 CURVE"
);
},
{
closed = 1;
nodes = (
"147 1493 LINE",
"350 1493 LINE",
"350 481 LINE SMOOTH",
"350 408 OFFCURVE",
"352 357 OFFCURVE",
"356 326 CURVE SMOOTH",
"364 269 OFFCURVE",
"391 201 OFFCURVE",
"470 164 CURVE SMOOTH",
"509 146 OFFCURVE",
"560 135 OFFCURVE",
"616 135 CURVE SMOOTH",
"728 135 OFFCURVE",
"820 179 OFFCURVE",
"857 254 CURVE SMOOTH",
"865 270 OFFCURVE",
"873 295 OFFCURVE",
"877 325 CURVE SMOOTH",
"881 356 OFFCURVE",
"883 407 OFFCURVE",
"883 479 CURVE SMOOTH",
"883 1493 LINE",
"1085 1493 LINE",
"1085 573 LINE SMOOTH",
"1085 406 OFFCURVE",
"1076 314 OFFCURVE",
"1056 248 CURVE SMOOTH",
"1014 108 OFFCURVE",
"911 35 OFFCURVE",
"807 0 CURVE SMOOTH",
"750 -19 OFFCURVE",
"687 -29 OFFCURVE",
"618 -29 CURVE SMOOTH",
"473 -29 OFFCURVE",
"353 15 OFFCURVE",
"274 87 CURVE SMOOTH",
"226 131 OFFCURVE",
"194 186 OFFCURVE",
"176 250 CURVE SMOOTH",
"158 313 OFFCURVE",
"147 409 OFFCURVE",
"147 573 CURVE SMOOTH"
);
}
);
width = 1233;
}
);
note = "\012\011Utilde\012  ";
unicode = 0168;
},
{
glyphname = V;
layers = (
{
layerId = "A8E9A3C4-7003-4333-ABE9-545A429BAB07";
name = Regular;
paths = (
{
closed = 1;
nodes = (
"616 170 LINE",
"266 1493 LINE",
"57 1493 LINE",
"494 0 LINE",
"739 0 LINE",
"1176 1493 LINE",
"967 1493 LINE"
);
}
);
width = 1233;
}
);
note = "\012\011V\012  ";
unicode = 0056;
},
{
glyphname = W;
layers = (
{
layerId = "A8E9A3C4-7003-4333-ABE9-545A429BAB07";
name = Regular;
paths = (
{
closed = 1;
nodes = (
"0 1493 LINE",
"223 0 LINE",
"414 0 LINE",
"616 887 LINE",
"819 0 LINE",
"1010 0 LINE",
"1233 1493 LINE",
"1036 1493 LINE",
"893 279 LINE",
"721 1083 LINE",
"510 1083 LINE",
"340 281 LINE",
"197 1493 LINE"
);
}
);
width = 1233;
}
);
note = "\012\011W\012  ";
unicode = 0057;
},
{
glyphname = Wacute;
layers = (
{
layerId = "A8E9A3C4-7003-4333-ABE9-545A429BAB07";
name = Regular;
paths = (
{
closed = 1;
nodes = (
"672 1906 LINE",
"858 1906 LINE",
"629 1642 LINE",
"475 1642 LINE"
);
},
{
closed = 1;
nodes = (
"0 1493 LINE",
"197 1493 LINE",
"340 281 LINE",
"510 1083 LINE",
"721 1083 LINE",
"893 279 LINE",
"1036 1493 LINE",
"1233 1493 LINE",
"1010 0 LINE",
"819 0 LINE",
"616 887 LINE",
"414 0 LINE",
"223 0 LINE"
);
}
);
width = 1233;
}
);
note = "\012\011Wacute\012  ";
unicode = 1E82;
},
{
glyphname = Wcircumflex;
layers = (
{
layerId = "A8E9A3C4-7003-4333-ABE9-545A429BAB07";
name = Regular;
paths = (
{
closed = 1;
nodes = (
"522 1908 LINE",
"711 1908 LINE",
"922 1642 LINE",
"782 1642 LINE",
"616 1820 LINE",
"451 1642 LINE",
"311 1642 LINE"
);
},
{
closed = 1;
nodes = (
"0 1493 LINE",
"197 1493 LINE",
"340 281 LINE",
"510 1083 LINE",
"721 1083 LINE",
"893 279 LINE",
"1036 1493 LINE",
"1233 1493 LINE",
"1010 0 LINE",
"819 0 LINE",
"616 887 LINE",
"414 0 LINE",
"223 0 LINE"
);
}
);
width = 1233;
}
);
note = "\012\011Wcircumflex\012  ";
unicode = 0174;
},
{
glyphname = Wdieresis;
layers = (
{
layerId = "A8E9A3C4-7003-4333-ABE9-545A429BAB07";
name = Regular;
paths = (
{
closed = 1;
nodes = (
"319 1813 LINE SMOOTH",
"319 1830 OFFCURVE",
"333 1844 OFFCURVE",
"350 1844 CURVE SMOOTH",
"491 1844 LINE SMOOTH",
"508 1844 OFFCURVE",
"522 1830 OFFCURVE",
"522 1813 CURVE SMOOTH",
"522 1673 LINE SMOOTH",
"522 1656 OFFCURVE",
"508 1642 OFFCURVE",
"491 1642 CURVE SMOOTH",
"350 1642 LINE SMOOTH",
"333 1642 OFFCURVE",
"319 1656 OFFCURVE",
"319 1673 CURVE SMOOTH"
);
},
{
closed = 1;
nodes = (
"711 1813 LINE SMOOTH",
"711 1830 OFFCURVE",
"725 1844 OFFCURVE",
"742 1844 CURVE SMOOTH",
"882 1844 LINE SMOOTH",
"899 1844 OFFCURVE",
"913 1830 OFFCURVE",
"913 1813 CURVE SMOOTH",
"913 1673 LINE SMOOTH",
"913 1656 OFFCURVE",
"899 1642 OFFCURVE",
"882 1642 CURVE SMOOTH",
"742 1642 LINE SMOOTH",
"725 1642 OFFCURVE",
"711 1656 OFFCURVE",
"711 1673 CURVE SMOOTH"
);
},
{
closed = 1;
nodes = (
"0 1493 LINE",
"197 1493 LINE",
"340 281 LINE",
"510 1083 LINE",
"721 1083 LINE",
"893 279 LINE",
"1036 1493 LINE",
"1233 1493 LINE",
"1010 0 LINE",
"819 0 LINE",
"616 887 LINE",
"414 0 LINE",
"223 0 LINE"
);
}
);
width = 1233;
}
);
note = "\012\011Wdieresis\012  ";
unicode = 1E84;
},
{
glyphname = Wgrave;
layers = (
{
layerId = "A8E9A3C4-7003-4333-ABE9-545A429BAB07";
name = Regular;
paths = (
{
closed = 1;
nodes = (
"561 1906 LINE",
"758 1642 LINE",
"604 1642 LINE",
"377 1906 LINE"
);
},
{
closed = 1;
nodes = (
"0 1493 LINE",
"197 1493 LINE",
"340 281 LINE",
"510 1083 LINE",
"721 1083 LINE",
"893 279 LINE",
"1036 1493 LINE",
"1233 1493 LINE",
"1010 0 LINE",
"819 0 LINE",
"616 887 LINE",
"414 0 LINE",
"223 0 LINE"
);
}
);
width = 1233;
}
);
note = "\012\011Wgrave\012  ";
unicode = 1E80;
},
{
glyphname = X;
layers = (
{
layerId = "A8E9A3C4-7003-4333-ABE9-545A429BAB07";
name = Regular;
paths = (
{
closed = 1;
nodes = (
"86 1493 LINE",
"518 791 LINE",
"18 0 LINE",
"236 0 LINE",
"631 643 LINE",
"997 0 LINE",
"1214 0 LINE",
"735 791 LINE",
"1182 1493 LINE",
"965 1493 LINE",
"631 930 LINE",
"303 1493 LINE"
);
}
);
width = 1233;
}
);
note = "\012\011X\012  ";
unicode = 0058;
},
{
glyphname = Y;
layers = (
{
layerId = "A8E9A3C4-7003-4333-ABE9-545A429BAB07";
name = Regular;
paths = (
{
closed = 1;
nodes = (
"37 1493 LINE",
"514 670 LINE",
"514 0 LINE",
"717 0 LINE",
"717 670 LINE",
"1196 1493 LINE",
"979 1493 LINE",
"616 834 LINE",
"252 1493 LINE"
);
}
);
width = 1233;
}
);
note = "\012\011Y\012  ";
unicode = 0059;
},
{
glyphname = Yacute;
layers = (
{
layerId = "A8E9A3C4-7003-4333-ABE9-545A429BAB07";
name = Regular;
paths = (
{
closed = 1;
nodes = (
"37 1493 LINE",
"514 670 LINE",
"514 0 LINE",
"717 0 LINE",
"717 670 LINE",
"1196 1493 LINE",
"979 1493 LINE",
"616 834 LINE",
"252 1493 LINE"
);
},
{
closed = 1;
nodes = (
"672 1899 LINE",
"475 1635 LINE",
"629 1635 LINE",
"858 1899 LINE"
);
}
);
width = 1233;
}
);
note = "\012\011Yacute\012  ";
unicode = 00DD;
},
{
glyphname = Ycircumflex;
layers = (
{
layerId = "A8E9A3C4-7003-4333-ABE9-545A429BAB07";
name = Regular;
paths = (
{
closed = 1;
nodes = (
"522 1908 LINE",
"711 1908 LINE",
"922 1642 LINE",
"782 1642 LINE",
"616 1820 LINE",
"451 1642 LINE",
"311 1642 LINE"
);
},
{
closed = 1;
nodes = (
"37 1493 LINE",
"252 1493 LINE",
"616 834 LINE",
"979 1493 LINE",
"1196 1493 LINE",
"717 670 LINE",
"717 0 LINE",
"514 0 LINE",
"514 670 LINE"
);
}
);
width = 1233;
}
);
note = "\012\011Ycircumflex\012  ";
unicode = 0176;
},
{
glyphname = Ydieresis;
layers = (
{
layerId = "A8E9A3C4-7003-4333-ABE9-545A429BAB07";
name = Regular;
paths = (
{
closed = 1;
nodes = (
"37 1493 LINE",
"514 670 LINE",
"514 0 LINE",
"717 0 LINE",
"717 670 LINE",
"1196 1493 LINE",
"979 1493 LINE",
"616 834 LINE",
"252 1493 LINE"
);
},
{
closed = 1;
nodes = (
"349 1870 LINE SMOOTH",
"330 1870 OFFCURVE",
"319 1859 OFFCURVE",
"319 1840 CURVE SMOOTH",
"319 1697 LINE SMOOTH",
"319 1678 OFFCURVE",
"330 1667 OFFCURVE",
"349 1667 CURVE SMOOTH",
"492 1667 LINE SMOOTH",
"511 1667 OFFCURVE",
"522 1678 OFFCURVE",
"522 1697 CURVE SMOOTH",
"522 1840 LINE SMOOTH",
"522 1859 OFFCURVE",
"511 1870 OFFCURVE",
"492 1870 CURVE SMOOTH"
);
},
{
closed = 1;
nodes = (
"741 1870 LINE SMOOTH",
"722 1870 OFFCURVE",
"711 1859 OFFCURVE",
"711 1840 CURVE SMOOTH",
"711 1697 LINE SMOOTH",
"711 1678 OFFCURVE",
"722 1667 OFFCURVE",
"741 1667 CURVE SMOOTH",
"883 1667 LINE SMOOTH",
"902 1667 OFFCURVE",
"913 1678 OFFCURVE",
"913 1697 CURVE SMOOTH",
"913 1840 LINE SMOOTH",
"913 1859 OFFCURVE",
"902 1870 OFFCURVE",
"883 1870 CURVE SMOOTH"
);
}
);
width = 1233;
}
);
note = "\012\011Ydieresis\012  ";
unicode = 0178;
},
{
glyphname = Ygrave;
layers = (
{
layerId = "A8E9A3C4-7003-4333-ABE9-545A429BAB07";
name = Regular;
paths = (
{
closed = 1;
nodes = (
"561 1906 LINE",
"758 1642 LINE",
"604 1642 LINE",
"377 1906 LINE"
);
},
{
closed = 1;
nodes = (
"37 1493 LINE",
"252 1493 LINE",
"616 834 LINE",
"979 1493 LINE",
"1196 1493 LINE",
"717 670 LINE",
"717 0 LINE",
"514 0 LINE",
"514 670 LINE"
);
}
);
width = 1233;
}
);
note = "\012\011Ygrave\012  ";
unicode = 1EF2;
},
{
glyphname = Z;
layers = (
{
layerId = "A8E9A3C4-7003-4333-ABE9-545A429BAB07";
name = Regular;
paths = (
{
closed = 1;
nodes = (
"132 1493 LINE",
"132 1323 LINE",
"869 1323 LINE",
"110 154 LINE",
"110 0 LINE",
"1123 0 LINE",
"1123 170 LINE",
"321 170 LINE",
"1101 1339 LINE",
"1101 1493 LINE"
);
}
);
width = 1233;
}
);
note = "\012\011Z\012  ";
unicode = 005A;
},
{
glyphname = Zacute;
lastChange = "2015-07-16 01:16:11 +0000";
layers = (
{
layerId = "A8E9A3C4-7003-4333-ABE9-545A429BAB07";
name = Regular;
paths = (
{
closed = 1;
nodes = (
"653 1899 LINE",
"839 1899 LINE",
"610 1635 LINE",
"456 1635 LINE"
);
},
{
closed = 1;
nodes = (
"132 1493 LINE",
"1101 1493 LINE",
"1101 1339 LINE",
"321 170 LINE",
"1123 170 LINE",
"1123 0 LINE",
"110 0 LINE",
"110 154 LINE",
"869 1323 LINE",
"132 1323 LINE"
);
}
);
width = 1233;
}
);
note = "\012\011Zacute\012  ";
unicode = 0179;
},
{
glyphname = Zcaron;
lastChange = "2015-07-16 01:16:30 +0000";
layers = (
{
layerId = "A8E9A3C4-7003-4333-ABE9-545A429BAB07";
name = Regular;
paths = (
{
closed = 1;
nodes = (
"132 1493 LINE",
"132 1323 LINE",
"869 1323 LINE",
"110 154 LINE",
"110 0 LINE",
"1123 0 LINE",
"1123 170 LINE",
"321 170 LINE",
"1101 1339 LINE",
"1101 1493 LINE"
);
},
{
closed = 1;
nodes = (
"476 1635 LINE",
"665 1635 LINE",
"876 1901 LINE",
"736 1901 LINE",
"570 1723 LINE",
"405 1901 LINE",
"265 1901 LINE"
);
}
);
width = 1233;
}
);
note = "\012\011Zcaron\012  ";
unicode = 017D;
},
{
glyphname = Zdotaccent;
lastChange = "2015-07-16 01:16:40 +0000";
layers = (
{
layerId = "A8E9A3C4-7003-4333-ABE9-545A429BAB07";
name = Regular;
paths = (
{
closed = 1;
nodes = (
"517 1842 LINE SMOOTH",
"517 1861 OFFCURVE",
"528 1872 OFFCURVE",
"547 1872 CURVE SMOOTH",
"692 1872 LINE SMOOTH",
"711 1872 OFFCURVE",
"722 1861 OFFCURVE",
"722 1842 CURVE SMOOTH",
"722 1697 LINE SMOOTH",
"722 1678 OFFCURVE",
"711 1667 OFFCURVE",
"692 1667 CURVE SMOOTH",
"547 1667 LINE SMOOTH",
"528 1667 OFFCURVE",
"517 1678 OFFCURVE",
"517 1697 CURVE SMOOTH"
);
},
{
closed = 1;
nodes = (
"132 1493 LINE",
"1101 1493 LINE",
"1101 1339 LINE",
"321 170 LINE",
"1123 170 LINE",
"1123 0 LINE",
"110 0 LINE",
"110 154 LINE",
"869 1323 LINE",
"132 1323 LINE"
);
}
);
width = 1233;
}
);
note = "\012\011Zdotaccent\012  ";
unicode = 017B;
},
{
glyphname = a;
layers = (
{
layerId = "A8E9A3C4-7003-4333-ABE9-545A429BAB07";
name = Regular;
paths = (
{
closed = 1;
nodes = (
"712 563 LINE",
"884 563 LINE",
"884 522 LINE SMOOTH",
"884 401 OFFCURVE",
"854 302 OFFCURVE",
"796 231 CURVE SMOOTH",
"738 160 OFFCURVE",
"657 125 OFFCURVE",
"558 125 CURVE SMOOTH",
"481 125 OFFCURVE",
"426 146 OFFCURVE",
"388 181 CURVE SMOOTH",
"349 217 OFFCURVE",
"327 268 OFFCURVE",
"327 337 CURVE SMOOTH",
"327 411 OFFCURVE",
"352 468 OFFCURVE",
"409 507 CURVE SMOOTH",
"463 544 OFFCURVE",
"544 563 OFFCURVE",
"651 563 CURVE SMOOTH"
);
},
{
closed = 1;
nodes = (
"1069 639 LINE SMOOTH",
"1069 737 OFFCURVE",
"1064 811 OFFCURVE",
"1053 860 CURVE SMOOTH",
"1044 901 OFFCURVE",
"1027 945 OFFCURVE",
"999 984 CURVE SMOOTH",
"961 1037 OFFCURVE",
"906 1077 OFFCURVE",
"840 1105 CURVE SMOOTH",
"774 1133 OFFCURVE",
"701 1147 OFFCURVE",
"605 1147 CURVE SMOOTH",
"542 1147 OFFCURVE",
"483 1141 OFFCURVE",
"421 1128 CURVE SMOOTH",
"355 1114 OFFCURVE",
"296 1096 OFFCURVE",
"225 1069 CURVE",
"225 885 LINE",
"286 920 OFFCURVE",
"348 946 OFFCURVE",
"412 964 CURVE SMOOTH",
"476 982 OFFCURVE",
"539 991 OFFCURVE",
"603 991 CURVE SMOOTH",
"698 991 OFFCURVE",
"772 971 OFFCURVE",
"816 931 CURVE SMOOTH",
"861 890 OFFCURVE",
"884 821 OFFCURVE",
"884 736 CURVE SMOOTH",
"884 707 LINE",
"637 707 LINE SMOOTH",
"475 707 OFFCURVE",
"352 675 OFFCURVE",
"269 610 CURVE SMOOTH",
"185 545 OFFCURVE",
"143 450 OFFCURVE",
"143 327 CURVE SMOOTH",
"143 210 OFFCURVE",
"181 129 OFFCURVE",
"245 68 CURVE SMOOTH",
"313 3 OFFCURVE",
"403 -29 OFFCURVE",
"520 -29 CURVE SMOOTH",
"602 -29 OFFCURVE",
"676 -13 OFFCURVE",
"736 19 CURVE SMOOTH",
"795 50 OFFCURVE",
"845 99 OFFCURVE",
"884 166 CURVE",
"902 0 LINE",
"1069 0 LINE"
);
}
);
width = 1233;
}
);
note = "\012\011a\012  ";
unicode = 0061;
},
{
glyphname = aacute;
lastChange = "2015-07-16 01:24:32 +0000";
layers = (
{
layerId = "A8E9A3C4-7003-4333-ABE9-545A429BAB07";
name = Regular;
paths = (
{
closed = 1;
nodes = (
"712 563 LINE",
"884 563 LINE",
"884 522 LINE SMOOTH",
"884 401 OFFCURVE",
"854 302 OFFCURVE",
"796 231 CURVE SMOOTH",
"738 160 OFFCURVE",
"657 125 OFFCURVE",
"558 125 CURVE SMOOTH",
"481 125 OFFCURVE",
"426 146 OFFCURVE",
"388 181 CURVE SMOOTH",
"349 217 OFFCURVE",
"327 268 OFFCURVE",
"327 337 CURVE SMOOTH",
"327 411 OFFCURVE",
"352 468 OFFCURVE",
"409 507 CURVE SMOOTH",
"463 544 OFFCURVE",
"544 563 OFFCURVE",
"651 563 CURVE SMOOTH"
);
},
{
closed = 1;
nodes = (
"1069 639 LINE SMOOTH",
"1069 737 OFFCURVE",
"1064 811 OFFCURVE",
"1053 860 CURVE SMOOTH",
"1044 901 OFFCURVE",
"1027 945 OFFCURVE",
"999 984 CURVE SMOOTH",
"961 1037 OFFCURVE",
"906 1077 OFFCURVE",
"840 1105 CURVE SMOOTH",
"774 1133 OFFCURVE",
"701 1147 OFFCURVE",
"605 1147 CURVE SMOOTH",
"542 1147 OFFCURVE",
"483 1141 OFFCURVE",
"421 1128 CURVE SMOOTH",
"350 1113 OFFCURVE",
"288 1093 OFFCURVE",
"225 1069 CURVE",
"225 885 LINE",
"286 920 OFFCURVE",
"348 946 OFFCURVE",
"412 964 CURVE SMOOTH",
"476 982 OFFCURVE",
"539 991 OFFCURVE",
"603 991 CURVE SMOOTH",
"698 991 OFFCURVE",
"772 971 OFFCURVE",
"816 931 CURVE SMOOTH",
"861 890 OFFCURVE",
"884 821 OFFCURVE",
"884 736 CURVE SMOOTH",
"884 707 LINE",
"637 707 LINE SMOOTH",
"475 707 OFFCURVE",
"352 675 OFFCURVE",
"269 610 CURVE SMOOTH",
"185 545 OFFCURVE",
"143 450 OFFCURVE",
"143 327 CURVE SMOOTH",
"143 210 OFFCURVE",
"181 129 OFFCURVE",
"245 68 CURVE SMOOTH",
"313 3 OFFCURVE",
"403 -29 OFFCURVE",
"520 -29 CURVE SMOOTH",
"602 -29 OFFCURVE",
"676 -13 OFFCURVE",
"736 19 CURVE SMOOTH",
"795 50 OFFCURVE",
"845 99 OFFCURVE",
"884 166 CURVE",
"902 0 LINE",
"1069 0 LINE"
);
},
{
closed = 1;
nodes = (
"766 1638 LINE",
"485 1262 LINE",
"639 1262 LINE",
"964 1638 LINE"
);
}
);
width = 1233;
}
);
note = "\012\011aacute\012  ";
unicode = 00E1;
},
{
glyphname = abreve;
lastChange = "2015-07-16 01:24:23 +0000";
layers = (
{
layerId = "A8E9A3C4-7003-4333-ABE9-545A429BAB07";
name = Regular;
paths = (
{
closed = 1;
nodes = (
"432 1608 LINE",
"446 1513 OFFCURVE",
"504 1458 OFFCURVE",
"625 1458 CURVE SMOOTH",
"739 1458 OFFCURVE",
"802 1507 OFFCURVE",
"821 1608 CURVE",
"940 1608 LINE",
"925 1417 OFFCURVE",
"819 1321 OFFCURVE",
"626 1321 CURVE SMOOTH",
"434 1321 OFFCURVE",
"328 1417 OFFCURVE",
"313 1608 CURVE"
);
},
{
closed = 1;
nodes = (
"712 563 LINE",
"651 563 LINE SMOOTH",
"437 563 OFFCURVE",
"327 488 OFFCURVE",
"327 337 CURVE SMOOTH",
"327 203 OFFCURVE",
"413 125 OFFCURVE",
"558 125 CURVE SMOOTH",
"760 125 OFFCURVE",
"884 276 OFFCURVE",
"884 522 CURVE SMOOTH",
"884 563 LINE"
);
},
{
closed = 1;
nodes = (
"1069 0 LINE",
"884 0 LINE",
"884 166 LINE",
"811 42 OFFCURVE",
"696 -29 OFFCURVE",
"524 -29 CURVE SMOOTH",
"284 -29 OFFCURVE",
"143 110 OFFCURVE",
"143 331 CURVE SMOOTH",
"143 573 OFFCURVE",
"313 707 OFFCURVE",
"637 707 CURVE SMOOTH",
"884 707 LINE",
"884 736 LINE",
"884 918 OFFCURVE",
"791 991 OFFCURVE",
"606 991 CURVE SMOOTH",
"475 991 OFFCURVE",
"346 954 OFFCURVE",
"225 885 CURVE",
"225 1069 LINE",
"361 1121 OFFCURVE",
"483 1147 OFFCURVE",
"606 1147 CURVE SMOOTH",
"785 1147 OFFCURVE",
"918 1092 OFFCURVE",
"999 983 CURVE SMOOTH",
"1050 915 OFFCURVE",
"1069 837 OFFCURVE",
"1069 639 CURVE SMOOTH"
);
}
);
width = 1233;
}
);
note = "\012\011abreve\012  ";
unicode = 0103;
},
{
glyphname = acircumflex;
lastChange = "2015-07-16 01:24:15 +0000";
layers = (
{
layerId = "A8E9A3C4-7003-4333-ABE9-545A429BAB07";
name = Regular;
paths = (
{
closed = 1;
nodes = (
"712 563 LINE",
"884 563 LINE",
"884 522 LINE SMOOTH",
"884 401 OFFCURVE",
"854 302 OFFCURVE",
"796 231 CURVE SMOOTH",
"738 160 OFFCURVE",
"657 125 OFFCURVE",
"558 125 CURVE SMOOTH",
"481 125 OFFCURVE",
"426 146 OFFCURVE",
"388 181 CURVE SMOOTH",
"349 217 OFFCURVE",
"327 268 OFFCURVE",
"327 337 CURVE SMOOTH",
"327 411 OFFCURVE",
"352 468 OFFCURVE",
"409 507 CURVE SMOOTH",
"463 544 OFFCURVE",
"544 563 OFFCURVE",
"651 563 CURVE SMOOTH"
);
},
{
closed = 1;
nodes = (
"1069 639 LINE SMOOTH",
"1069 737 OFFCURVE",
"1064 811 OFFCURVE",
"1053 860 CURVE SMOOTH",
"1044 901 OFFCURVE",
"1027 945 OFFCURVE",
"999 984 CURVE SMOOTH",
"961 1037 OFFCURVE",
"906 1077 OFFCURVE",
"840 1105 CURVE SMOOTH",
"774 1133 OFFCURVE",
"701 1147 OFFCURVE",
"605 1147 CURVE SMOOTH",
"542 1147 OFFCURVE",
"483 1141 OFFCURVE",
"421 1128 CURVE SMOOTH",
"350 1113 OFFCURVE",
"288 1093 OFFCURVE",
"225 1069 CURVE",
"225 885 LINE",
"286 920 OFFCURVE",
"348 946 OFFCURVE",
"412 964 CURVE SMOOTH",
"476 982 OFFCURVE",
"539 991 OFFCURVE",
"603 991 CURVE SMOOTH",
"698 991 OFFCURVE",
"772 971 OFFCURVE",
"816 931 CURVE SMOOTH",
"861 890 OFFCURVE",
"884 821 OFFCURVE",
"884 736 CURVE SMOOTH",
"884 707 LINE",
"637 707 LINE SMOOTH",
"475 707 OFFCURVE",
"352 675 OFFCURVE",
"269 610 CURVE SMOOTH",
"185 545 OFFCURVE",
"143 450 OFFCURVE",
"143 327 CURVE SMOOTH",
"143 210 OFFCURVE",
"181 129 OFFCURVE",
"245 68 CURVE SMOOTH",
"313 3 OFFCURVE",
"403 -29 OFFCURVE",
"520 -29 CURVE SMOOTH",
"602 -29 OFFCURVE",
"676 -13 OFFCURVE",
"736 19 CURVE SMOOTH",
"795 50 OFFCURVE",
"845 99 OFFCURVE",
"884 166 CURVE",
"902 0 LINE",
"1069 0 LINE"
);
},
{
closed = 1;
nodes = (
"553 1638 LINE",
"307 1262 LINE",
"446 1262 LINE",
"626 1507 LINE",
"807 1262 LINE",
"946 1262 LINE",
"700 1638 LINE"
);
}
);
width = 1233;
}
);
note = "\012\011acircumflex\012  ";
unicode = 00E2;
},
{
glyphname = adieresis;
lastChange = "2015-07-16 01:24:43 +0000";
layers = (
{
layerId = "A8E9A3C4-7003-4333-ABE9-545A429BAB07";
name = Regular;
paths = (
{
closed = 1;
nodes = (
"884 563 LINE",
"884 522 LINE SMOOTH",
"884 401 OFFCURVE",
"854 302 OFFCURVE",
"796 231 CURVE SMOOTH",
"738 160 OFFCURVE",
"657 125 OFFCURVE",
"558 125 CURVE SMOOTH",
"481 125 OFFCURVE",
"426 146 OFFCURVE",
"388 181 CURVE SMOOTH",
"349 217 OFFCURVE",
"327 268 OFFCURVE",
"327 337 CURVE SMOOTH",
"327 411 OFFCURVE",
"352 468 OFFCURVE",
"409 507 CURVE SMOOTH",
"463 544 OFFCURVE",
"544 563 OFFCURVE",
"651 563 CURVE SMOOTH"
);
},
{
closed = 1;
nodes = (
"1069 639 LINE SMOOTH",
"1069 737 OFFCURVE",
"1064 811 OFFCURVE",
"1053 860 CURVE SMOOTH",
"1044 901 OFFCURVE",
"1027 945 OFFCURVE",
"999 984 CURVE SMOOTH",
"961 1037 OFFCURVE",
"902 1079 OFFCURVE",
"841 1105 CURVE SMOOTH",
"775 1133 OFFCURVE",
"698 1147 OFFCURVE",
"604 1147 CURVE SMOOTH",
"543 1147 OFFCURVE",
"483 1141 OFFCURVE",
"421 1128 CURVE SMOOTH",
"352 1114 OFFCURVE",
"280 1090 OFFCURVE",
"225 1069 CURVE",
"225 885 LINE",
"286 920 OFFCURVE",
"348 946 OFFCURVE",
"412 964 CURVE SMOOTH",
"476 982 OFFCURVE",
"539 991 OFFCURVE",
"603 991 CURVE SMOOTH",
"698 991 OFFCURVE",
"772 971 OFFCURVE",
"816 931 CURVE SMOOTH",
"861 890 OFFCURVE",
"884 821 OFFCURVE",
"884 736 CURVE SMOOTH",
"884 707 LINE",
"637 707 LINE SMOOTH",
"475 707 OFFCURVE",
"352 675 OFFCURVE",
"269 610 CURVE SMOOTH",
"185 545 OFFCURVE",
"143 450 OFFCURVE",
"143 327 CURVE SMOOTH",
"143 210 OFFCURVE",
"181 129 OFFCURVE",
"245 68 CURVE SMOOTH",
"313 3 OFFCURVE",
"403 -29 OFFCURVE",
"520 -29 CURVE SMOOTH",
"602 -29 OFFCURVE",
"676 -13 OFFCURVE",
"736 19 CURVE SMOOTH",
"795 50 OFFCURVE",
"845 99 OFFCURVE",
"884 166 CURVE",
"902 0 LINE",
"1069 0 LINE"
);
},
{
closed = 1;
nodes = (
"359 1552 LINE SMOOTH",
"340 1552 OFFCURVE",
"329 1541 OFFCURVE",
"329 1522 CURVE SMOOTH",
"329 1380 LINE SMOOTH",
"329 1361 OFFCURVE",
"340 1350 OFFCURVE",
"359 1350 CURVE SMOOTH",
"502 1350 LINE SMOOTH",
"521 1350 OFFCURVE",
"532 1361 OFFCURVE",
"532 1380 CURVE SMOOTH",
"532 1522 LINE SMOOTH",
"532 1541 OFFCURVE",
"521 1552 OFFCURVE",
"502 1552 CURVE SMOOTH"
);
},
{
closed = 1;
nodes = (
"751 1552 LINE SMOOTH",
"732 1552 OFFCURVE",
"721 1541 OFFCURVE",
"721 1522 CURVE SMOOTH",
"721 1380 LINE SMOOTH",
"721 1361 OFFCURVE",
"732 1350 OFFCURVE",
"751 1350 CURVE SMOOTH",
"893 1350 LINE SMOOTH",
"912 1350 OFFCURVE",
"923 1361 OFFCURVE",
"923 1380 CURVE SMOOTH",
"923 1522 LINE SMOOTH",
"923 1541 OFFCURVE",
"912 1552 OFFCURVE",
"893 1552 CURVE SMOOTH"
);
}
);
width = 1233;
}
);
note = "\012\011adieresis\012  ";
unicode = 00E4;
},
{
glyphname = agrave;
lastChange = "2015-07-16 01:24:51 +0000";
layers = (
{
layerId = "A8E9A3C4-7003-4333-ABE9-545A429BAB07";
name = Regular;
paths = (
{
closed = 1;
nodes = (
"712 563 LINE",
"884 563 LINE",
"884 522 LINE SMOOTH",
"884 401 OFFCURVE",
"854 302 OFFCURVE",
"796 231 CURVE SMOOTH",
"738 160 OFFCURVE",
"657 125 OFFCURVE",
"558 125 CURVE SMOOTH",
"481 125 OFFCURVE",
"426 146 OFFCURVE",
"388 181 CURVE SMOOTH",
"349 217 OFFCURVE",
"327 268 OFFCURVE",
"327 337 CURVE SMOOTH",
"327 411 OFFCURVE",
"352 468 OFFCURVE",
"409 507 CURVE SMOOTH",
"463 544 OFFCURVE",
"544 563 OFFCURVE",
"651 563 CURVE SMOOTH"
);
},
{
closed = 1;
nodes = (
"1069 639 LINE SMOOTH",
"1069 737 OFFCURVE",
"1064 811 OFFCURVE",
"1053 860 CURVE SMOOTH",
"1044 901 OFFCURVE",
"1027 945 OFFCURVE",
"999 984 CURVE SMOOTH",
"961 1037 OFFCURVE",
"906 1077 OFFCURVE",
"840 1105 CURVE SMOOTH",
"774 1133 OFFCURVE",
"701 1147 OFFCURVE",
"605 1147 CURVE SMOOTH",
"542 1147 OFFCURVE",
"483 1141 OFFCURVE",
"421 1128 CURVE SMOOTH",
"350 1113 OFFCURVE",
"288 1093 OFFCURVE",
"225 1069 CURVE",
"225 885 LINE",
"286 920 OFFCURVE",
"348 946 OFFCURVE",
"412 964 CURVE SMOOTH",
"476 982 OFFCURVE",
"539 991 OFFCURVE",
"603 991 CURVE SMOOTH",
"698 991 OFFCURVE",
"772 971 OFFCURVE",
"816 931 CURVE SMOOTH",
"861 890 OFFCURVE",
"884 821 OFFCURVE",
"884 736 CURVE SMOOTH",
"884 707 LINE",
"637 707 LINE SMOOTH",
"475 707 OFFCURVE",
"352 675 OFFCURVE",
"269 610 CURVE SMOOTH",
"185 545 OFFCURVE",
"143 450 OFFCURVE",
"143 327 CURVE SMOOTH",
"143 210 OFFCURVE",
"181 129 OFFCURVE",
"245 68 CURVE SMOOTH",
"313 3 OFFCURVE",
"403 -29 OFFCURVE",
"520 -29 CURVE SMOOTH",
"602 -29 OFFCURVE",
"676 -13 OFFCURVE",
"736 19 CURVE SMOOTH",
"795 50 OFFCURVE",
"845 99 OFFCURVE",
"884 166 CURVE",
"902 0 LINE",
"1069 0 LINE"
);
},
{
closed = 1;
nodes = (
"487 1638 LINE",
"289 1638 LINE",
"614 1262 LINE",
"768 1262 LINE"
);
}
);
width = 1233;
}
);
note = "\012\011agrave\012  ";
unicode = 00E0;
},
{
glyphname = amacron;
lastChange = "2015-07-16 01:25:15 +0000";
layers = (
{
layerId = "A8E9A3C4-7003-4333-ABE9-545A429BAB07";
name = Regular;
paths = (
{
closed = 1;
nodes = (
"327 1526 LINE",
"925 1526 LINE",
"925 1378 LINE",
"327 1378 LINE"
);
},
{
closed = 1;
nodes = (
"712 563 LINE",
"651 563 LINE SMOOTH",
"437 563 OFFCURVE",
"327 488 OFFCURVE",
"327 337 CURVE SMOOTH",
"327 203 OFFCURVE",
"413 125 OFFCURVE",
"558 125 CURVE SMOOTH",
"760 125 OFFCURVE",
"884 276 OFFCURVE",
"884 522 CURVE SMOOTH",
"884 563 LINE"
);
},
{
closed = 1;
nodes = (
"1069 0 LINE",
"884 0 LINE",
"884 166 LINE",
"811 42 OFFCURVE",
"696 -29 OFFCURVE",
"524 -29 CURVE SMOOTH",
"284 -29 OFFCURVE",
"143 110 OFFCURVE",
"143 331 CURVE SMOOTH",
"143 573 OFFCURVE",
"313 707 OFFCURVE",
"637 707 CURVE SMOOTH",
"884 707 LINE",
"884 736 LINE",
"884 918 OFFCURVE",
"791 991 OFFCURVE",
"606 991 CURVE SMOOTH",
"475 991 OFFCURVE",
"346 954 OFFCURVE",
"225 885 CURVE",
"225 1069 LINE",
"361 1121 OFFCURVE",
"483 1147 OFFCURVE",
"606 1147 CURVE SMOOTH",
"785 1147 OFFCURVE",
"918 1092 OFFCURVE",
"999 983 CURVE SMOOTH",
"1048 916 OFFCURVE",
"1069 846 OFFCURVE",
"1069 639 CURVE SMOOTH"
);
}
);
width = 1233;
}
);
note = "\012\011amacron\012  ";
unicode = 0101;
},
{
glyphname = aogonek;
lastChange = "2015-07-16 01:25:24 +0000";
layers = (
{
layerId = "A8E9A3C4-7003-4333-ABE9-545A429BAB07";
name = Regular;
paths = (
{
closed = 1;
nodes = (
"1002 0 LINE",
"938 -87 OFFCURVE",
"914 -139 OFFCURVE",
"914 -184 CURVE SMOOTH",
"914 -240 OFFCURVE",
"952 -272 OFFCURVE",
"1024 -272 CURVE SMOOTH",
"1065 -272 OFFCURVE",
"1107 -262 OFFCURVE",
"1148 -242 CURVE",
"1148 -375 LINE",
"1092 -389 OFFCURVE",
"1054 -395 OFFCURVE",
"1005 -395 CURVE SMOOTH",
"857 -395 OFFCURVE",
"775 -339 OFFCURVE",
"775 -221 CURVE SMOOTH",
"775 -155 OFFCURVE",
"801 -94 OFFCURVE",
"883 0 CURVE"
);
},
{
closed = 1;
nodes = (
"712 563 LINE",
"651 563 LINE SMOOTH",
"437 563 OFFCURVE",
"327 488 OFFCURVE",
"327 337 CURVE SMOOTH",
"327 203 OFFCURVE",
"413 125 OFFCURVE",
"558 125 CURVE SMOOTH",
"760 125 OFFCURVE",
"884 276 OFFCURVE",
"884 522 CURVE SMOOTH",
"884 563 LINE"
);
},
{
closed = 1;
nodes = (
"1069 0 LINE",
"884 0 LINE",
"884 166 LINE",
"811 42 OFFCURVE",
"696 -29 OFFCURVE",
"524 -29 CURVE SMOOTH",
"284 -29 OFFCURVE",
"143 110 OFFCURVE",
"143 331 CURVE SMOOTH",
"143 573 OFFCURVE",
"313 707 OFFCURVE",
"637 707 CURVE SMOOTH",
"884 707 LINE",
"884 736 LINE",
"884 918 OFFCURVE",
"791 991 OFFCURVE",
"606 991 CURVE SMOOTH",
"475 991 OFFCURVE",
"346 954 OFFCURVE",
"225 885 CURVE",
"225 1069 LINE",
"361 1121 OFFCURVE",
"483 1147 OFFCURVE",
"606 1147 CURVE SMOOTH",
"785 1147 OFFCURVE",
"918 1092 OFFCURVE",
"999 983 CURVE SMOOTH",
"1048 916 OFFCURVE",
"1069 846 OFFCURVE",
"1069 639 CURVE SMOOTH"
);
}
);
width = 1233;
}
);
note = "\012\011aogonek\012  ";
unicode = 0105;
},
{
glyphname = aring;
lastChange = "2015-07-16 01:25:33 +0000";
layers = (
{
layerId = "A8E9A3C4-7003-4333-ABE9-545A429BAB07";
name = Regular;
paths = (
{
closed = 1;
nodes = (
"712 563 LINE",
"884 563 LINE",
"884 522 LINE SMOOTH",
"884 401 OFFCURVE",
"854 302 OFFCURVE",
"796 231 CURVE SMOOTH",
"738 160 OFFCURVE",
"657 125 OFFCURVE",
"558 125 CURVE SMOOTH",
"481 125 OFFCURVE",
"426 146 OFFCURVE",
"388 181 CURVE SMOOTH",
"349 217 OFFCURVE",
"327 268 OFFCURVE",
"327 337 CURVE SMOOTH",
"327 411 OFFCURVE",
"352 468 OFFCURVE",
"409 507 CURVE SMOOTH",
"463 544 OFFCURVE",
"544 563 OFFCURVE",
"651 563 CURVE SMOOTH"
);
},
{
closed = 1;
nodes = (
"1069 639 LINE SMOOTH",
"1069 737 OFFCURVE",
"1064 811 OFFCURVE",
"1053 860 CURVE SMOOTH",
"1044 901 OFFCURVE",
"1027 945 OFFCURVE",
"999 984 CURVE SMOOTH",
"961 1037 OFFCURVE",
"906 1077 OFFCURVE",
"840 1105 CURVE SMOOTH",
"774 1133 OFFCURVE",
"701 1147 OFFCURVE",
"605 1147 CURVE SMOOTH",
"542 1147 OFFCURVE",
"483 1141 OFFCURVE",
"421 1128 CURVE SMOOTH",
"350 1113 OFFCURVE",
"288 1093 OFFCURVE",
"225 1069 CURVE",
"225 885 LINE",
"286 920 OFFCURVE",
"348 946 OFFCURVE",
"412 964 CURVE SMOOTH",
"476 982 OFFCURVE",
"539 991 OFFCURVE",
"603 991 CURVE SMOOTH",
"698 991 OFFCURVE",
"772 971 OFFCURVE",
"816 931 CURVE SMOOTH",
"861 890 OFFCURVE",
"884 821 OFFCURVE",
"884 736 CURVE SMOOTH",
"884 707 LINE",
"637 707 LINE SMOOTH",
"475 707 OFFCURVE",
"352 675 OFFCURVE",
"269 610 CURVE SMOOTH",
"185 545 OFFCURVE",
"143 450 OFFCURVE",
"143 327 CURVE SMOOTH",
"143 210 OFFCURVE",
"181 129 OFFCURVE",
"245 68 CURVE SMOOTH",
"313 3 OFFCURVE",
"403 -29 OFFCURVE",
"520 -29 CURVE SMOOTH",
"602 -29 OFFCURVE",
"676 -13 OFFCURVE",
"736 19 CURVE SMOOTH",
"795 50 OFFCURVE",
"845 99 OFFCURVE",
"884 166 CURVE",
"902 0 LINE",
"1069 0 LINE"
);
},
{
closed = 1;
nodes = (
"901 1601 OFFCURVE",
"875 1666 OFFCURVE",
"822 1719 CURVE SMOOTH",
"769 1772 OFFCURVE",
"703 1798 OFFCURVE",
"626 1798 CURVE SMOOTH",
"549 1798 OFFCURVE",
"485 1772 OFFCURVE",
"432 1719 CURVE SMOOTH",
"379 1666 OFFCURVE",
"352 1601 OFFCURVE",
"352 1524 CURVE SMOOTH",
"352 1447 OFFCURVE",
"379 1382 OFFCURVE",
"432 1329 CURVE SMOOTH",
"485 1276 OFFCURVE",
"549 1249 OFFCURVE",
"626 1249 CURVE SMOOTH",
"703 1249 OFFCURVE",
"769 1276 OFFCURVE",
"822 1329 CURVE SMOOTH",
"875 1382 OFFCURVE",
"901 1447 OFFCURVE",
"901 1524 CURVE SMOOTH"
);
},
{
closed = 1;
nodes = (
"778 1481 OFFCURVE",
"763 1445 OFFCURVE",
"734 1416 CURVE SMOOTH",
"705 1387 OFFCURVE",
"669 1372 OFFCURVE",
"626 1372 CURVE SMOOTH",
"583 1372 OFFCURVE",
"548 1387 OFFCURVE",
"519 1416 CURVE SMOOTH",
"490 1445 OFFCURVE",
"475 1481 OFFCURVE",
"475 1524 CURVE SMOOTH",
"475 1567 OFFCURVE",
"490 1603 OFFCURVE",
"519 1632 CURVE SMOOTH",
"548 1661 OFFCURVE",
"583 1675 OFFCURVE",
"625 1675 CURVE SMOOTH",
"669 1675 OFFCURVE",
"705 1660 OFFCURVE",
"734 1631 CURVE SMOOTH",
"763 1602 OFFCURVE",
"778 1566 OFFCURVE",
"778 1524 CURVE SMOOTH"
);
}
);
width = 1233;
}
);
note = "\012\011aring\012  ";
unicode = 00E5;
},
{
glyphname = atilde;
lastChange = "2015-07-16 01:25:41 +0000";
layers = (
{
layerId = "A8E9A3C4-7003-4333-ABE9-545A429BAB07";
name = Regular;
paths = (
{
closed = 1;
nodes = (
"712 563 LINE",
"884 563 LINE",
"884 522 LINE SMOOTH",
"884 401 OFFCURVE",
"854 302 OFFCURVE",
"796 231 CURVE SMOOTH",
"738 160 OFFCURVE",
"657 125 OFFCURVE",
"558 125 CURVE SMOOTH",
"481 125 OFFCURVE",
"426 146 OFFCURVE",
"388 181 CURVE SMOOTH",
"349 217 OFFCURVE",
"327 268 OFFCURVE",
"327 337 CURVE SMOOTH",
"327 411 OFFCURVE",
"352 468 OFFCURVE",
"409 507 CURVE SMOOTH",
"463 544 OFFCURVE",
"544 563 OFFCURVE",
"651 563 CURVE SMOOTH"
);
},
{
closed = 1;
nodes = (
"1069 639 LINE SMOOTH",
"1069 737 OFFCURVE",
"1064 811 OFFCURVE",
"1053 860 CURVE SMOOTH",
"1044 901 OFFCURVE",
"1027 945 OFFCURVE",
"999 984 CURVE SMOOTH",
"961 1037 OFFCURVE",
"906 1077 OFFCURVE",
"840 1105 CURVE SMOOTH",
"774 1133 OFFCURVE",
"701 1147 OFFCURVE",
"605 1147 CURVE SMOOTH",
"542 1147 OFFCURVE",
"483 1141 OFFCURVE",
"421 1128 CURVE SMOOTH",
"350 1113 OFFCURVE",
"288 1093 OFFCURVE",
"225 1069 CURVE",
"225 885 LINE",
"286 920 OFFCURVE",
"348 946 OFFCURVE",
"412 964 CURVE SMOOTH",
"476 982 OFFCURVE",
"539 991 OFFCURVE",
"603 991 CURVE SMOOTH",
"698 991 OFFCURVE",
"772 971 OFFCURVE",
"816 931 CURVE SMOOTH",
"861 890 OFFCURVE",
"884 821 OFFCURVE",
"884 736 CURVE SMOOTH",
"884 707 LINE",
"637 707 LINE SMOOTH",
"475 707 OFFCURVE",
"352 675 OFFCURVE",
"269 610 CURVE SMOOTH",
"185 545 OFFCURVE",
"143 450 OFFCURVE",
"143 327 CURVE SMOOTH",
"143 210 OFFCURVE",
"181 129 OFFCURVE",
"245 68 CURVE SMOOTH",
"313 3 OFFCURVE",
"403 -29 OFFCURVE",
"520 -29 CURVE SMOOTH",
"602 -29 OFFCURVE",
"676 -13 OFFCURVE",
"736 19 CURVE SMOOTH",
"795 50 OFFCURVE",
"845 99 OFFCURVE",
"884 166 CURVE",
"902 0 LINE",
"1069 0 LINE"
);
},
{
closed = 1;
nodes = (
"622 1370 LINE",
"647 1348 OFFCURVE",
"670 1332 OFFCURVE",
"691 1323 CURVE SMOOTH",
"712 1314 OFFCURVE",
"736 1309 OFFCURVE",
"763 1309 CURVE SMOOTH",
"823 1309 OFFCURVE",
"870 1334 OFFCURVE",
"904 1383 CURVE SMOOTH",
"938 1432 OFFCURVE",
"955 1502 OFFCURVE",
"956 1591 CURVE",
"831 1591 LINE",
"830 1537 OFFCURVE",
"824 1498 OFFCURVE",
"812 1473 CURVE SMOOTH",
"800 1448 OFFCURVE",
"780 1436 OFFCURVE",
"756 1436 CURVE SMOOTH",
"746 1436 OFFCURVE",
"739 1438 OFFCURVE",
"726 1446 CURVE SMOOTH",
"718 1451 OFFCURVE",
"702 1462 OFFCURVE",
"688 1475 CURVE SMOOTH",
"631 1530 LINE",
"606 1552 OFFCURVE",
"583 1568 OFFCURVE",
"562 1577 CURVE SMOOTH",
"541 1586 OFFCURVE",
"517 1591 OFFCURVE",
"490 1591 CURVE SMOOTH",
"430 1591 OFFCURVE",
"383 1566 OFFCURVE",
"349 1517 CURVE SMOOTH",
"315 1468 OFFCURVE",
"298 1398 OFFCURVE",
"297 1309 CURVE",
"421 1309 LINE",
"422 1363 OFFCURVE",
"429 1402 OFFCURVE",
"441 1427 CURVE SMOOTH",
"453 1452 OFFCURVE",
"472 1464 OFFCURVE",
"497 1464 CURVE SMOOTH",
"507 1464 OFFCURVE",
"515 1462 OFFCURVE",
"527 1455 CURVE SMOOTH",
"535 1450 OFFCURVE",
"548 1441 OFFCURVE",
"565 1425 CURVE SMOOTH"
);
}
);
width = 1233;
}
);
note = "\012\011atilde\012  ";
unicode = 00E3;
},
{
glyphname = ae;
layers = (
{
layerId = "A8E9A3C4-7003-4333-ABE9-545A429BAB07";
name = Regular;
paths = (
{
closed = 1;
nodes = (
"543 442 LINE SMOOTH",
"543 307 OFFCURVE",
"529 234 OFFCURVE",
"506 192 CURVE SMOOTH",
"481 147 OFFCURVE",
"439 125 OFFCURVE",
"375 125 CURVE SMOOTH",
"323 125 OFFCURVE",
"281 140 OFFCURVE",
"250 174 CURVE SMOOTH",
"220 206 OFFCURVE",
"205 251 OFFCURVE",
"205 313 CURVE SMOOTH",
"205 385 OFFCURVE",
"225 439 OFFCURVE",
"265 469 CURVE SMOOTH",
"305 499 OFFCURVE",
"381 514 OFFCURVE",
"494 514 CURVE SMOOTH",
"543 514 LINE"
);
},
{
closed = 1;
nodes = (
"1036 657 LINE",
"709 657 LINE",
"709 700 LINE SMOOTH",
"709 805 OFFCURVE",
"722 880 OFFCURVE",
"747 925 CURVE SMOOTH",
"772 970 OFFCURVE",
"814 993 OFFCURVE",
"872 993 CURVE SMOOTH",
"934 993 OFFCURVE",
"975 967 OFFCURVE",
"998 927 CURVE SMOOTH",
"1022 885 OFFCURVE",
"1036 812 OFFCURVE",
"1036 709 CURVE SMOOTH"
);
},
{
closed = 1;
nodes = (
"1200 514 LINE",
"1200 604 LINE SMOOTH",
"1200 808 OFFCURVE",
"1176 950 OFFCURVE",
"1128 1029 CURVE SMOOTH",
"1080 1108 OFFCURVE",
"995 1147 OFFCURVE",
"882 1147 CURVE SMOOTH",
"822 1147 OFFCURVE",
"770 1136 OFFCURVE",
"726 1114 CURVE SMOOTH",
"682 1092 OFFCURVE",
"649 1061 OFFCURVE",
"627 1020 CURVE",
"602 1063 OFFCURVE",
"569 1095 OFFCURVE",
"528 1116 CURVE SMOOTH",
"487 1137 OFFCURVE",
"435 1147 OFFCURVE",
"376 1147 CURVE SMOOTH",
"334 1147 OFFCURVE",
"293 1142 OFFCURVE",
"249 1131 CURVE SMOOTH",
"205 1120 OFFCURVE",
"157 1102 OFFCURVE",
"106 1079 CURVE",
"106 911 LINE",
"147 937 OFFCURVE",
"194 959 OFFCURVE",
"234 972 CURVE SMOOTH",
"273 985 OFFCURVE",
"319 993 OFFCURVE",
"357 993 CURVE SMOOTH",
"419 993 OFFCURVE",
"467 972 OFFCURVE",
"500 929 CURVE SMOOTH",
"533 886 OFFCURVE",
"549 825 OFFCURVE",
"549 745 CURVE SMOOTH",
"549 657 LINE",
"432 657 LINE SMOOTH",
"305 657 OFFCURVE",
"208 627 OFFCURVE",
"141 568 CURVE SMOOTH",
"71 506 OFFCURVE",
"41 416 OFFCURVE",
"41 304 CURVE SMOOTH",
"41 202 OFFCURVE",
"66 117 OFFCURVE",
"123 57 CURVE SMOOTH",
"177 0 OFFCURVE",
"257 -29 OFFCURVE",
"358 -29 CURVE SMOOTH",
"426 -29 OFFCURVE",
"479 -16 OFFCURVE",
"524 11 CURVE SMOOTH",
"568 38 OFFCURVE",
"603 78 OFFCURVE",
"629 131 CURVE",
"650 79 OFFCURVE",
"686 39 OFFCURVE",
"736 12 CURVE SMOOTH",
"785 -15 OFFCURVE",
"849 -29 OFFCURVE",
"917 -29 CURVE SMOOTH",
"969 -29 OFFCURVE",
"1018 -21 OFFCURVE",
"1057 -8 CURVE SMOOTH",
"1096 5 OFFCURVE",
"1140 27 OFFCURVE",
"1178 55 CURVE",
"1178 227 LINE",
"1145 193 OFFCURVE",
"1107 168 OFFCURVE",
"1064 151 CURVE SMOOTH",
"1021 134 OFFCURVE",
"972 125 OFFCURVE",
"923 125 CURVE SMOOTH",
"849 125 OFFCURVE",
"794 146 OFFCURVE",
"758 196 CURVE SMOOTH",
"726 241 OFFCURVE",
"707 313 OFFCURVE",
"707 443 CURVE SMOOTH",
"707 473 OFFCURVE",
"708 478 OFFCURVE",
"708 482 CURVE SMOOTH",
"708 493 OFFCURVE",
"708 504 OFFCURVE",
"709 514 CURVE"
);
}
);
width = 1233;
}
);
note = "\012\011ae\012  ";
unicode = 00E6;
},
{
glyphname = b;
layers = (
{
layerId = "A8E9A3C4-7003-4333-ABE9-545A429BAB07";
name = Regular;
paths = (
{
closed = 1;
nodes = (
"918 416 OFFCURVE",
"895 309 OFFCURVE",
"850 236 CURVE SMOOTH",
"805 163 OFFCURVE",
"738 127 OFFCURVE",
"650 127 CURVE SMOOTH",
"560 127 OFFCURVE",
"492 164 OFFCURVE",
"446 237 CURVE SMOOTH",
"400 310 OFFCURVE",
"377 418 OFFCURVE",
"377 559 CURVE SMOOTH",
"377 701 OFFCURVE",
"400 809 OFFCURVE",
"446 882 CURVE SMOOTH",
"492 955 OFFCURVE",
"560 991 OFFCURVE",
"649 991 CURVE SMOOTH",
"738 991 OFFCURVE",
"805 955 OFFCURVE",
"850 882 CURVE SMOOTH",
"895 809 OFFCURVE",
"918 702 OFFCURVE",
"918 559 CURVE SMOOTH"
);
},
{
closed = 1;
nodes = (
"377 1556 LINE",
"193 1556 LINE",
"193 0 LINE",
"359 0 LINE",
"377 141 LINE",
"408 86 OFFCURVE",
"448 45 OFFCURVE",
"500 15 CURVE SMOOTH",
"554 -16 OFFCURVE",
"609 -29 OFFCURVE",
"676 -29 CURVE SMOOTH",
"813 -29 OFFCURVE",
"920 26 OFFCURVE",
"996 129 CURVE SMOOTH",
"1073 234 OFFCURVE",
"1112 380 OFFCURVE",
"1112 561 CURVE SMOOTH",
"1112 741 OFFCURVE",
"1073 890 OFFCURVE",
"996 993 CURVE SMOOTH",
"918 1097 OFFCURVE",
"807 1147 OFFCURVE",
"680 1147 CURVE SMOOTH",
"610 1147 OFFCURVE",
"550 1132 OFFCURVE",
"499 1103 CURVE SMOOTH",
"447 1074 OFFCURVE",
"406 1032 OFFCURVE",
"377 977 CURVE"
);
}
);
width = 1233;
}
);
note = "\012\011b\012  ";
unicode = 0062;
},
{
glyphname = c;
layers = (
{
layerId = "A8E9A3C4-7003-4333-ABE9-545A429BAB07";
name = Regular;
paths = (
{
closed = 1;
nodes = (
"1030 248 LINE",
"989 210 OFFCURVE",
"949 180 OFFCURVE",
"889 157 CURVE SMOOTH",
"842 139 OFFCURVE",
"787 127 OFFCURVE",
"721 127 CURVE SMOOTH",
"605 127 OFFCURVE",
"514 164 OFFCURVE",
"451 240 CURVE SMOOTH",
"385 320 OFFCURVE",
"358 433 OFFCURVE",
"358 560 CURVE SMOOTH",
"358 697 OFFCURVE",
"389 804 OFFCURVE",
"451 879 CURVE SMOOTH",
"513 954 OFFCURVE",
"602 991 OFFCURVE",
"718 991 CURVE SMOOTH",
"779 991 OFFCURVE",
"835 981 OFFCURVE",
"884 962 CURVE SMOOTH",
"933 943 OFFCURVE",
"981 911 OFFCURVE",
"1030 868 CURVE",
"1030 1061 LINE",
"978 1090 OFFCURVE",
"926 1112 OFFCURVE",
"875 1126 CURVE SMOOTH",
"824 1140 OFFCURVE",
"774 1147 OFFCURVE",
"713 1147 CURVE SMOOTH",
"548 1147 OFFCURVE",
"409 1095 OFFCURVE",
"311 992 CURVE SMOOTH",
"218 894 OFFCURVE",
"164 748 OFFCURVE",
"164 559 CURVE SMOOTH",
"164 378 OFFCURVE",
"213 231 OFFCURVE",
"310 127 CURVE SMOOTH",
"406 25 OFFCURVE",
"546 -29 OFFCURVE",
"712 -29 CURVE SMOOTH",
"776 -29 OFFCURVE",
"831 -21 OFFCURVE",
"878 -8 CURVE SMOOTH",
"928 6 OFFCURVE",
"985 30 OFFCURVE",
"1030 57 CURVE"
);
}
);
width = 1233;
}
);
note = "\012\011c\012  ";
unicode = 0063;
},
{
glyphname = cacute;
lastChange = "2015-07-16 01:30:56 +0000";
layers = (
{
layerId = "A8E9A3C4-7003-4333-ABE9-545A429BAB07";
name = Regular;
paths = (
{
closed = 1;
nodes = (
"1030 248 LINE",
"989 210 OFFCURVE",
"949 180 OFFCURVE",
"889 157 CURVE SMOOTH",
"842 139 OFFCURVE",
"787 127 OFFCURVE",
"721 127 CURVE SMOOTH",
"605 127 OFFCURVE",
"514 164 OFFCURVE",
"451 240 CURVE SMOOTH",
"385 320 OFFCURVE",
"358 433 OFFCURVE",
"358 560 CURVE SMOOTH",
"358 697 OFFCURVE",
"389 804 OFFCURVE",
"451 879 CURVE SMOOTH",
"513 954 OFFCURVE",
"602 991 OFFCURVE",
"718 991 CURVE SMOOTH",
"779 991 OFFCURVE",
"835 981 OFFCURVE",
"884 962 CURVE SMOOTH",
"933 943 OFFCURVE",
"981 911 OFFCURVE",
"1030 868 CURVE",
"1030 1061 LINE",
"978 1090 OFFCURVE",
"926 1112 OFFCURVE",
"875 1126 CURVE SMOOTH",
"824 1140 OFFCURVE",
"774 1147 OFFCURVE",
"713 1147 CURVE SMOOTH",
"548 1147 OFFCURVE",
"409 1095 OFFCURVE",
"311 992 CURVE SMOOTH",
"218 894 OFFCURVE",
"164 748 OFFCURVE",
"164 559 CURVE SMOOTH",
"164 377 OFFCURVE",
"214 229 OFFCURVE",
"310 127 CURVE SMOOTH",
"406 25 OFFCURVE",
"546 -29 OFFCURVE",
"712 -29 CURVE SMOOTH",
"776 -29 OFFCURVE",
"831 -21 OFFCURVE",
"878 -8 CURVE SMOOTH",
"928 6 OFFCURVE",
"985 30 OFFCURVE",
"1030 57 CURVE"
);
},
{
closed = 1;
nodes = (
"815 1638 LINE",
"534 1262 LINE",
"688 1262 LINE",
"1013 1638 LINE"
);
}
);
width = 1233;
}
);
note = "\012\011cacute\012  ";
unicode = 0107;
},
{
glyphname = ccaron;
lastChange = "2015-07-16 01:30:47 +0000";
layers = (
{
layerId = "A8E9A3C4-7003-4333-ABE9-545A429BAB07";
name = Regular;
paths = (
{
closed = 1;
nodes = (
"1030 248 LINE",
"989 210 OFFCURVE",
"949 180 OFFCURVE",
"889 157 CURVE SMOOTH",
"842 139 OFFCURVE",
"787 127 OFFCURVE",
"721 127 CURVE SMOOTH",
"605 127 OFFCURVE",
"514 164 OFFCURVE",
"451 240 CURVE SMOOTH",
"385 320 OFFCURVE",
"358 433 OFFCURVE",
"358 560 CURVE SMOOTH",
"358 697 OFFCURVE",
"389 804 OFFCURVE",
"451 879 CURVE SMOOTH",
"513 954 OFFCURVE",
"602 991 OFFCURVE",
"718 991 CURVE SMOOTH",
"779 991 OFFCURVE",
"835 981 OFFCURVE",
"884 962 CURVE SMOOTH",
"933 943 OFFCURVE",
"981 911 OFFCURVE",
"1030 868 CURVE",
"1030 1061 LINE",
"978 1090 OFFCURVE",
"926 1112 OFFCURVE",
"875 1126 CURVE SMOOTH",
"824 1140 OFFCURVE",
"774 1147 OFFCURVE",
"713 1147 CURVE SMOOTH",
"548 1147 OFFCURVE",
"409 1095 OFFCURVE",
"311 992 CURVE SMOOTH",
"218 894 OFFCURVE",
"164 748 OFFCURVE",
"164 559 CURVE SMOOTH",
"164 377 OFFCURVE",
"214 229 OFFCURVE",
"310 127 CURVE SMOOTH",
"406 25 OFFCURVE",
"546 -29 OFFCURVE",
"712 -29 CURVE SMOOTH",
"776 -29 OFFCURVE",
"831 -21 OFFCURVE",
"878 -8 CURVE SMOOTH",
"928 6 OFFCURVE",
"985 30 OFFCURVE",
"1030 57 CURVE"
);
},
{
closed = 1;
nodes = (
"602 1262 LINE",
"749 1262 LINE",
"995 1638 LINE",
"856 1638 LINE",
"675 1393 LINE",
"495 1638 LINE",
"356 1638 LINE"
);
}
);
width = 1233;
}
);
note = "\012\011ccaron\012  ";
unicode = 010D;
},
{
glyphname = ccedilla;
lastChange = "2015-07-16 01:30:40 +0000";
layers = (
{
layerId = "A8E9A3C4-7003-4333-ABE9-545A429BAB07";
name = Regular;
paths = (
{
closed = 1;
nodes = (
"1030 248 LINE",
"989 210 OFFCURVE",
"949 180 OFFCURVE",
"889 157 CURVE SMOOTH",
"842 139 OFFCURVE",
"787 127 OFFCURVE",
"721 127 CURVE SMOOTH",
"605 127 OFFCURVE",
"514 164 OFFCURVE",
"451 240 CURVE SMOOTH",
"385 320 OFFCURVE",
"358 433 OFFCURVE",
"358 560 CURVE SMOOTH",
"358 697 OFFCURVE",
"389 804 OFFCURVE",
"451 879 CURVE SMOOTH",
"513 954 OFFCURVE",
"602 991 OFFCURVE",
"718 991 CURVE SMOOTH",
"779 991 OFFCURVE",
"835 981 OFFCURVE",
"884 962 CURVE SMOOTH",
"933 943 OFFCURVE",
"981 911 OFFCURVE",
"1030 868 CURVE",
"1030 1061 LINE",
"978 1090 OFFCURVE",
"926 1112 OFFCURVE",
"875 1126 CURVE SMOOTH",
"824 1140 OFFCURVE",
"774 1147 OFFCURVE",
"713 1147 CURVE SMOOTH",
"548 1147 OFFCURVE",
"409 1095 OFFCURVE",
"311 992 CURVE SMOOTH",
"218 894 OFFCURVE",
"164 748 OFFCURVE",
"164 559 CURVE SMOOTH",
"164 377 OFFCURVE",
"214 229 OFFCURVE",
"310 127 CURVE SMOOTH",
"406 25 OFFCURVE",
"546 -29 OFFCURVE",
"712 -29 CURVE SMOOTH",
"776 -29 OFFCURVE",
"831 -21 OFFCURVE",
"878 -8 CURVE SMOOTH",
"928 6 OFFCURVE",
"985 30 OFFCURVE",
"1030 57 CURVE"
);
},
{
closed = 1;
nodes = (
"655 0 LINE",
"684 -41 OFFCURVE",
"706 -76 OFFCURVE",
"721 -105 CURVE SMOOTH",
"736 -134 OFFCURVE",
"743 -157 OFFCURVE",
"743 -180 CURVE SMOOTH",
"743 -208 OFFCURVE",
"733 -232 OFFCURVE",
"713 -248 CURVE SMOOTH",
"692 -265 OFFCURVE",
"661 -272 OFFCURVE",
"619 -272 CURVE SMOOTH",
"596 -272 OFFCURVE",
"565 -270 OFFCURVE",
"540 -265 CURVE SMOOTH",
"515 -260 OFFCURVE",
"491 -251 OFFCURVE",
"468 -240 CURVE",
"468 -371 LINE",
"497 -379 OFFCURVE",
"527 -385 OFFCURVE",
"556 -389 CURVE SMOOTH",
"585 -393 OFFCURVE",
"614 -395 OFFCURVE",
"643 -395 CURVE SMOOTH",
"725 -395 OFFCURVE",
"784 -379 OFFCURVE",
"822 -350 CURVE SMOOTH",
"862 -319 OFFCURVE",
"882 -272 OFFCURVE",
"882 -219 CURVE SMOOTH",
"882 -179 OFFCURVE",
"871 -145 OFFCURVE",
"856 -115 CURVE SMOOTH",
"838 -80 OFFCURVE",
"810 -41 OFFCURVE",
"773 0 CURVE"
);
}
);
width = 1233;
}
);
note = "\012\011ccedilla\012  ";
unicode = 00E7;
},
{
glyphname = cdotaccent;
lastChange = "2015-07-16 01:26:49 +0000";
layers = (
{
layerId = "A8E9A3C4-7003-4333-ABE9-545A429BAB07";
name = Regular;
paths = (
{
closed = 1;
nodes = (
"557 1552 LINE",
"762 1552 LINE",
"762 1348 LINE",
"557 1348 LINE"
);
},
{
closed = 1;
nodes = (
"1030 57 LINE",
"931 0 OFFCURVE",
"826 -29 OFFCURVE",
"717 -29 CURVE SMOOTH",
"370 -29 OFFCURVE",
"164 191 OFFCURVE",
"164 559 CURVE SMOOTH",
"164 927 OFFCURVE",
"370 1147 OFFCURVE",
"717 1147 CURVE SMOOTH",
"825 1147 OFFCURVE",
"926 1120 OFFCURVE",
"1030 1061 CURVE",
"1030 868 LINE",
"933 955 OFFCURVE",
"841 991 OFFCURVE",
"717 991 CURVE SMOOTH",
"486 991 OFFCURVE",
"358 836 OFFCURVE",
"358 559 CURVE SMOOTH",
"358 283 OFFCURVE",
"488 127 OFFCURVE",
"717 127 CURVE SMOOTH",
"845 127 OFFCURVE",
"943 165 OFFCURVE",
"1030 248 CURVE"
);
}
);
width = 1233;
}
);
note = "\012\011cdotaccent\012  ";
unicode = 010B;
},
{
glyphname = d;
layers = (
{
layerId = "A8E9A3C4-7003-4333-ABE9-545A429BAB07";
name = Regular;
paths = (
{
closed = 1;
nodes = (
"858 977 LINE",
"829 1032 OFFCURVE",
"788 1075 OFFCURVE",
"737 1104 CURVE SMOOTH",
"686 1133 OFFCURVE",
"627 1147 OFFCURVE",
"559 1147 CURVE SMOOTH",
"430 1147 OFFCURVE",
"317 1096 OFFCURVE",
"239 992 CURVE SMOOTH",
"161 888 OFFCURVE",
"123 738 OFFCURVE",
"123 562 CURVE SMOOTH",
"123 383 OFFCURVE",
"162 234 OFFCURVE",
"239 129 CURVE SMOOTH",
"311 31 OFFCURVE",
"418 -29 OFFCURVE",
"559 -29 CURVE SMOOTH",
"627 -29 OFFCURVE",
"684 -15 OFFCURVE",
"736 15 CURVE SMOOTH",
"790 46 OFFCURVE",
"828 88 OFFCURVE",
"858 141 CURVE",
"876 0 LINE",
"1042 0 LINE",
"1042 1556 LINE",
"858 1556 LINE"
);
},
{
closed = 1;
nodes = (
"317 702 OFFCURVE",
"340 809 OFFCURVE",
"385 882 CURVE SMOOTH",
"430 955 OFFCURVE",
"497 991 OFFCURVE",
"586 991 CURVE SMOOTH",
"680 991 OFFCURVE",
"746 950 OFFCURVE",
"789 882 CURVE SMOOTH",
"835 809 OFFCURVE",
"858 701 OFFCURVE",
"858 559 CURVE SMOOTH",
"858 418 OFFCURVE",
"835 310 OFFCURVE",
"789 237 CURVE SMOOTH",
"743 164 OFFCURVE",
"674 127 OFFCURVE",
"585 127 CURVE SMOOTH",
"501 127 OFFCURVE",
"432 160 OFFCURVE",
"385 236 CURVE SMOOTH",
"340 309 OFFCURVE",
"317 416 OFFCURVE",
"317 559 CURVE SMOOTH"
);
}
);
width = 1233;
}
);
note = "\012\011d\012  ";
unicode = 0064;
},
{
glyphname = eth;
lastChange = "2015-07-16 01:31:24 +0000";
layers = (
{
layerId = "A8E9A3C4-7003-4333-ABE9-545A429BAB07";
name = Regular;
paths = (
{
closed = 1;
nodes = (
"967 1407 LINE",
"934 1505 LINE",
"645 1411 LINE",
"518 1556 LINE",
"299 1556 LINE",
"481 1356 LINE",
"244 1276 LINE",
"274 1178 LINE",
"553 1270 LINE",
"578 1241 OFFCURVE",
"603 1212 OFFCURVE",
"627 1182 CURVE SMOOTH",
"653 1150 OFFCURVE",
"688 1103 OFFCURVE",
"696 1092 CURVE",
"674 1094 OFFCURVE",
"693 1093 OFFCURVE",
"663 1095 CURVE SMOOTH",
"659 1095 OFFCURVE",
"655 1096 OFFCURVE",
"631 1096 CURVE SMOOTH",
"464 1096 OFFCURVE",
"344 1047 OFFCURVE",
"262 949 CURVE SMOOTH",
"180 851 OFFCURVE",
"137 708 OFFCURVE",
"137 533 CURVE SMOOTH",
"137 360 OFFCURVE",
"179 218 OFFCURVE",
"262 119 CURVE SMOOTH",
"344 22 OFFCURVE",
"463 -29 OFFCURVE",
"617 -29 CURVE SMOOTH",
"765 -29 OFFCURVE",
"886 18 OFFCURVE",
"971 119 CURVE SMOOTH",
"1054 218 OFFCURVE",
"1096 359 OFFCURVE",
"1096 528 CURVE SMOOTH",
"1096 671 OFFCURVE",
"1066 798 OFFCURVE",
"1005 925 CURVE SMOOTH",
"944 1052 OFFCURVE",
"848 1186 OFFCURVE",
"717 1327 CURVE"
);
},
{
closed = 1;
nodes = (
"826 871 OFFCURVE",
"853 814 OFFCURVE",
"872 747 CURVE SMOOTH",
"891 679 OFFCURVE",
"901 610 OFFCURVE",
"901 531 CURVE SMOOTH",
"901 406 OFFCURVE",
"876 304 OFFCURVE",
"827 233 CURVE SMOOTH",
"778 162 OFFCURVE",
"707 127 OFFCURVE",
"616 127 CURVE SMOOTH",
"525 127 OFFCURVE",
"455 162 OFFCURVE",
"406 233 CURVE SMOOTH",
"357 304 OFFCURVE",
"332 405 OFFCURVE",
"332 534 CURVE SMOOTH",
"332 662 OFFCURVE",
"357 769 OFFCURVE",
"409 840 CURVE SMOOTH",
"461 911 OFFCURVE",
"541 944 OFFCURVE",
"638 944 CURVE SMOOTH",
"662 944 OFFCURVE",
"690 942 OFFCURVE",
"717 938 CURVE SMOOTH",
"735 935 OFFCURVE",
"771 927 OFFCURVE",
"793 918 CURVE"
);
}
);
width = 1233;
}
);
note = "\012\011eth\012  ";
unicode = 00F0;
},
{
glyphname = dcaron;
lastChange = "2015-07-16 01:32:53 +0000";
layers = (
{
layerId = "A8E9A3C4-7003-4333-ABE9-545A429BAB07";
name = Regular;
paths = (
{
closed = 1;
nodes = (
"1114 1557 LINE",
"1312 1557 LINE",
"1199 1181 LINE",
"1045 1181 LINE"
);
},
{
closed = 1;
nodes = (
"858 1556 LINE",
"1042 1556 LINE",
"1042 0 LINE",
"858 0 LINE",
"858 141 LINE",
"797 30 OFFCURVE",
"693 -29 OFFCURVE",
"556 -29 CURVE SMOOTH",
"290 -29 OFFCURVE",
"123 194 OFFCURVE",
"123 561 CURVE SMOOTH",
"123 927 OFFCURVE",
"290 1147 OFFCURVE",
"557 1147 CURVE SMOOTH",
"695 1147 OFFCURVE",
"799 1088 OFFCURVE",
"858 977 CURVE"
);
},
{
closed = 1;
nodes = (
"317 274 OFFCURVE",
"409 127 OFFCURVE",
"586 127 CURVE SMOOTH",
"763 127 OFFCURVE",
"858 276 OFFCURVE",
"858 559 CURVE SMOOTH",
"858 843 OFFCURVE",
"763 991 OFFCURVE",
"586 991 CURVE SMOOTH",
"409 991 OFFCURVE",
"317 844 OFFCURVE",
"317 559 CURVE SMOOTH"
);
}
);
width = 1233;
}
);
note = "\012\011dcaron\012  ";
unicode = 010F;
},
{
glyphname = dcroat;
layers = (
{
layerId = "A8E9A3C4-7003-4333-ABE9-545A429BAB07";
name = Regular;
paths = (
{
closed = 1;
nodes = (
"858 977 LINE",
"829 1032 OFFCURVE",
"788 1075 OFFCURVE",
"737 1104 CURVE SMOOTH",
"686 1133 OFFCURVE",
"627 1147 OFFCURVE",
"559 1147 CURVE SMOOTH",
"430 1147 OFFCURVE",
"317 1096 OFFCURVE",
"239 992 CURVE SMOOTH",
"161 888 OFFCURVE",
"123 738 OFFCURVE",
"123 562 CURVE SMOOTH",
"123 383 OFFCURVE",
"162 234 OFFCURVE",
"239 129 CURVE SMOOTH",
"311 31 OFFCURVE",
"418 -29 OFFCURVE",
"559 -29 CURVE SMOOTH",
"627 -29 OFFCURVE",
"684 -15 OFFCURVE",
"736 15 CURVE SMOOTH",
"790 46 OFFCURVE",
"828 88 OFFCURVE",
"858 141 CURVE",
"876 0 LINE",
"1042 0 LINE",
"1042 1286 LINE",
"1233 1286 LINE",
"1233 1407 LINE",
"1042 1407 LINE",
"1042 1556 LINE",
"858 1556 LINE",
"858 1407 LINE",
"553 1407 LINE",
"553 1286 LINE",
"858 1286 LINE"
);
},
{
closed = 1;
nodes = (
"317 702 OFFCURVE",
"340 809 OFFCURVE",
"385 882 CURVE SMOOTH",
"430 955 OFFCURVE",
"497 991 OFFCURVE",
"586 991 CURVE SMOOTH",
"680 991 OFFCURVE",
"746 950 OFFCURVE",
"789 882 CURVE SMOOTH",
"835 809 OFFCURVE",
"858 701 OFFCURVE",
"858 559 CURVE SMOOTH",
"858 418 OFFCURVE",
"835 310 OFFCURVE",
"789 237 CURVE SMOOTH",
"743 164 OFFCURVE",
"674 127 OFFCURVE",
"585 127 CURVE SMOOTH",
"501 127 OFFCURVE",
"432 160 OFFCURVE",
"385 236 CURVE SMOOTH",
"340 309 OFFCURVE",
"317 416 OFFCURVE",
"317 559 CURVE SMOOTH"
);
}
);
width = 1233;
}
);
note = "\012\011dcroat\012  ";
unicode = 0111;
},
{
glyphname = e;
layers = (
{
layerId = "A8E9A3C4-7003-4333-ABE9-545A429BAB07";
name = Regular;
paths = (
{
closed = 1;
nodes = (
"1112 606 LINE SMOOTH",
"1112 775 OFFCURVE",
"1068 910 OFFCURVE",
"989 1003 CURVE SMOOTH",
"910 1096 OFFCURVE",
"796 1147 OFFCURVE",
"648 1147 CURVE SMOOTH",
"498 1147 OFFCURVE",
"363 1095 OFFCURVE",
"266 987 CURVE SMOOTH",
"177 888 OFFCURVE",
"123 745 OFFCURVE",
"123 558 CURVE SMOOTH",
"123 377 OFFCURVE",
"174 229 OFFCURVE",
"270 127 CURVE SMOOTH",
"366 25 OFFCURVE",
"505 -29 OFFCURVE",
"676 -29 CURVE SMOOTH",
"738 -29 OFFCURVE",
"804 -22 OFFCURVE",
"867 -8 CURVE SMOOTH",
"932 7 OFFCURVE",
"999 28 OFFCURVE",
"1069 57 CURVE",
"1069 240 LINE",
"996 202 OFFCURVE",
"928 174 OFFCURVE",
"864 155 CURVE SMOOTH",
"800 136 OFFCURVE",
"739 127 OFFCURVE",
"679 127 CURVE SMOOTH",
"558 127 OFFCURVE",
"472 163 OFFCURVE",
"411 227 CURVE SMOOTH",
"347 294 OFFCURVE",
"315 388 OFFCURVE",
"315 510 CURVE SMOOTH",
"315 516 LINE",
"1112 516 LINE"
);
},
{
closed = 1;
nodes = (
"322 659 LINE",
"333 763 OFFCURVE",
"367 844 OFFCURVE",
"424 903 CURVE SMOOTH",
"481 962 OFFCURVE",
"554 991 OFFCURVE",
"644 991 CURVE SMOOTH",
"732 991 OFFCURVE",
"804 963 OFFCURVE",
"852 907 CURVE SMOOTH",
"896 856 OFFCURVE",
"925 774 OFFCURVE",
"928 660 CURVE"
);
}
);
width = 1233;
}
);
note = "\012\011e\012  ";
unicode = 0065;
},
{
glyphname = eacute;
lastChange = "2015-07-16 01:33:22 +0000";
layers = (
{
layerId = "A8E9A3C4-7003-4333-ABE9-545A429BAB07";
name = Regular;
paths = (
{
closed = 1;
nodes = (
"1112 606 LINE SMOOTH",
"1112 775 OFFCURVE",
"1068 910 OFFCURVE",
"989 1003 CURVE SMOOTH",
"910 1096 OFFCURVE",
"796 1147 OFFCURVE",
"648 1147 CURVE SMOOTH",
"498 1147 OFFCURVE",
"363 1095 OFFCURVE",
"266 987 CURVE SMOOTH",
"177 888 OFFCURVE",
"123 745 OFFCURVE",
"123 558 CURVE SMOOTH",
"123 377 OFFCURVE",
"174 229 OFFCURVE",
"270 127 CURVE SMOOTH",
"366 25 OFFCURVE",
"505 -29 OFFCURVE",
"676 -29 CURVE SMOOTH",
"738 -29 OFFCURVE",
"804 -22 OFFCURVE",
"867 -8 CURVE SMOOTH",
"921 4 OFFCURVE",
"999 28 OFFCURVE",
"1069 57 CURVE",
"1069 240 LINE",
"996 202 OFFCURVE",
"928 174 OFFCURVE",
"864 155 CURVE SMOOTH",
"800 136 OFFCURVE",
"739 127 OFFCURVE",
"679 127 CURVE SMOOTH",
"558 127 OFFCURVE",
"472 163 OFFCURVE",
"411 227 CURVE SMOOTH",
"347 294 OFFCURVE",
"315 388 OFFCURVE",
"315 510 CURVE SMOOTH",
"315 516 LINE",
"1112 516 LINE"
);
},
{
closed = 1;
nodes = (
"322 659 LINE",
"333 763 OFFCURVE",
"367 844 OFFCURVE",
"424 903 CURVE SMOOTH",
"481 962 OFFCURVE",
"554 991 OFFCURVE",
"644 991 CURVE SMOOTH",
"732 991 OFFCURVE",
"804 963 OFFCURVE",
"852 907 CURVE SMOOTH",
"896 856 OFFCURVE",
"925 774 OFFCURVE",
"928 660 CURVE"
);
},
{
closed = 1;
nodes = (
"770 1638 LINE",
"489 1262 LINE",
"643 1262 LINE",
"968 1638 LINE"
);
}
);
width = 1233;
}
);
note = "\012\011eacute\012  ";
unicode = 00E9;
},
{
glyphname = ecaron;
lastChange = "2015-07-16 01:33:30 +0000";
layers = (
{
layerId = "A8E9A3C4-7003-4333-ABE9-545A429BAB07";
name = Regular;
paths = (
{
closed = 1;
nodes = (
"1112 516 LINE",
"315 516 LINE",
"315 510 LINE SMOOTH",
"315 266 OFFCURVE",
"449 127 OFFCURVE",
"679 127 CURVE SMOOTH",
"798 127 OFFCURVE",
"924 164 OFFCURVE",
"1069 240 CURVE",
"1069 57 LINE",
"929 0 OFFCURVE",
"800 -29 OFFCURVE",
"676 -29 CURVE SMOOTH",
"330 -29 OFFCURVE",
"123 195 OFFCURVE",
"123 555 CURVE SMOOTH",
"123 916 OFFCURVE",
"332 1147 OFFCURVE",
"644 1147 CURVE SMOOTH",
"939 1147 OFFCURVE",
"1112 941 OFFCURVE",
"1112 606 CURVE SMOOTH"
);
},
{
closed = 1;
nodes = (
"928 660 LINE",
"924 869 OFFCURVE",
"827 991 OFFCURVE",
"646 991 CURVE SMOOTH",
"466 991 OFFCURVE",
"344 870 OFFCURVE",
"322 659 CURVE"
);
},
{
closed = 1;
nodes = (
"578 1257 LINE",
"332 1633 LINE",
"471 1633 LINE",
"651 1388 LINE",
"832 1633 LINE",
"971 1633 LINE",
"725 1257 LINE"
);
}
);
width = 1233;
}
);
note = "\012\011ecaron\012  ";
unicode = 011B;
},
{
glyphname = ecircumflex;
lastChange = "2015-07-16 01:33:38 +0000";
layers = (
{
layerId = "A8E9A3C4-7003-4333-ABE9-545A429BAB07";
name = Regular;
paths = (
{
closed = 1;
nodes = (
"1112 606 LINE SMOOTH",
"1112 775 OFFCURVE",
"1068 910 OFFCURVE",
"989 1003 CURVE SMOOTH",
"910 1096 OFFCURVE",
"796 1147 OFFCURVE",
"648 1147 CURVE SMOOTH",
"498 1147 OFFCURVE",
"363 1095 OFFCURVE",
"266 987 CURVE SMOOTH",
"177 888 OFFCURVE",
"123 745 OFFCURVE",
"123 558 CURVE SMOOTH",
"123 377 OFFCURVE",
"174 229 OFFCURVE",
"270 127 CURVE SMOOTH",
"366 25 OFFCURVE",
"505 -29 OFFCURVE",
"676 -29 CURVE SMOOTH",
"738 -29 OFFCURVE",
"804 -22 OFFCURVE",
"867 -8 CURVE SMOOTH",
"921 4 OFFCURVE",
"999 28 OFFCURVE",
"1069 57 CURVE",
"1069 240 LINE",
"996 202 OFFCURVE",
"928 174 OFFCURVE",
"864 155 CURVE SMOOTH",
"800 136 OFFCURVE",
"739 127 OFFCURVE",
"679 127 CURVE SMOOTH",
"558 127 OFFCURVE",
"472 163 OFFCURVE",
"411 227 CURVE SMOOTH",
"347 294 OFFCURVE",
"315 388 OFFCURVE",
"315 510 CURVE SMOOTH",
"315 516 LINE",
"1112 516 LINE"
);
},
{
closed = 1;
nodes = (
"322 659 LINE",
"333 763 OFFCURVE",
"367 844 OFFCURVE",
"424 903 CURVE SMOOTH",
"481 962 OFFCURVE",
"554 991 OFFCURVE",
"644 991 CURVE SMOOTH",
"732 991 OFFCURVE",
"804 963 OFFCURVE",
"852 907 CURVE SMOOTH",
"896 856 OFFCURVE",
"925 774 OFFCURVE",
"928 660 CURVE"
);
},
{
closed = 1;
nodes = (
"557 1638 LINE",
"311 1262 LINE",
"450 1262 LINE",
"630 1507 LINE",
"811 1262 LINE",
"950 1262 LINE",
"704 1638 LINE"
);
}
);
width = 1233;
}
);
note = "\012\011ecircumflex\012  ";
unicode = 00EA;
},
{
glyphname = edieresis;
lastChange = "2015-07-16 01:33:46 +0000";
layers = (
{
layerId = "A8E9A3C4-7003-4333-ABE9-545A429BAB07";
name = Regular;
paths = (
{
closed = 1;
nodes = (
"1112 606 LINE SMOOTH",
"1112 775 OFFCURVE",
"1068 910 OFFCURVE",
"989 1003 CURVE SMOOTH",
"910 1096 OFFCURVE",
"796 1147 OFFCURVE",
"648 1147 CURVE SMOOTH",
"498 1147 OFFCURVE",
"363 1095 OFFCURVE",
"266 987 CURVE SMOOTH",
"177 888 OFFCURVE",
"123 745 OFFCURVE",
"123 558 CURVE SMOOTH",
"123 377 OFFCURVE",
"174 229 OFFCURVE",
"270 127 CURVE SMOOTH",
"366 25 OFFCURVE",
"505 -29 OFFCURVE",
"676 -29 CURVE SMOOTH",
"738 -29 OFFCURVE",
"804 -22 OFFCURVE",
"867 -8 CURVE SMOOTH",
"921 4 OFFCURVE",
"999 28 OFFCURVE",
"1069 57 CURVE",
"1069 240 LINE",
"996 202 OFFCURVE",
"928 174 OFFCURVE",
"864 155 CURVE SMOOTH",
"800 136 OFFCURVE",
"739 127 OFFCURVE",
"679 127 CURVE SMOOTH",
"558 127 OFFCURVE",
"472 163 OFFCURVE",
"411 227 CURVE SMOOTH",
"347 294 OFFCURVE",
"315 388 OFFCURVE",
"315 510 CURVE SMOOTH",
"315 516 LINE",
"1112 516 LINE"
);
},
{
closed = 1;
nodes = (
"322 659 LINE",
"333 763 OFFCURVE",
"367 844 OFFCURVE",
"424 903 CURVE SMOOTH",
"481 962 OFFCURVE",
"554 991 OFFCURVE",
"644 991 CURVE SMOOTH",
"732 991 OFFCURVE",
"804 963 OFFCURVE",
"852 907 CURVE SMOOTH",
"896 856 OFFCURVE",
"925 774 OFFCURVE",
"928 660 CURVE"
);
},
{
closed = 1;
nodes = (
"363 1552 LINE SMOOTH",
"344 1552 OFFCURVE",
"333 1541 OFFCURVE",
"333 1522 CURVE SMOOTH",
"333 1380 LINE SMOOTH",
"333 1361 OFFCURVE",
"344 1350 OFFCURVE",
"363 1350 CURVE SMOOTH",
"506 1350 LINE SMOOTH",
"525 1350 OFFCURVE",
"536 1361 OFFCURVE",
"536 1380 CURVE SMOOTH",
"536 1522 LINE SMOOTH",
"536 1541 OFFCURVE",
"525 1552 OFFCURVE",
"506 1552 CURVE SMOOTH"
);
},
{
closed = 1;
nodes = (
"755 1552 LINE SMOOTH",
"736 1552 OFFCURVE",
"725 1541 OFFCURVE",
"725 1522 CURVE SMOOTH",
"725 1380 LINE SMOOTH",
"725 1361 OFFCURVE",
"736 1350 OFFCURVE",
"755 1350 CURVE SMOOTH",
"897 1350 LINE SMOOTH",
"916 1350 OFFCURVE",
"927 1361 OFFCURVE",
"927 1380 CURVE SMOOTH",
"927 1522 LINE SMOOTH",
"927 1541 OFFCURVE",
"916 1552 OFFCURVE",
"897 1552 CURVE SMOOTH"
);
}
);
width = 1233;
}
);
note = "\012\011edieresis\012  ";
unicode = 00EB;
},
{
glyphname = edotaccent;
layers = (
{
layerId = "A8E9A3C4-7003-4333-ABE9-545A429BAB07";
name = Regular;
paths = (
{
closed = 1;
nodes = (
"527 1522 LINE SMOOTH",
"527 1541 OFFCURVE",
"538 1552 OFFCURVE",
"557 1552 CURVE SMOOTH",
"702 1552 LINE SMOOTH",
"721 1552 OFFCURVE",
"732 1541 OFFCURVE",
"732 1522 CURVE SMOOTH",
"732 1378 LINE SMOOTH",
"732 1359 OFFCURVE",
"721 1348 OFFCURVE",
"702 1348 CURVE SMOOTH",
"557 1348 LINE SMOOTH",
"538 1348 OFFCURVE",
"527 1359 OFFCURVE",
"527 1378 CURVE SMOOTH"
);
},
{
closed = 1;
nodes = (
"1112 516 LINE",
"315 516 LINE",
"315 510 LINE SMOOTH",
"315 266 OFFCURVE",
"449 127 OFFCURVE",
"679 127 CURVE SMOOTH",
"798 127 OFFCURVE",
"924 164 OFFCURVE",
"1069 240 CURVE",
"1069 57 LINE",
"929 0 OFFCURVE",
"800 -29 OFFCURVE",
"676 -29 CURVE SMOOTH",
"330 -29 OFFCURVE",
"123 195 OFFCURVE",
"123 555 CURVE SMOOTH",
"123 916 OFFCURVE",
"332 1147 OFFCURVE",
"644 1147 CURVE SMOOTH",
"939 1147 OFFCURVE",
"1112 941 OFFCURVE",
"1112 606 CURVE SMOOTH"
);
},
{
closed = 1;
nodes = (
"928 660 LINE",
"924 869 OFFCURVE",
"827 991 OFFCURVE",
"646 991 CURVE SMOOTH",
"466 991 OFFCURVE",
"344 870 OFFCURVE",
"322 659 CURVE"
);
}
);
width = 1233;
}
);
note = "\012\011edotaccent\012  ";
unicode = 0117;
},
{
glyphname = egrave;
lastChange = "2015-07-16 01:34:00 +0000";
layers = (
{
layerId = "A8E9A3C4-7003-4333-ABE9-545A429BAB07";
name = Regular;
paths = (
{
closed = 1;
nodes = (
"1112 606 LINE SMOOTH",
"1112 775 OFFCURVE",
"1068 910 OFFCURVE",
"989 1003 CURVE SMOOTH",
"910 1096 OFFCURVE",
"796 1147 OFFCURVE",
"648 1147 CURVE SMOOTH",
"498 1147 OFFCURVE",
"363 1095 OFFCURVE",
"266 987 CURVE SMOOTH",
"177 888 OFFCURVE",
"123 745 OFFCURVE",
"123 558 CURVE SMOOTH",
"123 377 OFFCURVE",
"174 229 OFFCURVE",
"270 127 CURVE SMOOTH",
"366 25 OFFCURVE",
"505 -29 OFFCURVE",
"676 -29 CURVE SMOOTH",
"738 -29 OFFCURVE",
"804 -22 OFFCURVE",
"867 -8 CURVE SMOOTH",
"921 4 OFFCURVE",
"999 28 OFFCURVE",
"1069 57 CURVE",
"1069 240 LINE",
"996 202 OFFCURVE",
"928 174 OFFCURVE",
"864 155 CURVE SMOOTH",
"800 136 OFFCURVE",
"739 127 OFFCURVE",
"679 127 CURVE SMOOTH",
"558 127 OFFCURVE",
"472 163 OFFCURVE",
"411 227 CURVE SMOOTH",
"347 294 OFFCURVE",
"315 388 OFFCURVE",
"315 510 CURVE SMOOTH",
"315 516 LINE",
"1112 516 LINE"
);
},
{
closed = 1;
nodes = (
"322 659 LINE",
"333 763 OFFCURVE",
"367 844 OFFCURVE",
"424 903 CURVE SMOOTH",
"481 962 OFFCURVE",
"554 991 OFFCURVE",
"644 991 CURVE SMOOTH",
"732 991 OFFCURVE",
"804 963 OFFCURVE",
"852 907 CURVE SMOOTH",
"896 856 OFFCURVE",
"925 774 OFFCURVE",
"928 660 CURVE"
);
},
{
closed = 1;
nodes = (
"491 1638 LINE",
"293 1638 LINE",
"618 1262 LINE",
"772 1262 LINE"
);
}
);
width = 1233;
}
);
note = "\012\011egrave\012  ";
unicode = 00E8;
},
{
glyphname = emacron;
lastChange = "2015-07-16 01:34:06 +0000";
layers = (
{
layerId = "A8E9A3C4-7003-4333-ABE9-545A429BAB07";
name = Regular;
paths = (
{
closed = 1;
nodes = (
"352 1526 LINE",
"950 1526 LINE",
"950 1378 LINE",
"352 1378 LINE"
);
},
{
closed = 1;
nodes = (
"1112 516 LINE",
"315 516 LINE",
"315 510 LINE SMOOTH",
"315 266 OFFCURVE",
"449 127 OFFCURVE",
"679 127 CURVE SMOOTH",
"798 127 OFFCURVE",
"924 164 OFFCURVE",
"1069 240 CURVE",
"1069 57 LINE",
"929 0 OFFCURVE",
"800 -29 OFFCURVE",
"676 -29 CURVE SMOOTH",
"330 -29 OFFCURVE",
"123 195 OFFCURVE",
"123 555 CURVE SMOOTH",
"123 916 OFFCURVE",
"332 1147 OFFCURVE",
"644 1147 CURVE SMOOTH",
"939 1147 OFFCURVE",
"1112 941 OFFCURVE",
"1112 606 CURVE SMOOTH"
);
},
{
closed = 1;
nodes = (
"928 660 LINE",
"924 869 OFFCURVE",
"827 991 OFFCURVE",
"646 991 CURVE SMOOTH",
"466 991 OFFCURVE",
"344 870 OFFCURVE",
"322 659 CURVE"
);
}
);
width = 1233;
}
);
note = "\012\011emacron\012  ";
unicode = 0113;
},
{
glyphname = eogonek;
lastChange = "2015-07-16 01:34:14 +0000";
layers = (
{
layerId = "A8E9A3C4-7003-4333-ABE9-545A429BAB07";
name = Regular;
paths = (
{
closed = 1;
nodes = (
"893 0 LINE",
"829 -87 OFFCURVE",
"805 -139 OFFCURVE",
"805 -184 CURVE SMOOTH",
"805 -240 OFFCURVE",
"843 -272 OFFCURVE",
"915 -272 CURVE SMOOTH",
"956 -272 OFFCURVE",
"998 -262 OFFCURVE",
"1039 -242 CURVE",
"1039 -375 LINE",
"983 -389 OFFCURVE",
"945 -395 OFFCURVE",
"896 -395 CURVE SMOOTH",
"748 -395 OFFCURVE",
"666 -339 OFFCURVE",
"666 -221 CURVE SMOOTH",
"666 -155 OFFCURVE",
"692 -94 OFFCURVE",
"774 0 CURVE"
);
},
{
closed = 1;
nodes = (
"1112 516 LINE",
"315 516 LINE",
"315 510 LINE SMOOTH",
"315 266 OFFCURVE",
"449 127 OFFCURVE",
"679 127 CURVE SMOOTH",
"798 127 OFFCURVE",
"924 164 OFFCURVE",
"1069 240 CURVE",
"1069 57 LINE",
"929 0 OFFCURVE",
"800 -29 OFFCURVE",
"676 -29 CURVE SMOOTH",
"330 -29 OFFCURVE",
"123 195 OFFCURVE",
"123 555 CURVE SMOOTH",
"123 916 OFFCURVE",
"332 1147 OFFCURVE",
"644 1147 CURVE SMOOTH",
"939 1147 OFFCURVE",
"1112 941 OFFCURVE",
"1112 606 CURVE SMOOTH"
);
},
{
closed = 1;
nodes = (
"928 660 LINE",
"924 869 OFFCURVE",
"827 991 OFFCURVE",
"646 991 CURVE SMOOTH",
"466 991 OFFCURVE",
"344 870 OFFCURVE",
"322 659 CURVE"
);
}
);
width = 1233;
}
);
note = "\012\011eogonek\012  ";
unicode = 0119;
},
{
glyphname = f;
layers = (
{
layerId = "A8E9A3C4-7003-4333-ABE9-545A429BAB07";
name = Regular;
paths = (
{
closed = 1;
nodes = (
"1063 1556 LINE",
"842 1556 LINE SMOOTH",
"723 1556 OFFCURVE",
"635 1527 OFFCURVE",
"579 1469 CURVE SMOOTH",
"522 1411 OFFCURVE",
"494 1321 OFFCURVE",
"494 1198 CURVE SMOOTH",
"494 1120 LINE",
"195 1120 LINE",
"195 977 LINE",
"494 977 LINE",
"494 0 LINE",
"678 0 LINE",
"678 977 LINE",
"1063 977 LINE",
"1063 1120 LINE",
"678 1120 LINE",
"678 1219 LINE SMOOTH",
"678 1288 OFFCURVE",
"691 1336 OFFCURVE",
"717 1363 CURVE SMOOTH",
"741 1388 OFFCURVE",
"782 1403 OFFCURVE",
"854 1403 CURVE SMOOTH",
"1063 1403 LINE"
);
}
);
width = 1233;
}
);
note = "\012\011f\012  ";
unicode = 0066;
},
{
glyphname = g;
layers = (
{
layerId = "A8E9A3C4-7003-4333-ABE9-545A429BAB07";
name = Regular;
paths = (
{
closed = 1;
nodes = (
"858 432 OFFCURVE",
"836 327 OFFCURVE",
"791 254 CURVE SMOOTH",
"746 181 OFFCURVE",
"682 145 OFFCURVE",
"594 145 CURVE SMOOTH",
"505 145 OFFCURVE",
"437 181 OFFCURVE",
"389 254 CURVE SMOOTH",
"341 327 OFFCURVE",
"317 430 OFFCURVE",
"317 568 CURVE SMOOTH",
"317 706 OFFCURVE",
"341 813 OFFCURVE",
"388 884 CURVE SMOOTH",
"435 955 OFFCURVE",
"505 991 OFFCURVE",
"593 991 CURVE SMOOTH",
"675 991 OFFCURVE",
"744 959 OFFCURVE",
"791 884 CURVE SMOOTH",
"836 812 OFFCURVE",
"858 707 OFFCURVE",
"858 569 CURVE SMOOTH"
);
},
{
closed = 1;
nodes = (
"1042 1116 LINE",
"876 1116 LINE",
"858 971 LINE",
"827 1031 OFFCURVE",
"786 1075 OFFCURVE",
"736 1104 CURVE SMOOTH",
"686 1133 OFFCURVE",
"624 1147 OFFCURVE",
"555 1147 CURVE SMOOTH",
"421 1147 OFFCURVE",
"318 1095 OFFCURVE",
"240 990 CURVE SMOOTH",
"162 885 OFFCURVE",
"123 745 OFFCURVE",
"123 569 CURVE SMOOTH",
"123 394 OFFCURVE",
"162 254 OFFCURVE",
"240 149 CURVE SMOOTH",
"318 44 OFFCURVE",
"421 -8 OFFCURVE",
"554 -8 CURVE SMOOTH",
"625 -8 OFFCURVE",
"687 7 OFFCURVE",
"738 38 CURVE SMOOTH",
"789 69 OFFCURVE",
"829 115 OFFCURVE",
"858 178 CURVE",
"858 53 LINE",
"858 45 LINE SMOOTH",
"858 -74 OFFCURVE",
"835 -158 OFFCURVE",
"790 -211 CURVE SMOOTH",
"744 -266 OFFCURVE",
"675 -293 OFFCURVE",
"577 -293 CURVE SMOOTH",
"527 -293 OFFCURVE",
"479 -286 OFFCURVE",
"426 -271 CURVE SMOOTH",
"376 -257 OFFCURVE",
"313 -234 OFFCURVE",
"248 -203 CURVE",
"248 -385 LINE",
"306 -404 OFFCURVE",
"360 -417 OFFCURVE",
"414 -426 CURVE SMOOTH",
"469 -435 OFFCURVE",
"521 -440 OFFCURVE",
"573 -440 CURVE SMOOTH",
"726 -440 OFFCURVE",
"844 -397 OFFCURVE",
"923 -310 CURVE SMOOTH",
"1002 -223 OFFCURVE",
"1042 -96 OFFCURVE",
"1042 72 CURVE SMOOTH"
);
}
);
width = 1233;
}
);
note = "\012\011g\012  ";
unicode = 0067;
},
{
glyphname = gbreve;
lastChange = "2015-07-16 01:36:38 +0000";
layers = (
{
layerId = "A8E9A3C4-7003-4333-ABE9-545A429BAB07";
name = Regular;
paths = (
{
closed = 1;
nodes = (
"858 432 OFFCURVE",
"836 327 OFFCURVE",
"791 254 CURVE SMOOTH",
"746 181 OFFCURVE",
"682 145 OFFCURVE",
"594 145 CURVE SMOOTH",
"505 145 OFFCURVE",
"437 181 OFFCURVE",
"389 254 CURVE SMOOTH",
"341 327 OFFCURVE",
"317 430 OFFCURVE",
"317 568 CURVE SMOOTH",
"317 706 OFFCURVE",
"341 813 OFFCURVE",
"388 884 CURVE SMOOTH",
"435 955 OFFCURVE",
"505 991 OFFCURVE",
"593 991 CURVE SMOOTH",
"675 991 OFFCURVE",
"744 959 OFFCURVE",
"791 884 CURVE SMOOTH",
"836 812 OFFCURVE",
"858 707 OFFCURVE",
"858 569 CURVE SMOOTH"
);
},
{
closed = 1;
nodes = (
"1042 1116 LINE",
"876 1116 LINE",
"858 971 LINE",
"827 1031 OFFCURVE",
"786 1075 OFFCURVE",
"736 1104 CURVE SMOOTH",
"686 1133 OFFCURVE",
"624 1147 OFFCURVE",
"555 1147 CURVE SMOOTH",
"421 1147 OFFCURVE",
"318 1095 OFFCURVE",
"240 990 CURVE SMOOTH",
"162 885 OFFCURVE",
"123 745 OFFCURVE",
"123 569 CURVE SMOOTH",
"123 394 OFFCURVE",
"162 254 OFFCURVE",
"240 149 CURVE SMOOTH",
"318 44 OFFCURVE",
"421 -8 OFFCURVE",
"554 -8 CURVE SMOOTH",
"625 -8 OFFCURVE",
"687 7 OFFCURVE",
"738 38 CURVE SMOOTH",
"789 69 OFFCURVE",
"829 115 OFFCURVE",
"858 178 CURVE",
"858 53 LINE",
"858 45 LINE SMOOTH",
"858 -78 OFFCURVE",
"834 -158 OFFCURVE",
"790 -211 CURVE SMOOTH",
"744 -266 OFFCURVE",
"675 -293 OFFCURVE",
"577 -293 CURVE SMOOTH",
"527 -293 OFFCURVE",
"479 -286 OFFCURVE",
"426 -271 CURVE SMOOTH",
"376 -257 OFFCURVE",
"313 -234 OFFCURVE",
"248 -203 CURVE",
"248 -385 LINE",
"306 -404 OFFCURVE",
"360 -417 OFFCURVE",
"414 -426 CURVE SMOOTH",
"469 -435 OFFCURVE",
"521 -440 OFFCURVE",
"573 -440 CURVE SMOOTH",
"726 -440 OFFCURVE",
"844 -397 OFFCURVE",
"923 -310 CURVE SMOOTH",
"1002 -223 OFFCURVE",
"1042 -96 OFFCURVE",
"1042 72 CURVE SMOOTH"
);
},
{
closed = 1;
nodes = (
"303 1608 LINE",
"310 1513 OFFCURVE",
"340 1441 OFFCURVE",
"393 1393 CURVE SMOOTH",
"446 1345 OFFCURVE",
"520 1321 OFFCURVE",
"616 1321 CURVE SMOOTH",
"713 1321 OFFCURVE",
"787 1345 OFFCURVE",
"840 1393 CURVE SMOOTH",
"893 1441 OFFCURVE",
"923 1513 OFFCURVE",
"930 1608 CURVE",
"811 1608 LINE",
"802 1557 OFFCURVE",
"781 1520 OFFCURVE",
"749 1495 CURVE SMOOTH",
"717 1470 OFFCURVE",
"673 1458 OFFCURVE",
"616 1458 CURVE SMOOTH",
"558 1458 OFFCURVE",
"513 1470 OFFCURVE",
"481 1495 CURVE SMOOTH",
"449 1520 OFFCURVE",
"429 1557 OFFCURVE",
"422 1608 CURVE"
);
}
);
width = 1233;
}
);
note = "\012\011gbreve\012  ";
unicode = 011F;
},
{
glyphname = gcaron;
lastChange = "2015-07-16 01:36:45 +0000";
layers = (
{
layerId = "A8E9A3C4-7003-4333-ABE9-545A429BAB07";
name = Regular;
paths = (
{
closed = 1;
nodes = (
"543 1262 LINE",
"297 1638 LINE",
"436 1638 LINE",
"616 1393 LINE",
"797 1638 LINE",
"936 1638 LINE",
"690 1262 LINE"
);
},
{
closed = 1;
nodes = (
"858 845 OFFCURVE",
"767 991 OFFCURVE",
"591 991 CURVE SMOOTH",
"416 991 OFFCURVE",
"317 846 OFFCURVE",
"317 570 CURVE SMOOTH",
"317 293 OFFCURVE",
"417 145 OFFCURVE",
"592 145 CURVE SMOOTH",
"767 145 OFFCURVE",
"858 294 OFFCURVE",
"858 569 CURVE SMOOTH"
);
},
{
closed = 1;
nodes = (
"1042 72 LINE SMOOTH",
"1042 -264 OFFCURVE",
"881 -440 OFFCURVE",
"573 -440 CURVE SMOOTH",
"472 -440 OFFCURVE",
"359 -421 OFFCURVE",
"248 -385 CURVE",
"248 -203 LINE",
"382 -265 OFFCURVE",
"481 -293 OFFCURVE",
"579 -293 CURVE SMOOTH",
"772 -293 OFFCURVE",
"858 -186 OFFCURVE",
"858 45 CURVE SMOOTH",
"858 53 LINE",
"858 178 LINE",
"802 58 OFFCURVE",
"701 -8 OFFCURVE",
"557 -8 CURVE SMOOTH",
"290 -8 OFFCURVE",
"123 218 OFFCURVE",
"123 570 CURVE SMOOTH",
"123 921 OFFCURVE",
"289 1147 OFFCURVE",
"558 1147 CURVE SMOOTH",
"695 1147 OFFCURVE",
"797 1089 OFFCURVE",
"858 971 CURVE",
"858 1116 LINE",
"1042 1116 LINE"
);
}
);
width = 1233;
}
);
note = "\012\011gcaron\012  ";
unicode = 01E7;
},
{
glyphname = gcommaaccent;
lastChange = "2015-07-16 01:36:51 +0000";
layers = (
{
layerId = "A8E9A3C4-7003-4333-ABE9-545A429BAB07";
name = Regular;
paths = (
{
closed = 1;
nodes = (
"725 1269 LINE",
"486 1269 LINE",
"673 1614 LINE",
"819 1614 LINE"
);
},
{
closed = 1;
nodes = (
"858 845 OFFCURVE",
"767 991 OFFCURVE",
"591 991 CURVE SMOOTH",
"416 991 OFFCURVE",
"317 846 OFFCURVE",
"317 570 CURVE SMOOTH",
"317 293 OFFCURVE",
"417 145 OFFCURVE",
"592 145 CURVE SMOOTH",
"767 145 OFFCURVE",
"858 294 OFFCURVE",
"858 569 CURVE SMOOTH"
);
},
{
closed = 1;
nodes = (
"1042 72 LINE SMOOTH",
"1042 -264 OFFCURVE",
"881 -440 OFFCURVE",
"573 -440 CURVE SMOOTH",
"472 -440 OFFCURVE",
"359 -421 OFFCURVE",
"248 -385 CURVE",
"248 -203 LINE",
"382 -265 OFFCURVE",
"481 -293 OFFCURVE",
"579 -293 CURVE SMOOTH",
"772 -293 OFFCURVE",
"858 -186 OFFCURVE",
"858 45 CURVE SMOOTH",
"858 53 LINE",
"858 178 LINE",
"802 58 OFFCURVE",
"701 -8 OFFCURVE",
"557 -8 CURVE SMOOTH",
"290 -8 OFFCURVE",
"123 218 OFFCURVE",
"123 570 CURVE SMOOTH",
"123 921 OFFCURVE",
"289 1147 OFFCURVE",
"558 1147 CURVE SMOOTH",
"695 1147 OFFCURVE",
"797 1089 OFFCURVE",
"858 971 CURVE",
"858 1116 LINE",
"1042 1116 LINE"
);
}
);
width = 1233;
}
);
note = "\012\011gcommaaccent\012  ";
unicode = 0123;
},
{
glyphname = gdotaccent;
lastChange = "2015-07-16 01:36:59 +0000";
layers = (
{
layerId = "A8E9A3C4-7003-4333-ABE9-545A429BAB07";
name = Regular;
paths = (
{
closed = 1;
nodes = (
"513 1552 LINE",
"718 1552 LINE",
"718 1348 LINE",
"513 1348 LINE"
);
},
{
closed = 1;
nodes = (
"858 845 OFFCURVE",
"767 991 OFFCURVE",
"591 991 CURVE SMOOTH",
"416 991 OFFCURVE",
"317 846 OFFCURVE",
"317 570 CURVE SMOOTH",
"317 293 OFFCURVE",
"417 145 OFFCURVE",
"592 145 CURVE SMOOTH",
"767 145 OFFCURVE",
"858 294 OFFCURVE",
"858 569 CURVE SMOOTH"
);
},
{
closed = 1;
nodes = (
"1042 72 LINE SMOOTH",
"1042 -264 OFFCURVE",
"881 -440 OFFCURVE",
"573 -440 CURVE SMOOTH",
"472 -440 OFFCURVE",
"359 -421 OFFCURVE",
"248 -385 CURVE",
"248 -203 LINE",
"382 -265 OFFCURVE",
"481 -293 OFFCURVE",
"579 -293 CURVE SMOOTH",
"772 -293 OFFCURVE",
"858 -186 OFFCURVE",
"858 45 CURVE SMOOTH",
"858 53 LINE",
"858 178 LINE",
"802 58 OFFCURVE",
"701 -8 OFFCURVE",
"557 -8 CURVE SMOOTH",
"290 -8 OFFCURVE",
"123 218 OFFCURVE",
"123 570 CURVE SMOOTH",
"123 921 OFFCURVE",
"289 1147 OFFCURVE",
"558 1147 CURVE SMOOTH",
"695 1147 OFFCURVE",
"797 1089 OFFCURVE",
"858 971 CURVE",
"858 1116 LINE",
"1042 1116 LINE"
);
}
);
width = 1233;
}
);
note = "\012\011gdotaccent\012  ";
unicode = 0121;
},
{
glyphname = h;
layers = (
{
layerId = "A8E9A3C4-7003-4333-ABE9-545A429BAB07";
name = Regular;
paths = (
{
closed = 1;
nodes = (
"1051 694 LINE SMOOTH",
"1051 846 OFFCURVE",
"1023 960 OFFCURVE",
"967 1035 CURVE SMOOTH",
"913 1107 OFFCURVE",
"829 1147 OFFCURVE",
"710 1147 CURVE SMOOTH",
"635 1147 OFFCURVE",
"568 1131 OFFCURVE",
"512 1098 CURVE SMOOTH",
"456 1065 OFFCURVE",
"412 1016 OFFCURVE",
"379 952 CURVE",
"379 1556 LINE",
"195 1556 LINE",
"195 0 LINE",
"379 0 LINE",
"379 633 LINE SMOOTH",
"379 747 OFFCURVE",
"402 835 OFFCURVE",
"449 896 CURVE SMOOTH",
"494 955 OFFCURVE",
"558 987 OFFCURVE",
"646 987 CURVE SMOOTH",
"722 987 OFFCURVE",
"778 963 OFFCURVE",
"813 916 CURVE SMOOTH",
"848 869 OFFCURVE",
"866 795 OFFCURVE",
"866 694 CURVE SMOOTH",
"866 0 LINE",
"1051 0 LINE"
);
}
);
width = 1233;
}
);
note = "\012\011h\012  ";
unicode = 0068;
},
{
glyphname = hbar;
lastChange = "2015-07-16 01:38:47 +0000";
layers = (
{
layerId = "A8E9A3C4-7003-4333-ABE9-545A429BAB07";
name = Regular;
paths = (
{
closed = 1;
nodes = (
"1051 0 LINE",
"866 0 LINE",
"866 694 LINE SMOOTH",
"866 894 OFFCURVE",
"798 987 OFFCURVE",
"648 987 CURVE SMOOTH",
"474 987 OFFCURVE",
"379 861 OFFCURVE",
"379 633 CURVE SMOOTH",
"379 0 LINE",
"195 0 LINE",
"195 1270 LINE",
"70 1270 LINE",
"70 1434 LINE",
"195 1434 LINE",
"195 1556 LINE",
"379 1556 LINE",
"379 1434 LINE",
"732 1434 LINE",
"732 1270 LINE",
"379 1270 LINE",
"379 952 LINE",
"444 1080 OFFCURVE",
"558 1147 OFFCURVE",
"711 1147 CURVE SMOOTH",
"939 1147 OFFCURVE",
"1051 998 OFFCURVE",
"1051 694 CURVE SMOOTH"
);
}
);
width = 1233;
}
);
note = "\012\011hbar\012  ";
unicode = 0127;
},
{
glyphname = i;
layers = (
{
layerId = "A8E9A3C4-7003-4333-ABE9-545A429BAB07";
name = Regular;
paths = (
{
closed = 1;
nodes = (
"483 1556 LINE SMOOTH",
"464 1556 OFFCURVE",
"453 1545 OFFCURVE",
"453 1526 CURVE SMOOTH",
"453 1353 LINE SMOOTH",
"453 1334 OFFCURVE",
"464 1323 OFFCURVE",
"483 1323 CURVE SMOOTH",
"627 1323 LINE SMOOTH",
"646 1323 OFFCURVE",
"657 1334 OFFCURVE",
"657 1353 CURVE SMOOTH",
"657 1526 LINE SMOOTH",
"657 1545 OFFCURVE",
"646 1556 OFFCURVE",
"627 1556 CURVE SMOOTH"
);
},
{
closed = 1;
nodes = (
"657 1120 LINE",
"178 1120 LINE",
"178 976 LINE",
"473 976 LINE",
"473 406 LINE SMOOTH",
"473 277 OFFCURVE",
"503 177 OFFCURVE",
"564 106 CURVE SMOOTH",
"627 32 OFFCURVE",
"713 0 OFFCURVE",
"819 0 CURVE SMOOTH",
"1052 0 LINE",
"1052 156 LINE",
"837 156 LINE SMOOTH",
"780 156 OFFCURVE",
"735 175 OFFCURVE",
"703 219 CURVE SMOOTH",
"672 261 OFFCURVE",
"657 323 OFFCURVE",
"657 406 CURVE SMOOTH"
);
}
);
width = 1233;
}
);
note = "\012\011i\012  ";
unicode = 0069;
},
{
glyphname = dotlessi;
lastChange = "2015-07-16 01:45:50 +0000";
layers = (
{
layerId = "A8E9A3C4-7003-4333-ABE9-545A429BAB07";
name = Regular;
paths = (
{
closed = 1;
nodes = (
"657 1120 LINE",
"178 1120 LINE",
"178 976 LINE",
"473 976 LINE",
"473 406 LINE SMOOTH",
"473 277 OFFCURVE",
"503 177 OFFCURVE",
"564 106 CURVE SMOOTH",
"627 32 OFFCURVE",
"713 0 OFFCURVE",
"819 0 CURVE SMOOTH",
"1052 0 LINE",
"1052 156 LINE",
"837 156 LINE SMOOTH",
"780 156 OFFCURVE",
"735 175 OFFCURVE",
"703 219 CURVE SMOOTH",
"672 261 OFFCURVE",
"657 323 OFFCURVE",
"657 406 CURVE SMOOTH"
);
}
);
width = 1233;
}
);
note = "\012\011dotlessi\012  ";
unicode = 0131;
},
{
glyphname = iacute;
lastChange = "2015-07-16 01:58:35 +0000";
layers = (
{
layerId = "A8E9A3C4-7003-4333-ABE9-545A429BAB07";
name = Regular;
paths = (
{
closed = 1;
nodes = (
"754 1638 LINE",
"473 1262 LINE",
"627 1262 LINE",
"952 1638 LINE"
);
},
{
closed = 1;
nodes = (
"657 1120 LINE",
"178 1120 LINE",
"178 976 LINE",
"473 976 LINE",
"473 406 LINE SMOOTH",
"473 277 OFFCURVE",
"503 177 OFFCURVE",
"564 106 CURVE SMOOTH",
"627 32 OFFCURVE",
"713 0 OFFCURVE",
"819 0 CURVE SMOOTH",
"1052 0 LINE",
"1052 156 LINE",
"837 156 LINE SMOOTH",
"780 156 OFFCURVE",
"735 175 OFFCURVE",
"703 219 CURVE SMOOTH",
"672 261 OFFCURVE",
"657 323 OFFCURVE",
"657 406 CURVE SMOOTH"
);
}
);
width = 1233;
}
);
note = "\012\011iacute\012  ";
unicode = 00ED;
},
{
glyphname = icircumflex;
lastChange = "2015-07-16 01:47:08 +0000";
layers = (
{
layerId = "A8E9A3C4-7003-4333-ABE9-545A429BAB07";
name = Regular;
paths = (
{
closed = 1;
nodes = (
"424 1638 LINE",
"178 1262 LINE",
"317 1262 LINE",
"497 1507 LINE",
"678 1262 LINE",
"817 1262 LINE",
"571 1638 LINE"
);
},
{
closed = 1;
nodes = (
"657 1120 LINE",
"178 1120 LINE",
"178 976 LINE",
"473 976 LINE",
"473 406 LINE SMOOTH",
"473 277 OFFCURVE",
"503 177 OFFCURVE",
"564 106 CURVE SMOOTH",
"627 32 OFFCURVE",
"713 0 OFFCURVE",
"819 0 CURVE SMOOTH",
"1052 0 LINE",
"1052 156 LINE",
"837 156 LINE SMOOTH",
"780 156 OFFCURVE",
"735 175 OFFCURVE",
"703 219 CURVE SMOOTH",
"672 261 OFFCURVE",
"657 323 OFFCURVE",
"657 406 CURVE SMOOTH"
);
}
);
width = 1233;
}
);
note = "\012\011icircumflex\012  ";
unicode = 00EE;
},
{
glyphname = idieresis;
lastChange = "2015-07-16 01:47:48 +0000";
layers = (
{
layerId = "A8E9A3C4-7003-4333-ABE9-545A429BAB07";
name = Regular;
paths = (
{
closed = 1;
nodes = (
"208 1552 LINE SMOOTH",
"189 1552 OFFCURVE",
"178 1541 OFFCURVE",
"178 1522 CURVE SMOOTH",
"178 1380 LINE SMOOTH",
"178 1361 OFFCURVE",
"189 1350 OFFCURVE",
"208 1350 CURVE SMOOTH",
"351 1350 LINE SMOOTH",
"370 1350 OFFCURVE",
"381 1361 OFFCURVE",
"381 1380 CURVE SMOOTH",
"381 1522 LINE SMOOTH",
"381 1541 OFFCURVE",
"370 1552 OFFCURVE",
"351 1552 CURVE SMOOTH"
);
},
{
closed = 1;
nodes = (
"600 1552 LINE SMOOTH",
"581 1552 OFFCURVE",
"570 1541 OFFCURVE",
"570 1522 CURVE SMOOTH",
"570 1380 LINE SMOOTH",
"570 1361 OFFCURVE",
"581 1350 OFFCURVE",
"600 1350 CURVE SMOOTH",
"742 1350 LINE SMOOTH",
"761 1350 OFFCURVE",
"772 1361 OFFCURVE",
"772 1380 CURVE SMOOTH",
"772 1522 LINE SMOOTH",
"772 1541 OFFCURVE",
"761 1552 OFFCURVE",
"742 1552 CURVE SMOOTH"
);
},
{
closed = 1;
nodes = (
"657 1120 LINE",
"178 1120 LINE",
"178 976 LINE",
"473 976 LINE",
"473 406 LINE SMOOTH",
"473 277 OFFCURVE",
"503 177 OFFCURVE",
"564 106 CURVE SMOOTH",
"627 32 OFFCURVE",
"713 0 OFFCURVE",
"819 0 CURVE SMOOTH",
"1052 0 LINE",
"1052 156 LINE",
"837 156 LINE SMOOTH",
"780 156 OFFCURVE",
"735 175 OFFCURVE",
"703 219 CURVE SMOOTH",
"672 261 OFFCURVE",
"657 323 OFFCURVE",
"657 406 CURVE SMOOTH"
);
}
);
width = 1233;
}
);
note = "\012\011idieresis\012  ";
unicode = 00EF;
},
{
glyphname = igrave;
lastChange = "2015-07-16 01:59:26 +0000";
layers = (
{
layerId = "A8E9A3C4-7003-4333-ABE9-545A429BAB07";
name = Regular;
paths = (
{
closed = 1;
nodes = (
"376 1638 LINE",
"178 1638 LINE",
"503 1262 LINE",
"657 1262 LINE"
);
},
{
closed = 1;
nodes = (
"657 1120 LINE",
"178 1120 LINE",
"178 976 LINE",
"473 976 LINE",
"473 406 LINE SMOOTH",
"473 277 OFFCURVE",
"503 177 OFFCURVE",
"564 106 CURVE SMOOTH",
"627 32 OFFCURVE",
"713 0 OFFCURVE",
"819 0 CURVE SMOOTH",
"1052 0 LINE",
"1052 156 LINE",
"837 156 LINE SMOOTH",
"780 156 OFFCURVE",
"735 175 OFFCURVE",
"703 219 CURVE SMOOTH",
"672 261 OFFCURVE",
"657 323 OFFCURVE",
"657 406 CURVE SMOOTH"
);
}
);
width = 1233;
}
);
note = "\012\011igrave\012  ";
unicode = 00EC;
},
{
glyphname = imacron;
lastChange = "2015-07-16 01:48:28 +0000";
layers = (
{
layerId = "A8E9A3C4-7003-4333-ABE9-545A429BAB07";
name = Regular;
paths = (
{
closed = 1;
nodes = (
"178 1526 LINE",
"776 1526 LINE",
"776 1378 LINE",
"178 1378 LINE"
);
},
{
closed = 1;
nodes = (
"657 1120 LINE",
"178 1120 LINE",
"178 976 LINE",
"473 976 LINE",
"473 406 LINE SMOOTH",
"473 277 OFFCURVE",
"503 177 OFFCURVE",
"564 106 CURVE SMOOTH",
"627 32 OFFCURVE",
"713 0 OFFCURVE",
"819 0 CURVE SMOOTH",
"1052 0 LINE",
"1052 156 LINE",
"837 156 LINE SMOOTH",
"780 156 OFFCURVE",
"735 175 OFFCURVE",
"703 219 CURVE SMOOTH",
"672 261 OFFCURVE",
"657 323 OFFCURVE",
"657 406 CURVE SMOOTH"
);
}
);
width = 1233;
}
);
note = "\012\011imacron\012  ";
unicode = 012B;
},
{
glyphname = iogonek;
lastChange = "2015-07-16 02:01:09 +0000";
layers = (
{
layerId = "A8E9A3C4-7003-4333-ABE9-545A429BAB07";
name = Regular;
paths = (
{
closed = 1;
nodes = (
"1052 0 LINE",
"1052 156 LINE",
"837 156 LINE SMOOTH",
"780 156 OFFCURVE",
"735 175 OFFCURVE",
"703 219 CURVE SMOOTH",
"672 261 OFFCURVE",
"657 323 OFFCURVE",
"657 406 CURVE SMOOTH",
"657 1120 LINE",
"178 1120 LINE",
"178 976 LINE",
"473 976 LINE",
"473 406 LINE SMOOTH",
"473 277 OFFCURVE",
"503 177 OFFCURVE",
"564 106 CURVE SMOOTH",
"627 32 OFFCURVE",
"713 0 OFFCURVE",
"819 0 CURVE SMOOTH"
);
},
{
closed = 1;
nodes = (
"962 -376 OFFCURVE",
"1000 -370 OFFCURVE",
"1056 -356 CURVE",
"1056 -223 LINE",
"1015 -243 OFFCURVE",
"973 -253 OFFCURVE",
"932 -253 CURVE SMOOTH",
"860 -253 OFFCURVE",
"822 -221 OFFCURVE",
"822 -165 CURVE SMOOTH",
"822 -120 OFFCURVE",
"846 -68 OFFCURVE",
"910 19 CURVE",
"791 19 LINE",
"709 -75 OFFCURVE",
"683 -136 OFFCURVE",
"683 -202 CURVE SMOOTH",
"683 -320 OFFCURVE",
"765 -376 OFFCURVE",
"913 -376 CURVE SMOOTH"
);
},
{
closed = 1;
nodes = (
"624 1323 LINE SMOOTH",
"645 1323 OFFCURVE",
"657 1334 OFFCURVE",
"657 1353 CURVE SMOOTH",
"657 1526 LINE SMOOTH",
"657 1545 OFFCURVE",
"645 1556 OFFCURVE",
"624 1556 CURVE SMOOTH",
"486 1556 LINE SMOOTH",
"465 1556 OFFCURVE",
"453 1545 OFFCURVE",
"453 1526 CURVE SMOOTH",
"453 1353 LINE SMOOTH",
"453 1334 OFFCURVE",
"465 1323 OFFCURVE",
"486 1323 CURVE SMOOTH"
);
}
);
width = 1233;
}
);
note = "\012\011iogonek\012  ";
unicode = 012F;
},
{
glyphname = itilde;
lastChange = "2015-07-16 02:00:21 +0000";
layers = (
{
layerId = "A8E9A3C4-7003-4333-ABE9-545A429BAB07";
name = Regular;
paths = (
{
closed = 1;
nodes = (
"446 1425 LINE SMOOTH",
"418 1452 OFFCURVE",
"398 1464 OFFCURVE",
"376 1464 CURVE SMOOTH",
"354 1464 OFFCURVE",
"334 1452 OFFCURVE",
"322 1427 CURVE SMOOTH",
"310 1402 OFFCURVE",
"303 1363 OFFCURVE",
"302 1309 CURVE",
"178 1309 LINE",
"179 1483 OFFCURVE",
"247 1591 OFFCURVE",
"373 1591 CURVE SMOOTH",
"423 1591 OFFCURVE",
"463 1574 OFFCURVE",
"512 1530 CURVE",
"569 1475 LINE SMOOTH",
"601 1444 OFFCURVE",
"621 1436 OFFCURVE",
"639 1436 CURVE SMOOTH",
"661 1436 OFFCURVE",
"681 1448 OFFCURVE",
"693 1473 CURVE SMOOTH",
"705 1498 OFFCURVE",
"711 1537 OFFCURVE",
"712 1591 CURVE",
"837 1591 LINE",
"836 1417 OFFCURVE",
"768 1309 OFFCURVE",
"642 1309 CURVE SMOOTH",
"592 1309 OFFCURVE",
"552 1326 OFFCURVE",
"503 1370 CURVE"
);
},
{
closed = 1;
nodes = (
"657 1120 LINE",
"178 1120 LINE",
"178 976 LINE",
"473 976 LINE",
"473 406 LINE SMOOTH",
"473 277 OFFCURVE",
"503 177 OFFCURVE",
"564 106 CURVE SMOOTH",
"627 32 OFFCURVE",
"713 0 OFFCURVE",
"819 0 CURVE SMOOTH",
"1052 0 LINE",
"1052 156 LINE",
"837 156 LINE SMOOTH",
"780 156 OFFCURVE",
"735 175 OFFCURVE",
"703 219 CURVE SMOOTH",
"672 261 OFFCURVE",
"657 323 OFFCURVE",
"657 406 CURVE SMOOTH"
);
}
);
width = 1233;
}
);
note = "\012\011itilde\012  ";
unicode = 0129;
},
{
glyphname = j;
layers = (
{
layerId = "A8E9A3C4-7003-4333-ABE9-545A429BAB07";
name = Regular;
paths = (
{
closed = 1;
nodes = (
"600 -20 LINE SMOOTH",
"600 -103 OFFCURVE",
"585 -166 OFFCURVE",
"555 -208 CURVE SMOOTH",
"525 -249 OFFCURVE",
"480 -270 OFFCURVE",
"420 -270 CURVE SMOOTH",
"186 -270 LINE",
"186 -426 LINE",
"440 -426 LINE SMOOTH",
"547 -426 OFFCURVE",
"635 -392 OFFCURVE",
"695 -321 CURVE SMOOTH",
"755 -250 OFFCURVE",
"784 -146 OFFCURVE",
"784 -20 CURVE SMOOTH",
"784 1120 LINE",
"283 1120 LINE",
"283 977 LINE",
"600 977 LINE"
);
},
{
closed = 1;
nodes = (
"600 1556 LINE SMOOTH",
"581 1556 OFFCURVE",
"570 1545 OFFCURVE",
"570 1526 CURVE SMOOTH",
"570 1353 LINE SMOOTH",
"570 1334 OFFCURVE",
"581 1323 OFFCURVE",
"600 1323 CURVE SMOOTH",
"744 1323 LINE SMOOTH",
"763 1323 OFFCURVE",
"774 1334 OFFCURVE",
"774 1353 CURVE SMOOTH",
"774 1526 LINE SMOOTH",
"774 1545 OFFCURVE",
"763 1556 OFFCURVE",
"744 1556 CURVE SMOOTH"
);
}
);
width = 1233;
}
);
note = "\012\011j\012  ";
unicode = 006A;
},
{
glyphname = k;
layers = (
{
layerId = "A8E9A3C4-7003-4333-ABE9-545A429BAB07";
name = Regular;
paths = (
{
closed = 1;
nodes = (
"226 1556 LINE",
"226 0 LINE",
"416 0 LINE",
"416 449 LINE",
"553 578 LINE",
"967 0 LINE",
"1192 0 LINE",
"682 698 LINE",
"1123 1120 LINE",
"899 1120 LINE",
"416 655 LINE",
"416 1556 LINE"
);
}
);
width = 1233;
}
);
note = "\012\011k\012  ";
unicode = 006B;
},
{
glyphname = kcommaaccent;
lastChange = "2015-07-16 02:03:53 +0000";
layers = (
{
layerId = "A8E9A3C4-7003-4333-ABE9-545A429BAB07";
name = Regular;
paths = (
{
closed = 1;
nodes = (
"626 -199 LINE",
"865 -199 LINE",
"678 -544 LINE",
"532 -544 LINE"
);
},
{
closed = 1;
nodes = (
"226 1556 LINE",
"416 1556 LINE",
"416 655 LINE",
"899 1120 LINE",
"1123 1120 LINE",
"682 698 LINE",
"1192 0 LINE",
"967 0 LINE",
"553 578 LINE",
"416 449 LINE",
"416 0 LINE",
"226 0 LINE"
);
}
);
width = 1233;
}
);
note = "\012\011kcommaaccent\012  ";
unicode = 0137;
},
{
glyphname = l;
layers = (
{
layerId = "A8E9A3C4-7003-4333-ABE9-545A429BAB07";
name = Regular;
paths = (
{
closed = 1;
nodes = (
"639 1567 LINE",
"160 1567 LINE",
"160 1423 LINE",
"455 1423 LINE",
"455 406 LINE SMOOTH",
"455 277 OFFCURVE",
"485 177 OFFCURVE",
"546 106 CURVE SMOOTH",
"609 32 OFFCURVE",
"695 0 OFFCURVE",
"801 0 CURVE SMOOTH",
"1034 0 LINE",
"1034 156 LINE",
"819 156 LINE SMOOTH",
"762 156 OFFCURVE",
"717 175 OFFCURVE",
"685 219 CURVE SMOOTH",
"654 261 OFFCURVE",
"639 323 OFFCURVE",
"639 406 CURVE SMOOTH"
);
}
);
width = 1233;
}
);
note = "\012\011l\012  ";
unicode = 006C;
},
{
glyphname = lacute;
layers = (
{
layerId = "A8E9A3C4-7003-4333-ABE9-545A429BAB07";
name = Regular;
paths = (
{
closed = 1;
nodes = (
"577 1900 LINE",
"763 1900 LINE",
"534 1636 LINE",
"380 1636 LINE"
);
},
{
closed = 1;
nodes = (
"639 406 LINE SMOOTH",
"639 241 OFFCURVE",
"700 156 OFFCURVE",
"819 156 CURVE SMOOTH",
"1034 156 LINE",
"1034 0 LINE",
"801 0 LINE SMOOTH",
"581 0 OFFCURVE",
"455 147 OFFCURVE",
"455 406 CURVE SMOOTH",
"455 1423 LINE",
"160 1423 LINE",
"160 1567 LINE",
"639 1567 LINE"
);
}
);
width = 1233;
}
);
note = "\012\011lacute\012  ";
unicode = 013A;
},
{
glyphname = lcaron;
layers = (
{
layerId = "A8E9A3C4-7003-4333-ABE9-545A429BAB07";
name = Regular;
paths = (
{
closed = 1;
nodes = (
"960 1567 LINE",
"1158 1567 LINE",
"1045 1191 LINE",
"891 1191 LINE"
);
},
{
closed = 1;
nodes = (
"639 406 LINE SMOOTH",
"639 241 OFFCURVE",
"700 156 OFFCURVE",
"819 156 CURVE SMOOTH",
"1034 156 LINE",
"1034 0 LINE",
"801 0 LINE SMOOTH",
"581 0 OFFCURVE",
"455 147 OFFCURVE",
"455 406 CURVE SMOOTH",
"455 1423 LINE",
"160 1423 LINE",
"160 1567 LINE",
"639 1567 LINE"
);
}
);
width = 1233;
}
);
note = "\012\011lcaron\012  ";
unicode = 013E;
},
{
glyphname = lcommaaccent;
layers = (
{
layerId = "A8E9A3C4-7003-4333-ABE9-545A429BAB07";
name = Regular;
paths = (
{
closed = 1;
nodes = (
"497 -199 LINE",
"736 -199 LINE",
"549 -544 LINE",
"403 -544 LINE"
);
},
{
closed = 1;
nodes = (
"639 406 LINE SMOOTH",
"639 241 OFFCURVE",
"700 156 OFFCURVE",
"819 156 CURVE SMOOTH",
"1034 156 LINE",
"1034 0 LINE",
"801 0 LINE SMOOTH",
"581 0 OFFCURVE",
"455 147 OFFCURVE",
"455 406 CURVE SMOOTH",
"455 1423 LINE",
"160 1423 LINE",
"160 1567 LINE",
"639 1567 LINE"
);
}
);
width = 1233;
}
);
note = "\012\011lcommaaccent\012  ";
unicode = 013C;
},
{
glyphname = lslash;
layers = (
{
layerId = "A8E9A3C4-7003-4333-ABE9-545A429BAB07";
name = Regular;
paths = (
{
closed = 1;
nodes = (
"639 823 LINE",
"1034 1098 LINE",
"954 1208 LINE",
"639 989 LINE",
"639 1567 LINE",
"160 1567 LINE",
"160 1423 LINE",
"455 1423 LINE",
"455 864 LINE",
"76 600 LINE",
"156 489 LINE",
"455 698 LINE",
"455 406 LINE SMOOTH",
"455 277 OFFCURVE",
"485 177 OFFCURVE",
"546 106 CURVE SMOOTH",
"609 32 OFFCURVE",
"695 0 OFFCURVE",
"801 0 CURVE SMOOTH",
"1034 0 LINE",
"1034 156 LINE",
"819 156 LINE SMOOTH",
"762 156 OFFCURVE",
"717 175 OFFCURVE",
"685 219 CURVE SMOOTH",
"654 261 OFFCURVE",
"639 323 OFFCURVE",
"639 406 CURVE SMOOTH"
);
}
);
width = 1233;
}
);
note = "\012\011lslash\012  ";
unicode = 0142;
},
{
glyphname = m;
layers = (
{
layerId = "A8E9A3C4-7003-4333-ABE9-545A429BAB07";
name = Regular;
paths = (
{
closed = 1;
nodes = (
"657 1053 OFFCURVE",
"631 1089 OFFCURVE",
"598 1112 CURVE SMOOTH",
"564 1135 OFFCURVE",
"521 1147 OFFCURVE",
"472 1147 CURVE SMOOTH",
"428 1147 OFFCURVE",
"392 1137 OFFCURVE",
"359 1116 CURVE SMOOTH",
"326 1095 OFFCURVE",
"298 1064 OFFCURVE",
"276 1024 CURVE",
"260 1120 LINE",
"109 1120 LINE",
"109 0 LINE",
"276 0 LINE",
"276 641 LINE SMOOTH",
"276 817 OFFCURVE",
"288 893 OFFCURVE",
"306 933 CURVE SMOOTH",
"322 969 OFFCURVE",
"351 993 OFFCURVE",
"407 993 CURVE SMOOTH",
"459 993 OFFCURVE",
"491 972 OFFCURVE",
"508 937 CURVE SMOOTH",
"525 903 OFFCURVE",
"537 836 OFFCURVE",
"537 641 CURVE SMOOTH",
"537 0 LINE",
"705 0 LINE",
"705 641 LINE SMOOTH",
"705 799 OFFCURVE",
"714 886 OFFCURVE",
"736 932 CURVE SMOOTH",
"756 975 OFFCURVE",
"791 993 OFFCURVE",
"841 993 CURVE SMOOTH",
"897 993 OFFCURVE",
"925 971 OFFCURVE",
"940 936 CURVE SMOOTH",
"958 895 OFFCURVE",
"967 811 OFFCURVE",
"967 641 CURVE SMOOTH",
"967 0 LINE",
"1135 0 LINE",
"1135 649 LINE SMOOTH",
"1135 842 OFFCURVE",
"1117 973 OFFCURVE",
"1080 1043 CURVE SMOOTH",
"1045 1110 OFFCURVE",
"980 1147 OFFCURVE",
"889 1147 CURVE SMOOTH",
"840 1147 OFFCURVE",
"798 1136 OFFCURVE",
"763 1113 CURVE SMOOTH",
"728 1090 OFFCURVE",
"699 1054 OFFCURVE",
"676 1006 CURVE"
);
}
);
width = 1233;
}
);
note = "\012\011m\012  ";
unicode = 006D;
},
{
glyphname = n;
layers = (
{
layerId = "A8E9A3C4-7003-4333-ABE9-545A429BAB07";
name = Regular;
paths = (
{
closed = 1;
nodes = (
"1051 694 LINE SMOOTH",
"1051 846 OFFCURVE",
"1023 960 OFFCURVE",
"967 1035 CURVE SMOOTH",
"913 1107 OFFCURVE",
"829 1147 OFFCURVE",
"710 1147 CURVE SMOOTH",
"635 1147 OFFCURVE",
"568 1131 OFFCURVE",
"512 1098 CURVE SMOOTH",
"456 1065 OFFCURVE",
"412 1016 OFFCURVE",
"379 952 CURVE",
"361 1120 LINE",
"195 1120 LINE",
"195 0 LINE",
"379 0 LINE",
"379 633 LINE SMOOTH",
"379 747 OFFCURVE",
"402 835 OFFCURVE",
"449 896 CURVE SMOOTH",
"494 955 OFFCURVE",
"558 987 OFFCURVE",
"646 987 CURVE SMOOTH",
"722 987 OFFCURVE",
"778 963 OFFCURVE",
"813 916 CURVE SMOOTH",
"848 869 OFFCURVE",
"866 795 OFFCURVE",
"866 694 CURVE SMOOTH",
"866 0 LINE",
"1051 0 LINE"
);
}
);
width = 1233;
}
);
note = "\012\011n\012  ";
unicode = 006E;
},
{
glyphname = nacute;
lastChange = "2015-07-16 02:08:52 +0000";
layers = (
{
layerId = "A8E9A3C4-7003-4333-ABE9-545A429BAB07";
name = Regular;
paths = (
{
closed = 1;
nodes = (
"776 1645 LINE",
"974 1645 LINE",
"649 1269 LINE",
"495 1269 LINE"
);
},
{
closed = 1;
nodes = (
"1051 0 LINE",
"866 0 LINE",
"866 694 LINE SMOOTH",
"866 894 OFFCURVE",
"798 987 OFFCURVE",
"648 987 CURVE SMOOTH",
"474 987 OFFCURVE",
"379 861 OFFCURVE",
"379 633 CURVE SMOOTH",
"379 0 LINE",
"195 0 LINE",
"195 1120 LINE",
"379 1120 LINE",
"379 952 LINE",
"444 1080 OFFCURVE",
"558 1147 OFFCURVE",
"711 1147 CURVE SMOOTH",
"939 1147 OFFCURVE",
"1051 998 OFFCURVE",
"1051 694 CURVE SMOOTH"
);
}
);
width = 1233;
}
);
note = "\012\011nacute\012  ";
unicode = 0144;
},
{
glyphname = ncaron;
lastChange = "2015-07-16 02:08:59 +0000";
layers = (
{
layerId = "A8E9A3C4-7003-4333-ABE9-545A429BAB07";
name = Regular;
paths = (
{
closed = 1;
nodes = (
"1051 0 LINE",
"866 0 LINE",
"866 694 LINE SMOOTH",
"866 894 OFFCURVE",
"798 987 OFFCURVE",
"648 987 CURVE SMOOTH",
"474 987 OFFCURVE",
"379 861 OFFCURVE",
"379 633 CURVE SMOOTH",
"379 0 LINE",
"195 0 LINE",
"195 1120 LINE",
"379 1120 LINE",
"379 952 LINE",
"444 1080 OFFCURVE",
"558 1147 OFFCURVE",
"711 1147 CURVE SMOOTH",
"939 1147 OFFCURVE",
"1051 998 OFFCURVE",
"1051 694 CURVE SMOOTH"
);
},
{
closed = 1;
nodes = (
"531 1262 LINE",
"285 1638 LINE",
"424 1638 LINE",
"604 1393 LINE",
"785 1638 LINE",
"924 1638 LINE",
"678 1262 LINE"
);
}
);
width = 1233;
}
);
note = "\012\011ncaron\012  ";
unicode = 0148;
},
{
glyphname = ncommaaccent;
lastChange = "2015-07-16 02:09:05 +0000";
layers = (
{
layerId = "A8E9A3C4-7003-4333-ABE9-545A429BAB07";
name = Regular;
paths = (
{
closed = 1;
nodes = (
"550 -199 LINE",
"789 -199 LINE",
"602 -544 LINE",
"456 -544 LINE"
);
},
{
closed = 1;
nodes = (
"1051 0 LINE",
"866 0 LINE",
"866 694 LINE SMOOTH",
"866 894 OFFCURVE",
"798 987 OFFCURVE",
"648 987 CURVE SMOOTH",
"474 987 OFFCURVE",
"379 861 OFFCURVE",
"379 633 CURVE SMOOTH",
"379 0 LINE",
"195 0 LINE",
"195 1120 LINE",
"379 1120 LINE",
"379 952 LINE",
"444 1080 OFFCURVE",
"558 1147 OFFCURVE",
"711 1147 CURVE SMOOTH",
"939 1147 OFFCURVE",
"1051 998 OFFCURVE",
"1051 694 CURVE SMOOTH"
);
}
);
width = 1233;
}
);
note = "\012\011ncommaaccent\012  ";
unicode = 0146;
},
{
glyphname = eng;
lastChange = "2015-07-16 02:09:11 +0000";
layers = (
{
layerId = "A8E9A3C4-7003-4333-ABE9-545A429BAB07";
name = Regular;
paths = (
{
closed = 1;
nodes = (
"1051 -20 LINE SMOOTH",
"1051 -280 OFFCURVE",
"927 -426 OFFCURVE",
"707 -426 CURVE SMOOTH",
"502 -426 LINE",
"502 -270 LINE",
"687 -270 LINE SMOOTH",
"807 -270 OFFCURVE",
"866 -188 OFFCURVE",
"866 -20 CURVE SMOOTH",
"866 694 LINE SMOOTH",
"866 894 OFFCURVE",
"798 987 OFFCURVE",
"648 987 CURVE SMOOTH",
"474 987 OFFCURVE",
"379 861 OFFCURVE",
"379 633 CURVE SMOOTH",
"379 0 LINE",
"195 0 LINE",
"195 1120 LINE",
"379 1120 LINE",
"379 952 LINE",
"444 1080 OFFCURVE",
"558 1147 OFFCURVE",
"711 1147 CURVE SMOOTH",
"939 1147 OFFCURVE",
"1051 998 OFFCURVE",
"1051 694 CURVE SMOOTH"
);
}
);
width = 1233;
}
);
note = "\012\011eng\012  ";
unicode = 014B;
},
{
glyphname = ntilde;
lastChange = "2015-07-16 02:09:20 +0000";
layers = (
{
layerId = "A8E9A3C4-7003-4333-ABE9-545A429BAB07";
name = Regular;
paths = (
{
closed = 1;
nodes = (
"1051 694 LINE SMOOTH",
"1051 846 OFFCURVE",
"1023 960 OFFCURVE",
"967 1035 CURVE SMOOTH",
"913 1107 OFFCURVE",
"829 1147 OFFCURVE",
"710 1147 CURVE SMOOTH",
"635 1147 OFFCURVE",
"568 1131 OFFCURVE",
"512 1098 CURVE SMOOTH",
"456 1065 OFFCURVE",
"412 1016 OFFCURVE",
"379 952 CURVE",
"361 1120 LINE",
"195 1120 LINE",
"195 0 LINE",
"379 0 LINE",
"379 633 LINE SMOOTH",
"379 747 OFFCURVE",
"402 835 OFFCURVE",
"449 896 CURVE SMOOTH",
"494 955 OFFCURVE",
"558 987 OFFCURVE",
"646 987 CURVE SMOOTH",
"722 987 OFFCURVE",
"778 963 OFFCURVE",
"813 916 CURVE SMOOTH",
"848 869 OFFCURVE",
"866 795 OFFCURVE",
"866 694 CURVE SMOOTH",
"866 0 LINE",
"1051 0 LINE"
);
},
{
closed = 1;
nodes = (
"612 1370 LINE",
"637 1348 OFFCURVE",
"660 1332 OFFCURVE",
"681 1323 CURVE SMOOTH",
"702 1314 OFFCURVE",
"726 1309 OFFCURVE",
"753 1309 CURVE SMOOTH",
"813 1309 OFFCURVE",
"860 1334 OFFCURVE",
"894 1383 CURVE SMOOTH",
"928 1432 OFFCURVE",
"945 1502 OFFCURVE",
"946 1591 CURVE",
"821 1591 LINE",
"820 1537 OFFCURVE",
"814 1498 OFFCURVE",
"802 1473 CURVE SMOOTH",
"790 1448 OFFCURVE",
"770 1436 OFFCURVE",
"746 1436 CURVE SMOOTH",
"736 1436 OFFCURVE",
"729 1438 OFFCURVE",
"716 1446 CURVE SMOOTH",
"708 1451 OFFCURVE",
"692 1462 OFFCURVE",
"678 1475 CURVE SMOOTH",
"621 1530 LINE",
"596 1552 OFFCURVE",
"573 1568 OFFCURVE",
"552 1577 CURVE SMOOTH",
"531 1586 OFFCURVE",
"507 1591 OFFCURVE",
"480 1591 CURVE SMOOTH",
"420 1591 OFFCURVE",
"373 1566 OFFCURVE",
"339 1517 CURVE SMOOTH",
"305 1468 OFFCURVE",
"288 1398 OFFCURVE",
"287 1309 CURVE",
"411 1309 LINE",
"412 1363 OFFCURVE",
"419 1402 OFFCURVE",
"431 1427 CURVE SMOOTH",
"443 1452 OFFCURVE",
"462 1464 OFFCURVE",
"487 1464 CURVE SMOOTH",
"497 1464 OFFCURVE",
"505 1462 OFFCURVE",
"517 1455 CURVE SMOOTH",
"525 1450 OFFCURVE",
"538 1441 OFFCURVE",
"555 1425 CURVE SMOOTH"
);
}
);
width = 1233;
}
);
note = "\012\011ntilde\012  ";
unicode = 00F1;
},
{
glyphname = o;
layers = (
{
layerId = "A8E9A3C4-7003-4333-ABE9-545A429BAB07";
name = Regular;
paths = (
{
closed = 1;
nodes = (
"710 991 OFFCURVE",
"781 955 OFFCURVE",
"829 882 CURVE SMOOTH",
"877 809 OFFCURVE",
"901 702 OFFCURVE",
"901 559 CURVE SMOOTH",
"901 417 OFFCURVE",
"877 310 OFFCURVE",
"829 237 CURVE SMOOTH",
"781 164 OFFCURVE",
"710 127 OFFCURVE",
"616 127 CURVE SMOOTH",
"523 127 OFFCURVE",
"452 164 OFFCURVE",
"404 237 CURVE SMOOTH",
"356 310 OFFCURVE",
"332 417 OFFCURVE",
"332 559 CURVE SMOOTH",
"332 702 OFFCURVE",
"356 809 OFFCURVE",
"404 882 CURVE SMOOTH",
"452 955 OFFCURVE",
"523 991 OFFCURVE",
"616 991 CURVE SMOOTH"
);
},
{
closed = 1;
nodes = (
"461 1147 OFFCURVE",
"342 1097 OFFCURVE",
"260 996 CURVE SMOOTH",
"178 895 OFFCURVE",
"137 750 OFFCURVE",
"137 560 CURVE SMOOTH",
"137 375 OFFCURVE",
"176 224 OFFCURVE",
"260 121 CURVE SMOOTH",
"342 21 OFFCURVE",
"463 -29 OFFCURVE",
"616 -29 CURVE SMOOTH",
"772 -29 OFFCURVE",
"893 23 OFFCURVE",
"973 121 CURVE SMOOTH",
"1055 221 OFFCURVE",
"1096 371 OFFCURVE",
"1096 561 CURVE SMOOTH",
"1096 750 OFFCURVE",
"1055 895 OFFCURVE",
"973 996 CURVE SMOOTH",
"893 1094 OFFCURVE",
"775 1147 OFFCURVE",
"616 1147 CURVE SMOOTH"
);
}
);
width = 1233;
}
);
note = "\012\011o\012  ";
unicode = 006F;
},
{
glyphname = oacute;
layers = (
{
layerId = "A8E9A3C4-7003-4333-ABE9-545A429BAB07";
name = Regular;
paths = (
{
closed = 1;
nodes = (
"710 991 OFFCURVE",
"781 955 OFFCURVE",
"829 882 CURVE SMOOTH",
"877 809 OFFCURVE",
"901 702 OFFCURVE",
"901 559 CURVE SMOOTH",
"901 417 OFFCURVE",
"877 310 OFFCURVE",
"829 237 CURVE SMOOTH",
"781 164 OFFCURVE",
"710 127 OFFCURVE",
"616 127 CURVE SMOOTH",
"523 127 OFFCURVE",
"452 164 OFFCURVE",
"404 237 CURVE SMOOTH",
"356 310 OFFCURVE",
"332 417 OFFCURVE",
"332 559 CURVE SMOOTH",
"332 702 OFFCURVE",
"356 809 OFFCURVE",
"404 882 CURVE SMOOTH",
"452 955 OFFCURVE",
"523 991 OFFCURVE",
"616 991 CURVE SMOOTH"
);
},
{
closed = 1;
nodes = (
"461 1147 OFFCURVE",
"342 1097 OFFCURVE",
"260 996 CURVE SMOOTH",
"178 895 OFFCURVE",
"137 750 OFFCURVE",
"137 560 CURVE SMOOTH",
"137 375 OFFCURVE",
"176 224 OFFCURVE",
"260 121 CURVE SMOOTH",
"342 21 OFFCURVE",
"463 -29 OFFCURVE",
"616 -29 CURVE SMOOTH",
"772 -29 OFFCURVE",
"893 23 OFFCURVE",
"973 121 CURVE SMOOTH",
"1055 221 OFFCURVE",
"1096 371 OFFCURVE",
"1096 561 CURVE SMOOTH",
"1096 750 OFFCURVE",
"1055 895 OFFCURVE",
"973 996 CURVE SMOOTH",
"893 1094 OFFCURVE",
"775 1147 OFFCURVE",
"616 1147 CURVE SMOOTH"
);
},
{
closed = 1;
nodes = (
"756 1638 LINE",
"475 1262 LINE",
"629 1262 LINE",
"954 1638 LINE"
);
}
);
width = 1233;
}
);
note = "\012\011oacute\012  ";
unicode = 00F3;
},
